<mxfile host="app.diagrams.net" modified="2021-08-27T07:39:42.604Z" agent="5.0 (X11; Linux x86_64) AppleWebKit/537.36 (KHTML, like Gecko) Chrome/91.0.4472.114 Safari/537.36" etag="P3tDA-ycjCo2NvOyCvXQ" version="14.9.9" type="github">
  <diagram id="-8rYAdaRne_medxheXFg" name="Page-1">
    <mxGraphModel dx="1550" dy="1900" grid="1" gridSize="10" guides="1" tooltips="1" connect="1" arrows="1" fold="1" page="1" pageScale="1" pageWidth="850" pageHeight="1100" math="0" shadow="0">
      <root>
        <mxCell id="0" />
        <mxCell id="1" parent="0" />
        <mxCell id="BoX9NHfvs7r--DL0Gee8-1" value="kafka" style="whiteSpace=wrap;html=1;aspect=fixed;" parent="1" vertex="1">
          <mxGeometry x="280" y="35" width="80" height="80" as="geometry" />
        </mxCell>
        <mxCell id="BoX9NHfvs7r--DL0Gee8-2" value="Inference worker" style="whiteSpace=wrap;html=1;aspect=fixed;" parent="1" vertex="1">
          <mxGeometry x="110" y="30" width="90" height="90" as="geometry" />
        </mxCell>
        <mxCell id="BoX9NHfvs7r--DL0Gee8-3" value="" style="endArrow=classic;html=1;exitX=1;exitY=0.5;exitDx=0;exitDy=0;entryX=0;entryY=0.5;entryDx=0;entryDy=0;" parent="1" source="BoX9NHfvs7r--DL0Gee8-2" target="BoX9NHfvs7r--DL0Gee8-1" edge="1">
          <mxGeometry width="50" height="50" relative="1" as="geometry">
            <mxPoint x="370" y="330" as="sourcePoint" />
            <mxPoint x="420" y="280" as="targetPoint" />
          </mxGeometry>
        </mxCell>
        <mxCell id="BoX9NHfvs7r--DL0Gee8-4" value="produce" style="edgeLabel;html=1;align=center;verticalAlign=middle;resizable=0;points=[];" parent="BoX9NHfvs7r--DL0Gee8-3" vertex="1" connectable="0">
          <mxGeometry x="-0.1213" y="-1" relative="1" as="geometry">
            <mxPoint as="offset" />
          </mxGeometry>
        </mxCell>
        <mxCell id="BoX9NHfvs7r--DL0Gee8-5" value="" style="endArrow=classic;html=1;exitX=0.5;exitY=1;exitDx=0;exitDy=0;entryX=0.5;entryY=0;entryDx=0;entryDy=0;" parent="1" source="BoX9NHfvs7r--DL0Gee8-1" target="BoX9NHfvs7r--DL0Gee8-7" edge="1">
          <mxGeometry width="50" height="50" relative="1" as="geometry">
            <mxPoint x="370" y="330" as="sourcePoint" />
            <mxPoint x="320" y="250" as="targetPoint" />
          </mxGeometry>
        </mxCell>
        <mxCell id="BoX9NHfvs7r--DL0Gee8-8" value="Insert data to" style="edgeLabel;html=1;align=center;verticalAlign=middle;resizable=0;points=[];" parent="BoX9NHfvs7r--DL0Gee8-5" vertex="1" connectable="0">
          <mxGeometry x="0.2035" y="-2" relative="1" as="geometry">
            <mxPoint as="offset" />
          </mxGeometry>
        </mxCell>
        <mxCell id="BoX9NHfvs7r--DL0Gee8-7" value="ksql" style="whiteSpace=wrap;html=1;aspect=fixed;" parent="1" vertex="1">
          <mxGeometry x="280" y="170" width="80" height="80" as="geometry" />
        </mxCell>
        <mxCell id="BoX9NHfvs7r--DL0Gee8-11" value="elasticsearch" style="whiteSpace=wrap;html=1;aspect=fixed;" parent="1" vertex="1">
          <mxGeometry x="280" y="300" width="80" height="80" as="geometry" />
        </mxCell>
        <mxCell id="BoX9NHfvs7r--DL0Gee8-15" value="Inference worker" style="whiteSpace=wrap;html=1;aspect=fixed;" parent="1" vertex="1">
          <mxGeometry x="120" y="417.5" width="90" height="90" as="geometry" />
        </mxCell>
        <mxCell id="BoX9NHfvs7r--DL0Gee8-16" value="REST API&lt;br&gt;(MES data)" style="whiteSpace=wrap;html=1;aspect=fixed;fillColor=#FFCE9F;" parent="1" vertex="1">
          <mxGeometry x="120" y="547.5" width="90" height="90" as="geometry" />
        </mxCell>
        <mxCell id="BoX9NHfvs7r--DL0Gee8-20" value="kafka" style="whiteSpace=wrap;html=1;aspect=fixed;" parent="1" vertex="1">
          <mxGeometry x="310" y="422.5" width="80" height="80" as="geometry" />
        </mxCell>
        <mxCell id="BoX9NHfvs7r--DL0Gee8-21" value="" style="endArrow=classic;html=1;entryX=0;entryY=0.5;entryDx=0;entryDy=0;exitX=1;exitY=0.5;exitDx=0;exitDy=0;" parent="1" source="BoX9NHfvs7r--DL0Gee8-15" target="BoX9NHfvs7r--DL0Gee8-20" edge="1">
          <mxGeometry width="50" height="50" relative="1" as="geometry">
            <mxPoint x="280" y="462.5" as="sourcePoint" />
            <mxPoint x="560" y="662.5" as="targetPoint" />
          </mxGeometry>
        </mxCell>
        <mxCell id="BoX9NHfvs7r--DL0Gee8-22" value="produce" style="edgeLabel;html=1;align=center;verticalAlign=middle;resizable=0;points=[];" parent="BoX9NHfvs7r--DL0Gee8-21" vertex="1" connectable="0">
          <mxGeometry x="-0.1213" y="-1" relative="1" as="geometry">
            <mxPoint as="offset" />
          </mxGeometry>
        </mxCell>
        <mxCell id="BoX9NHfvs7r--DL0Gee8-23" value="" style="endArrow=classic;html=1;entryX=0.5;entryY=0;entryDx=0;entryDy=0;exitX=0.5;exitY=1;exitDx=0;exitDy=0;" parent="1" source="BoX9NHfvs7r--DL0Gee8-20" target="BoX9NHfvs7r--DL0Gee8-25" edge="1">
          <mxGeometry width="50" height="50" relative="1" as="geometry">
            <mxPoint x="380" y="577.5" as="sourcePoint" />
            <mxPoint x="350" y="857.5" as="targetPoint" />
          </mxGeometry>
        </mxCell>
        <mxCell id="BoX9NHfvs7r--DL0Gee8-24" value="Insert data to" style="edgeLabel;html=1;align=center;verticalAlign=middle;resizable=0;points=[];" parent="BoX9NHfvs7r--DL0Gee8-23" vertex="1" connectable="0">
          <mxGeometry x="0.2035" y="-2" relative="1" as="geometry">
            <mxPoint as="offset" />
          </mxGeometry>
        </mxCell>
        <mxCell id="BoX9NHfvs7r--DL0Gee8-25" value="ksql&lt;br&gt;(merge &lt;br&gt;va data&lt;br&gt;and&amp;nbsp;&lt;br&gt;mes data)" style="whiteSpace=wrap;html=1;aspect=fixed;" parent="1" vertex="1">
          <mxGeometry x="310" y="552.5" width="80" height="80" as="geometry" />
        </mxCell>
        <mxCell id="BoX9NHfvs7r--DL0Gee8-26" value="" style="endArrow=classic;html=1;exitX=1;exitY=0.5;exitDx=0;exitDy=0;entryX=0;entryY=0.5;entryDx=0;entryDy=0;" parent="1" source="BoX9NHfvs7r--DL0Gee8-16" target="BoX9NHfvs7r--DL0Gee8-25" edge="1">
          <mxGeometry width="50" height="50" relative="1" as="geometry">
            <mxPoint x="400" y="457.5" as="sourcePoint" />
            <mxPoint x="450" y="407.5" as="targetPoint" />
          </mxGeometry>
        </mxCell>
        <mxCell id="BoX9NHfvs7r--DL0Gee8-32" value="get" style="edgeLabel;html=1;align=center;verticalAlign=middle;resizable=0;points=[];" parent="BoX9NHfvs7r--DL0Gee8-26" vertex="1" connectable="0">
          <mxGeometry x="-0.304" y="-1" relative="1" as="geometry">
            <mxPoint as="offset" />
          </mxGeometry>
        </mxCell>
        <mxCell id="BoX9NHfvs7r--DL0Gee8-29" value="elasticsearch&lt;br&gt;(create index for mes_data&lt;br&gt;va_data)" style="whiteSpace=wrap;html=1;aspect=fixed;" parent="1" vertex="1">
          <mxGeometry x="310" y="682.5" width="80" height="80" as="geometry" />
        </mxCell>
        <mxCell id="BoX9NHfvs7r--DL0Gee8-30" value="" style="endArrow=classic;html=1;exitX=0.5;exitY=1;exitDx=0;exitDy=0;entryX=0.5;entryY=0;entryDx=0;entryDy=0;" parent="1" target="BoX9NHfvs7r--DL0Gee8-29" edge="1">
          <mxGeometry width="50" height="50" relative="1" as="geometry">
            <mxPoint x="350" y="632.5" as="sourcePoint" />
            <mxPoint x="450" y="662.5" as="targetPoint" />
          </mxGeometry>
        </mxCell>
        <mxCell id="BoX9NHfvs7r--DL0Gee8-31" value="kafka-connect" style="edgeLabel;html=1;align=center;verticalAlign=middle;resizable=0;points=[];" parent="BoX9NHfvs7r--DL0Gee8-30" vertex="1" connectable="0">
          <mxGeometry x="0.1388" relative="1" as="geometry">
            <mxPoint as="offset" />
          </mxGeometry>
        </mxCell>
        <mxCell id="BoX9NHfvs7r--DL0Gee8-35" value="1. get current worker order as latest?&lt;br&gt;2. too much network request if get ems data from api?&lt;br&gt;3. how kafka produce data to ksql?&lt;br&gt;4. kafka-connect map from ksql and elsticsearch" style="rounded=0;whiteSpace=wrap;html=1;" parent="1" vertex="1">
          <mxGeometry x="490" y="650" width="310" height="101" as="geometry" />
        </mxCell>
        <mxCell id="BoX9NHfvs7r--DL0Gee8-36" value="tasks&lt;br&gt;1. setup new stream for va and mes data&lt;br&gt;2. create stream for mes data&lt;br&gt;3. merge va and mes data to new stream&lt;br&gt;4. create new index in elasticsearch for va and mes data&lt;br&gt;5. mapping new stream to new index&lt;br&gt;6. test kafka connect produce data to elasticsearch" style="rounded=0;whiteSpace=wrap;html=1;" parent="1" vertex="1">
          <mxGeometry x="490" y="505" width="340" height="105" as="geometry" />
        </mxCell>
        <mxCell id="BoX9NHfvs7r--DL0Gee8-37" value="va data" style="rounded=0;whiteSpace=wrap;html=1;" parent="1" vertex="1">
          <mxGeometry x="490" y="42.5" width="120" height="65" as="geometry" />
        </mxCell>
        <mxCell id="BoX9NHfvs7r--DL0Gee8-38" value="va data" style="rounded=0;whiteSpace=wrap;html=1;" parent="1" vertex="1">
          <mxGeometry x="490" y="417.5" width="120" height="65" as="geometry" />
        </mxCell>
        <mxCell id="BoX9NHfvs7r--DL0Gee8-39" value="mes data" style="rounded=0;whiteSpace=wrap;html=1;" parent="1" vertex="1">
          <mxGeometry x="610" y="417.5" width="120" height="65" as="geometry" />
        </mxCell>
        <mxCell id="BoX9NHfvs7r--DL0Gee8-40" value="" style="swimlane;startSize=0;fillColor=#FFF0CF;" parent="1" vertex="1">
          <mxGeometry x="90" y="520" width="200" height="160" as="geometry" />
        </mxCell>
        <mxCell id="BoX9NHfvs7r--DL0Gee8-41" value="stream" style="rounded=0;whiteSpace=wrap;html=1;fillColor=#FFCE9F;" parent="1" vertex="1">
          <mxGeometry x="280" y="220" width="80" height="30" as="geometry" />
        </mxCell>
        <mxCell id="BoX9NHfvs7r--DL0Gee8-42" value="" style="endArrow=classic;html=1;exitX=1;exitY=0.5;exitDx=0;exitDy=0;entryX=0.5;entryY=0;entryDx=0;entryDy=0;" parent="1" source="BoX9NHfvs7r--DL0Gee8-1" target="BoX9NHfvs7r--DL0Gee8-41" edge="1">
          <mxGeometry width="50" height="50" relative="1" as="geometry">
            <mxPoint x="550" y="420" as="sourcePoint" />
            <mxPoint x="600" y="370" as="targetPoint" />
          </mxGeometry>
        </mxCell>
        <mxCell id="BoX9NHfvs7r--DL0Gee8-45" value="" style="endArrow=classic;html=1;exitX=0;exitY=0.75;exitDx=0;exitDy=0;entryX=0;entryY=0.5;entryDx=0;entryDy=0;" parent="1" source="BoX9NHfvs7r--DL0Gee8-1" target="BoX9NHfvs7r--DL0Gee8-11" edge="1">
          <mxGeometry width="50" height="50" relative="1" as="geometry">
            <mxPoint x="550" y="420" as="sourcePoint" />
            <mxPoint x="160" y="270" as="targetPoint" />
            <Array as="points">
              <mxPoint x="160" y="190" />
            </Array>
          </mxGeometry>
        </mxCell>
        <mxCell id="BoX9NHfvs7r--DL0Gee8-46" value="kafka connect" style="edgeLabel;html=1;align=center;verticalAlign=middle;resizable=0;points=[];" parent="BoX9NHfvs7r--DL0Gee8-45" vertex="1" connectable="0">
          <mxGeometry x="0.16" relative="1" as="geometry">
            <mxPoint as="offset" />
          </mxGeometry>
        </mxCell>
        <mxCell id="BoX9NHfvs7r--DL0Gee8-48" value="" style="endArrow=classic;html=1;exitX=0.5;exitY=1;exitDx=0;exitDy=0;entryX=1;entryY=0.25;entryDx=0;entryDy=0;" parent="1" source="BoX9NHfvs7r--DL0Gee8-41" target="BoX9NHfvs7r--DL0Gee8-1" edge="1">
          <mxGeometry width="50" height="50" relative="1" as="geometry">
            <mxPoint x="550" y="420" as="sourcePoint" />
            <mxPoint x="600" y="370" as="targetPoint" />
            <Array as="points">
              <mxPoint x="490" y="310" />
              <mxPoint x="480" y="170" />
            </Array>
          </mxGeometry>
        </mxCell>
        <mxCell id="BoX9NHfvs7r--DL0Gee8-68" value="KSQL Streams" style="swimlane;fillColor=#FFCE9F;" parent="1" vertex="1">
          <mxGeometry x="950" y="310" width="720" height="330" as="geometry" />
        </mxCell>
        <mxCell id="BoX9NHfvs7r--DL0Gee8-88" value="t_mes_integrated" style="rounded=1;whiteSpace=wrap;html=1;fillColor=#FFCE9F;" parent="BoX9NHfvs7r--DL0Gee8-68" vertex="1">
          <mxGeometry x="115" y="165" width="130" height="50" as="geometry" />
        </mxCell>
        <mxCell id="BoX9NHfvs7r--DL0Gee8-89" value="s_production_line_va" style="rounded=1;whiteSpace=wrap;html=1;fillColor=#E6FFCC;" parent="BoX9NHfvs7r--DL0Gee8-68" vertex="1">
          <mxGeometry x="115" y="60" width="130" height="60" as="geometry" />
        </mxCell>
        <mxCell id="BoX9NHfvs7r--DL0Gee8-91" value="s_production_line_va_intermediate" style="rounded=1;whiteSpace=wrap;html=1;fillColor=#E6FFCC;" parent="BoX9NHfvs7r--DL0Gee8-68" vertex="1">
          <mxGeometry x="290" y="60" width="190" height="60" as="geometry" />
        </mxCell>
        <mxCell id="BoX9NHfvs7r--DL0Gee8-92" style="edgeStyle=orthogonalEdgeStyle;rounded=0;orthogonalLoop=1;jettySize=auto;html=1;entryX=0;entryY=0.5;entryDx=0;entryDy=0;" parent="BoX9NHfvs7r--DL0Gee8-68" source="BoX9NHfvs7r--DL0Gee8-89" target="BoX9NHfvs7r--DL0Gee8-91" edge="1">
          <mxGeometry relative="1" as="geometry">
            <mxPoint x="310" y="120" as="targetPoint" />
          </mxGeometry>
        </mxCell>
        <mxCell id="BoX9NHfvs7r--DL0Gee8-106" value="" style="endArrow=classic;html=1;exitX=1;exitY=0.5;exitDx=0;exitDy=0;entryX=0;entryY=0.5;entryDx=0;entryDy=0;" parent="BoX9NHfvs7r--DL0Gee8-68" source="BoX9NHfvs7r--DL0Gee8-88" target="F4LtBCqEMJ21seOdK-4i-22" edge="1">
          <mxGeometry width="50" height="50" relative="1" as="geometry">
            <mxPoint x="490" y="50" as="sourcePoint" />
            <mxPoint x="290" y="190" as="targetPoint" />
          </mxGeometry>
        </mxCell>
        <mxCell id="BoX9NHfvs7r--DL0Gee8-119" value="need to restrict the order&lt;br&gt;between&lt;br&gt;s_production_line_va&lt;br&gt;and&amp;nbsp;&lt;br&gt;s_mes_data_raw" style="rounded=1;whiteSpace=wrap;html=1;fillColor=#FFCCCC;" parent="BoX9NHfvs7r--DL0Gee8-68" vertex="1">
          <mxGeometry x="115" y="230" width="155" height="90" as="geometry" />
        </mxCell>
        <mxCell id="F4LtBCqEMJ21seOdK-4i-20" value="ksqlserver upgrate to 6.1.2" style="text;html=1;strokeColor=none;fillColor=none;align=center;verticalAlign=middle;whiteSpace=wrap;rounded=0;" parent="BoX9NHfvs7r--DL0Gee8-68" vertex="1">
          <mxGeometry x="540" y="30" width="190" height="50" as="geometry" />
        </mxCell>
        <mxCell id="F4LtBCqEMJ21seOdK-4i-22" value="s_mes_va_data" style="rounded=1;whiteSpace=wrap;html=1;fillColor=#FFCE9F;" parent="BoX9NHfvs7r--DL0Gee8-68" vertex="1">
          <mxGeometry x="310" y="165" width="130" height="50" as="geometry" />
        </mxCell>
        <mxCell id="F4LtBCqEMJ21seOdK-4i-21" value="" style="endArrow=classic;html=1;exitX=1;exitY=0.5;exitDx=0;exitDy=0;entryX=0.5;entryY=0;entryDx=0;entryDy=0;" parent="BoX9NHfvs7r--DL0Gee8-68" source="BoX9NHfvs7r--DL0Gee8-89" target="F4LtBCqEMJ21seOdK-4i-22" edge="1">
          <mxGeometry width="50" height="50" relative="1" as="geometry">
            <mxPoint x="340" as="sourcePoint" />
            <mxPoint x="350" y="170" as="targetPoint" />
          </mxGeometry>
        </mxCell>
        <mxCell id="BoX9NHfvs7r--DL0Gee8-72" value="" style="endArrow=classic;html=1;exitX=0.5;exitY=1;exitDx=0;exitDy=0;entryX=0.5;entryY=0;entryDx=0;entryDy=0;" parent="1" source="BoX9NHfvs7r--DL0Gee8-71" target="BoX9NHfvs7r--DL0Gee8-44" edge="1">
          <mxGeometry width="50" height="50" relative="1" as="geometry">
            <mxPoint x="1250" y="320" as="sourcePoint" />
            <mxPoint x="1300" y="270" as="targetPoint" />
            <Array as="points">
              <mxPoint x="1430" y="40" />
            </Array>
          </mxGeometry>
        </mxCell>
        <mxCell id="BoX9NHfvs7r--DL0Gee8-73" value="Kafka" style="swimlane;fillColor=#FFCE9F;" parent="1" vertex="1">
          <mxGeometry x="950" y="110" width="720" height="193.75" as="geometry" />
        </mxCell>
        <mxCell id="BoX9NHfvs7r--DL0Gee8-75" value="kafka-connect" style="rhombus;whiteSpace=wrap;html=1;fillColor=#CCE5FF;" parent="BoX9NHfvs7r--DL0Gee8-73" vertex="1">
          <mxGeometry x="580" y="44.69000000000001" width="120" height="70.63" as="geometry" />
        </mxCell>
        <mxCell id="BoX9NHfvs7r--DL0Gee8-44" value="kafka-topic&lt;br&gt;(production line va)" style="rounded=0;whiteSpace=wrap;html=1;fillColor=#E6FFCC;" parent="BoX9NHfvs7r--DL0Gee8-73" vertex="1">
          <mxGeometry x="155" y="52.49999999999999" width="130" height="52.5" as="geometry" />
        </mxCell>
        <mxCell id="BoX9NHfvs7r--DL0Gee8-103" value="kafka-topic&lt;br&gt;(mes_data)" style="rounded=0;whiteSpace=wrap;html=1;fillColor=#FFCE9F;" parent="BoX9NHfvs7r--DL0Gee8-73" vertex="1">
          <mxGeometry x="15" y="124.36999999999999" width="130" height="52.5" as="geometry" />
        </mxCell>
        <mxCell id="BoX9NHfvs7r--DL0Gee8-52" value="kafka-topic&lt;br&gt;(s_production_line_va_immediate)" style="rounded=0;whiteSpace=wrap;html=1;fillColor=#E6FFCC;" parent="BoX9NHfvs7r--DL0Gee8-73" vertex="1">
          <mxGeometry x="320" y="53.75000000000001" width="200" height="51.25" as="geometry" />
        </mxCell>
        <mxCell id="BoX9NHfvs7r--DL0Gee8-77" style="edgeStyle=orthogonalEdgeStyle;rounded=0;orthogonalLoop=1;jettySize=auto;html=1;entryX=0;entryY=0.5;entryDx=0;entryDy=0;" parent="BoX9NHfvs7r--DL0Gee8-73" source="BoX9NHfvs7r--DL0Gee8-52" target="BoX9NHfvs7r--DL0Gee8-75" edge="1">
          <mxGeometry relative="1" as="geometry" />
        </mxCell>
        <mxCell id="BoX9NHfvs7r--DL0Gee8-109" value="kafka-topic&lt;br&gt;(s_mes_va_data)" style="rounded=0;whiteSpace=wrap;html=1;fillColor=#FFCE9F;" parent="BoX9NHfvs7r--DL0Gee8-73" vertex="1">
          <mxGeometry x="430" y="125.62" width="150" height="51.25" as="geometry" />
        </mxCell>
        <mxCell id="BoX9NHfvs7r--DL0Gee8-111" value="" style="endArrow=classic;html=1;exitX=1;exitY=0.5;exitDx=0;exitDy=0;entryX=0.5;entryY=1;entryDx=0;entryDy=0;" parent="BoX9NHfvs7r--DL0Gee8-73" source="BoX9NHfvs7r--DL0Gee8-109" target="BoX9NHfvs7r--DL0Gee8-75" edge="1">
          <mxGeometry width="50" height="50" relative="1" as="geometry">
            <mxPoint x="490" y="270" as="sourcePoint" />
            <mxPoint x="540" y="220" as="targetPoint" />
            <Array as="points">
              <mxPoint x="640" y="151" />
            </Array>
          </mxGeometry>
        </mxCell>
        <mxCell id="tyIjnCwoIcwFDJeWjVvG-14" value="kafka-connect" style="rhombus;whiteSpace=wrap;html=1;fillColor=#CCE5FF;" parent="BoX9NHfvs7r--DL0Gee8-73" vertex="1">
          <mxGeometry x="20" y="43.440000000000005" width="120" height="70.63" as="geometry" />
        </mxCell>
        <mxCell id="tyIjnCwoIcwFDJeWjVvG-16" value="" style="endArrow=classic;html=1;exitX=0.5;exitY=1;exitDx=0;exitDy=0;entryX=0.5;entryY=0;entryDx=0;entryDy=0;" parent="BoX9NHfvs7r--DL0Gee8-73" source="tyIjnCwoIcwFDJeWjVvG-14" target="BoX9NHfvs7r--DL0Gee8-103" edge="1">
          <mxGeometry width="50" height="50" relative="1" as="geometry">
            <mxPoint x="380" y="110" as="sourcePoint" />
            <mxPoint x="430" y="60" as="targetPoint" />
          </mxGeometry>
        </mxCell>
        <mxCell id="BoX9NHfvs7r--DL0Gee8-87" value="&lt;br&gt;es_sink_$tablename" style="rounded=1;whiteSpace=wrap;html=1;fillColor=#CCE5FF;" parent="1" vertex="1">
          <mxGeometry x="1700" y="130" width="120" height="50" as="geometry" />
        </mxCell>
        <mxCell id="BoX9NHfvs7r--DL0Gee8-61" value="" style="shape=image;verticalLabelPosition=bottom;labelBackgroundColor=#ffffff;verticalAlign=top;aspect=fixed;imageAspect=0;image=data:image/png,iVBORw0KGgoAAAANSUhEUgAAAfwAAAFoCAIAAAA9x94RAAAgAElEQVR4Aey9XVMbyZY2+v6PPZ3CLkNYtqfl7pbdgdodVnsje17U7kB2IHsC2THIPpb9hoVnLPrsm2PRs4E+jeiw6AjEnoPYQbFjEO9s5HOQLyhfUI6g5oLaF9SN8vfsOLEy6yOr9A0CI1gVDlMfWZkrnyw9mbnWylz/g+CBCCACiAAicFIR6O8f6O6//3FSa4pyIQKIACKACJDuMn5//wCSPn5ViAAigAicXASQ9E9u26BkiAAigAh0HQEk/a5DihkiAogAInByEUDSP7ltg5IhAogAInDyEUCd/slvI5QQEUAEEIGuIYCk3zUoMSNEABFABE4+Akj6J7+NUEJEABFABLqGAJJ+16DEjBABRAAROPkItEX6UiAST6bSmUw6lYiF/E6tAqFI1DoikXAoKDyzUkmBsJPISgx/I2JOPLU/yJKGr0rW2+yvWIyYg3keMdNLwXCdp1BSPblcJdRe+EOxBFSZ1TkSdARqTxgx1REiQ/y8BTw1NJGIhAO+2pqd1jv9I3MVRVlMfvEJK/jJZfCdH13QdPvYzt1tjsad7LqirKVDZ+g7aQ7IJ3nqC4wVKpXF5PXjKb0V6UuhR/ktnYqHsVt4yMn9y2fr4gM4N7Ry/nlY4P6+wdcVbyJ+bSwn+t2VDE5WqiyTtYSYw8VnG/VzMO9WKz+FCPGR4Xm1frrd/A/ugppfSbdSy6rhzsrQFhOXCSF97QlzPMgQIj1dZYjR91nhd/v1y00u/mb6UzJgc5S7/nRgbNWgdDN9JL8cX3AsL8uL6e+ai32kMjQv2no6GM/AMZXf1Cndzd+37tf/ez+/S+mH6TCSfn18juWu/2Fhl+orIukdabnNST/wuLhLKdUrC6lYJBQMhqPxidz6jvwiwITi1KaXZlPJZDKVSmfzJUaWe6UXQUtqk/S1tZm050jFgq5Pre/zl2WDGrpOqe7qD6RQXHh1obJPKVUKk869xHd+h/Q/FjPOE36WjF61xGn998rYskapoa5lE9FwMBgMRe4l3xTK6mqKEWh7whwTMibpG4ZBt7PfWnULTpb34RYwIJK+hcrh/vbdfKNQule470z56mXoC46k0ul4+EK9h8d679zNaaUN0r8aHU+nExFhjHWsUmJhhABDGnRn5s6xgdGM9K+MLmqUVpWfI+4vXfKb3winth1hCukLjK/BvODjXMQkdE76fDDevFZfPls3qCFnZyrw63roLtN+Vbpf2KOUriYH7Fv8xBrpb6QO9QUHX5Wr1D1wZvlLUh2BGgpzXMjwkf77orxbVX4KM0H7vnpdMXS5WEbS93whh7lsk/QPU0R3322T9LtbKObWOQLSXZhsvc8IM/XOM+nsjSak738q71OqrzK1Rt1ca6mNEOkxvEXXU1f4K22TPivO2EgFwlNKtar9FqtDsoSQhjzbFdL3keEFjVL9Tw1K98DQUJjjQoaT/rtMck6lH7Jskn7j9ZahLT1Jg+ats5G+FLyXWSxVVE3TNVWplIu5zD17xuapeYPLmxMFWc49CofH50uKqmmaUi5k7vF5ofjKN6m3spxPhi5cjb3Os5SqUi5kheKk4ANTGE1TK3JuIlqTy6XweE4GcTW1XMzeuzHuUe8MPskXi7knYhWuJ+aKxXzKq83wf5d4U2A11zSlUipkk7d5aT4yPFmU4SjDHNbQKuwC/ltMOaoen38kaz+Q5ek4aAJrj0uRZzm5rHB8S4Vs4hvxG/cFx3KgQboNybgwarmQ+f5gY5jmpN8Xec2rxaSeT7rn3ISQtoWRvhGgKxdnE53NcqTvM8uyPJ/wNu7g84IsF57zcQwh/u/i6ZlCqQzfFHyc5WIuFelg+m63hU+CllrN3pP84SczRWgM+LzmU+FLPM3VSCKTK5YqiqrpUFKpOJMERQI7zM9b/KLMJ4T4/CMzslzMfC+2qf200Ynv/OiSTtsZEzfK4QD3G5I+l4bSjZS3PZxS6lEb7yqM1aT53bdJ+r6LYytQ+R+DhNzN7VCqvY32OSU5Zw15tiukT8jNWaUKWs5IOzP0hsIcFzIm6adD0XmVbmdvETI4WanuFu5zATohfUuVp5QK+XyhCORkGGvJTj5h85vRFVUHeiwUilzdt5M3jUB2M7Im/liYKajApEq5XK6oumGsJcziBp+XYD6nK6VioVBkhEvVpbjwKfaHYVJMqV2OoSpg0rF1+rz/rqq/RuxSCbk1vQ2fVkw0JgWfFHcgJ15YoVhSdIO+zzAe9JHhrFyCg8ugVdgF/Lcs6Pd9/tEZnkyBea4tg1AyuTwyp5j9RqFQKLGE+mbmlg1w3yBokIxKqaLrSkku8n6G6uupg1gpWpB+9DWXt6IZdXX67QkTeJjfdurE28l4n23rt2Niw+f3HsTODU2rwnTf+q7UilyEj9NE5uNivGPe5za5aml+trxPDV2tlMvwodPtmd8zgfwvSlX4FMpmSQwfY3vmLuP9ADw1/mx9pWLzkoGRtxqlW46W1fW00cW5YXhLVJY0StnF+w1Jv++r12VKq9pv0cal1VJb/+DrMnwFG2lr7MBJn2pr2XTKfdwLCTkPjC7rlNMWGRhZ1AGIfxKe26cNedYi/Q+FjLucVDJqCWPn0uTk1hv4jqmhlvKTyZjHLcbzXkNhjgsZi/SD0p3cTlX5+fbNNxX6329j/VeYjb190u/76mWZ0v3yK3EUEwiHxUtP5WsvrYEC3bFM/US6OQU2GEfdx99ipG8Yhrqc+s5iPSkYjfJP4gs2Zt8rvbC+EOlOdstgGmorcXCitE+pZv/s+8PswxMIt03S50bvvdKPYStrQqRr8YRnYtGmeqeRIddHhmahS/owFzVHlL7A2ArYjt4JvxQgfUq15YTJZf1ML89HQrVoN7/TnPTtdxsZcjnpNxfmi7FVndK90isbuguhlxs63a/8aDWcXU7DE1AIG7RahtGefdxhw75Fp28ejCW/FzzoSF8I7H+2StN+seWJ6YhhGHplNmaPIfzhqDlvkMLxRCTgfAo+aWi2UrWb6dab7dqPmRf6bXar8VC1oVw3Xm9R6gyRG6br6oPGpM8sV1X1Z3Gg5CmaU5uhrBXYUZR5v/hB9D0ySd/tC8OuNpLWrMlS2mhzbHQPo35o0Z+tyZ1YbEOetUi/tiR9MS6O7MTc6p4H3Q5LulpaSNc3BTcU5riQsUnfd25oTqUfZXmba8Y6JX3OEfvyY6dN6mLT9KZF+i4F5ZUx6M49XTgjfbDc1CvO/wII3dVP+M6ProCB31S7gc2feibF0kNm7LHHjO2RPpvYGe/4uL5J5Q5J+qx16H7J9IDgBTGaoJsZcyDPebaqgCuaddycUqpU/1PcYSHrSau/XSH9psIEJ5n1y62Mlu4XQEMt+pK1kpTrBpxvhv+QGyt4eX580N3ZTFTwvnOKayUe+RaIXuc9EB+PWt/YzeRMLpe6zRqHa6ddboctcyaEf7SNtBptZHCgJF0gfRfL6u+nY+ZYhstjkr66lPT60IftjtYnmZp06+MOsJ+9qaR216shz1qk/34m7i2pdkGAO886V1IwkkhP5+Wyavqraqt1vGgbCsNJ/+iRcUjfR4a4x+puHjxMOiV9nzSypDFtSWEqFY+GhMFOHXQa3OKkDz9XIQEYlimtll6I/M5H+i4fLesVsx29k2jTwM7ZmU+lPb40X77cFFUr7ZB+3+fgDdzOgPGQpM+bg+nfrHoSUyFg+yxw0t8vii4MrNaO1st5t+VZV0i/iTC+8zAyo9paJu46nhd2KDWWOxlm8WHBVuYGr9SApfFw93SB28lMrlCUS6UyO5h+7F3aJpGWiLAEpnrH8nqo95J0LfosmyvYBVWYNYd/q76LMC/ZY23EdVCgC5HAX3xB885X6mXuuScxu+lxu8w2Jn02mLLHVh5h+aVbiSFdi75egxnr+6xgzGlHp39ueE6FgdtsPGYeT+DTofZ3IJTekGct0j+k945QlHnqv51eBS+mOrblhsIcFzIO6RNC7sxs67o6FwVrRKekTwi5FHm5wn5JvK/S1Y1c0mVprIXGc8ckffcUzfyZuaf8jPTNiV39TLxo85qaP4+BsWWjZvYwML7aMekPvuEdUkvqOCTpfw2zeK+un7PGvvyYsxsnfbsPYLDwru4vdZXIHtw8l10h/SbC8MmWa1gjXNQ613nEEy/5NM4yZkpM4+Se5/mHZysw+DK0SkmWi3DIFRijHJT03UMQQRjTSkF11SkJfhTGqrmoCGxmXP8BHhOqohgfpyM+PrLxTGeFbBudcrcXyKFRiqO435D0fZ+NgB8LdXSOtcW7qQ2eX2bWDFE13A7p35kGiq89qm4VMxOgIc8eGekTQgLMj7N25tFQmONCxkX6YgMdgPT56/5QJJ5MzxT5iryPvAsRc25ybpK+23ZqqmLcTclI3/XDtrM1PzyvToNb2D5wvcHAKFh9PGvurCqb2pK6I332pTmGXNNw5VYo25KIJ4ckfT4L8Qxizg3PaZTuF3uT9NkqxWplNhKoc/jdo3QRyXrnXMsBvy8+4/RolZkm3dgyrak8A/49dJn0+1mLuA08xFS7WytJ787tUrqRDgQmSvtb2XuT5f2t7LdXYBSidzS/4dVgPZzzQdYDp/v3GpI+6JuKe5QalgKrTtm11EZIkGlmnGq0QfpMcUnf55LCPDGRXlGZ/cQ7BmvIs0dJ+o1mYQ2FOS5kuk/6djNff7kOo+lO1oyYOn1jTbDWEE5tfEZsZ96E9AnhC7NN/xn+iqXzMXPmFLzvHq/xoYP9uXJ9l9sTwVKhWhZCoBgwFbReDHlI0ue9lHvgDLMxg9JtC+HujvTbFLi5IdctsGvaYaoTvX2z3cKdnXB93Xb21hXWnbv1YJzfXW6E1o+9y6TP+d2tdTRp0BrpEzbL1AvJlKyr05ELN15v7Zd/fAyW546FIYTw0cB66lgXUTYhfdLPtC5UW3F70UrBkGlIr0dtpqbSHuy3JP0+PsV2T/8J4WsWjBo4GvKs9R0cUr3jj8TjIfc4xVxxZtRaaRoKc1zIdI/0axafcU2r5crW1m/YJH0qtpp0Nw9KXtuFl2fUlPS5YyXdAg9U8xgYeasKzkUm48CqDjOBTzI34bBJnxBOUo6R1ucf5XYLwWWTGx6NrazjOgk5Sn7PWNWer1gFWpK5/zb03rnIFi26epfgRBkckN4ydRzYGJnLZhOedRfV4oprn1uaKw5M+qBOhAm6sZk2dfG2QJI/INpv7PtNTrhVr6rMT8FA02MHNodcfBkKz+QL5h1wAJ61XDZdFiZbsK/BLGSsC+vY+0IvN5gzn0363M9NrVR05tkIajTjQ0WpNnA8sfOuf3JuCBZOe6xT9ZN2724z0ifEf3cGXOWo9i6fSSUSiWQ6Wyipe5YTQl1qY67i7Gtm4ylO+lRXuCqO6eP4f4WZxDVCCFd31o4o+eBoX37q/oAa8qxF+lpFKMMsKXvPnUkT/BhT6Iqcz6aTiXg8kcq8NZ3Nc3fdfUGzlWLHhUzXSP/c8JyilgszE4lYNBKJPkhNb4Byr1aj1QQ6Yo30DUN/X0g/iEZjT2bW2aLu+agbu+akb/Wyqpx9EotGH6TmymyZ91vBR+D6s3VQtVaW0vFoNJacLe1aO084Xu3cPUavLKQTsXgivVDRNE33+OmbrpNUrxQmE7FoNBp7lJ4rqRs1/jyDzPdUrxRm+DYfwt4e/nA8yY/nedDdq8VJ2JgkmUwmzEVehEh3ZsAVGIQBgROTRbjcKzk+st0lfULYji7gerwwk4UjYS9Jk0IxLl4yNVveo1STs8/NG1H4SbbZA/n8owvgh6qX85NJ8J6IxZOZnFzRvPaYZt+M/Yx9EqDirXrHf4T58lODQReJxp5kV1VD045Apw9kBY30Lpe6F2W/gpJmsG/G1ukTy/vW3DXAop0DErc5H1V/beIZb0PUrZPmpE8I8d9OLTJPTEvlbqjrWZP+GlAb4YNEPtg3Sd96W/zLRpEBz3jHrpjv4tgaNIBn6t2S9MUSzPN6tgG7HM+JdDu9yFfOOBkZ6urMA9GP2HqnoTDHhUzXSL8v9GwFFiU5h6G9m2O9slXZ1n9Nnb6yMJGF3b74oStLyZB3pVtz0ieEXHBblan+Pu9ev0qI//ss9Cj8MJSlJxnPilzik4amgNT4oW/nnzyaqV2cRXzB0VnesZspDbU0FasZJlwIjc2XYMUaTyXsZcb1k+bL4h+3cin4YGYT1kKZh6HKk1GhlG6TPvH5h54XynaJtnGV+yxZYrj+dmpg8AVGpmTB+s/XuOUe1fuxtPh+uFcrmLstH1bhhcCDnLDto/FhOXX7BWw12LFGpflInxByI7kIa+jMQ9/KP777Gob/9kjf8rPUl82tCrjl2bD3IBDEbuvU9P23JnxtvXO4RC1Jn2cvBcORaCwWjRzMl+9wMn6Kt6VAMAQ1jkXDQc9M/1OIc0xlSn7ezlBr99C8LQEs0ocFFlIgDB+Md5fstvKxEkmwQTV8dY23xoatpZsmsAVp5YQqsaxi0fDRfuL+IMMlEm4ljwVCL/y1K3WU2EmBkPmDPMCn2RGK/NuNRY+njfi8tsGalY7kbjdxm6TfbnaY7iwjIJL+WcYB644IdIQA7AJgvHMvc+sog84SI+l3hhemboIAkn4TcPARItAIAZ80lMrls3HToNIoWbfuI+l3C8nTnA8ou1odAck05B7MjeE0w9eVukmBVi0QOlGKyDa/mS5g02vIdKHKh8sCSf9w+J2Nt6/F3+T5/koN/59Jsg3BJb/fXy/ywNnA6Qhr6QuN5xqCzx/ks53vOnl0Erf/zRxShp5D5pD1PfzrSPqHxxBzQAQQAUSgZxBA0u+ZpkJBEQFEABE4PAINST8cDgcCzZcfHr50zAERQAQQAUTgWBFA0j9WuLEwRAARQAQ+LQJI+p8WfywdEUAEEIFjRQBJ/1jhxsIQAUQAEfi0CCDpf1r8sXREABFABI4VAST9g8DtD0a8IRnhOuLEZQyEIUUk5DKFS8GwlYid1svDvGdlBbvP1Ds8OUMlpKuReDKVzqRTibh7txqJS1Obj1UKkcQKRSLh4GnaGeYgLYzvIAKnFgEk/QM0rbm5prUVn/3XsMMvsI25YctBays+KMUMqik/lQixN5K1X3afmFFGeTQo9yN+5WwlD3tShsYWWDw5J6XxYdHaI7PxRqemwDzIlPMuO9OVtWzs6gHQwVcQAUTgJCOApH+Q1rkWfZZmx0Jln1K6XZhgV6lY0Ix1aZE+3bdiD3hI/2p0nOeQTqcnsquwLbm2MWPfSptZcdLXy/POE/PsgR3pxRccW4EthvVy/nksEgoGQ9FEeqGsbef+idfNJH1tTcif52KWYpH+h0IatlVPpTOzxW22N3Jn4RIPAiW+gwggAseLAJL+YfDm4ffEvbbN3Djp67ouhgESR/piqTwWjycuKE/ASX8nd1dM7z73P2ZRLbdm7rh3nA2ELN0SJ30r8LT7bXZlkb4YdAyCflAKnZaw5Xudd/EWIoAI9BYCvUL60vfZZVmejYeiE4WSommaqpTyE5EaQroUeZaTy4qm6ZCikPVG3gDd9zeJN4WSomo6pKmUijMTUZfqvf0WbEH6lVyubNAdK+TWUZA+BMSoE2rGVYUDkT6BOHCUVo83po9LbrxABBCBI0CgZ0j/KQTK0RTVMNRysVAolncNSg3lZzEO3+WROYh6Y2gVuVAo8PhX+mbGFf70xksWZg+S5POFolxWdaovWpGyO0S4BelvZW4/lfeoFTz6KEifhWluMR4/IOkPTatA+j9HOgQFkyMCiMBJRqC3SJ9WlZ8jphbDfze3TamxlTHjMluxKz/MRS9xxM3wp8a7tKVqJ+TmrFKl+lpSGNpLwUg4YOriO2yqlqR/fWDkrQZhwSHa/YFJXy/Np1PuI/4dn+TceA1BWXfzPzSR3NbpZ7253Aux1+qpd/wPIaA53cn/4NYaNSkHHyECiEAPINBbpO8KRNn3OQSqt8Mo8xibouGUEMJDY9tRN32fjSxotHqgwM31GrM16UNXpFS5kAcmfY9fjRg8+s40UDOLNswF9IdjceuI8K7NJP3aXOhGknUdFulrMIeCo8hnSbulKTGIaz0E8B4igAj0GAK9RfofsmFnSM4DyVPjz3E2FuU2z+3sLbEF2EDbjFvP7gdA30INrbSQScYioUOGv21N+oSQr19vGvTjdMR3YNLfLU7EPE72VuxZD+lb9M0J/i9JhoxJ+upS0pNJNMx7Bfdb/F1jp/jCdhASIcVzRAAR6GkEeov0RUUNIWRwqlKl1nD1a6bo2ExfF9uD8+y+/NjWUfgCI1PyjhDvXlmdeRAU3+ngvC3Sh8DHBt3N37/MteTMT18s5DDeO7zWu/n7Vob+UDQej6eZE6eL9Dvw3vGHH+W3DUp3i48FNZhVAv5FBBCBXkagt0j/vTt28M0ppUqNtQRj9C9fblJKbRU/b5Rzw3MapftFh/T5fSkQisaTmdyqAu7oxpZ7ftB2g7ZF+oRIDwu7YEiIzYFptKukPzC6qFNaLb9yszMzXdCDkj7Uf3CivE+p9vaAJu62IcSEiAAicLwI9Bbpu9xsfOdHV3THp5DT317hoT2oJ4RcebZugMr7TiNU+2++qVAwDBxosN8m6RNmbzDKhWLXSd93cWxNp9RwmaZNe/WhSJ8MDL9VKd0vvzoQMo3wxvuIACLwiRHoLdKnu4WHtmv+lbFlncIdzvK+i+NAf/pKwk5BguZwNXrBglnyBHDt+/xluc5I2Ure4m+7pE/I4GSlSg3D6PZInxCJ7+iwk7/v1Js7KR2O9ImNnnew739S3NU0zUa+BUj4GBFABE4SAr1F+oZh6OXc83g0+iA1V4YR7vuMY9qFRaSwUKmykI5Ho7HEZBEu90rOWNV3frSoKaV8NpWIRSORaDw9Xwa7rscS0LKBvku9LRThKKtV2EChzC6KhXTEtQ3DVsYxMHzJ5hzgeNO5esdQN3gBzv+FfMqquM8/PMuWJ6il+UwyEU8kJ3LrKqxXMBVfpiFXV2TnfVPgGbY/j2XIFVfkAgZXRhdBOeYd7AdelKDWtRVpiRsmQAQQgU+OQG+R/ruZ1JyzsZj+fi7u2REs+GBmU3OstIYqT4pOhz4yNFlS2a4ylgOjoa5n77kV4i0bpd0N10TS910cW2EF13JlS0OuJav416Vt9/mHJgpbYr10ZSUTNcFp7LJp+no2In1CmNXEq9nnN50VEi3xwgSIACJwchDoMdJPBwiBXYljsWio4e6/fp4gEm6UQgqEwhHII9I4k5PTRO1LAhWHaoWDgqan/dfbS8m7KKotxY+wkPZEwVSIACLQOQI9SPqdVxLf6CICV8ZXDWpsWguhu5gzZoUIIALHgACS/jGAfKqKuJVeLstT4pZHp6p6WBlE4LQjgKR/2lsY64cIIAKIgIBAr5A+IZLf7/f4Wwr1wFNEABFABBCBNhDoHdJvozKYBBFABBABRKA5Akj6zfHBp4gAIoAInCoEkPRPVXNiZRABRAARaI4Akn5zfPApIoAIIAKnCgEk/VPVnFgZRAARQASaI4Ck3xwffIoIIAKIwKlCAEn/VDUnVgYRQAQQgeYI9DDp94/MVRRlkcUcb15JfNocAX8oEo1GQnX20gmE4YlnKx/Y/Chae5sQEoCMzCMSCYc8L3qk8IeiiVQ6k8mkk/GIsE9SfXGYKOGgGC0B8uuWMB7Z8BIROLUI9DDpD4ytGpR2uisya8mbzwuynH9yDOFBvs+syvJsvMNtPI/5c7v1ZhuCjmW/9ZR7bvitxoINiEBB3AK2j2nVu+Uy+fLZurgRKJwbWjn/PFzTnVyKvpZh92fh0N/xXbJ950eXYNPsP/OAaJZIwVflKmWhhq078LcrwogZ4jkicOoROIuk7/tsZEGjVfXnyJE3r/RY3qfUE9r3yEvttAAW2Ks25iK5Nc06A/feajx2ja4b1NhIuTszTvp6aTaVTCZTqXQ2X2LMvld6IXYb/UNvKrDdvypnH0XDwWAoci/5plipzEX7gMc7If3DC9MpVpgeEeh1BJD0j7QFe4P0fRL0ghB0xTUkD0K0L/oha0VrYUhJD4t7lL7LZtcNaqynvhDh46S/k7tr34Sg8LDN/8c5K7wMCyK2T6m+6tXL+f1MddMJ6R9eGFtSPEEEzgoCvUT6l8LjObmiapqmlovZezdgj1+XeudqJJHJFUsVRdV0XVOVUnEm+Z3AY/4HM6syHGUWWEotswv4L/fIGYpKoXupbF4us2w0TanI+YlY0AyJ1eZ3cT05x/OuaJRSXSnZJc1a29APPs/LcnEy4lZS+6ThySKonkKspC/i07JczESv3cssl1nNK/J8MnzJK4YUvJd5W2LYaGpFzj2PCNX2Jq5zzeM+ukIQ9118tmFACGJxPuSTRpZ0Wq389M1XEGZyX34qllNL+oTwbo+up67wYs8NTUOgYOWncB0x4Fb7pH94YRqIgLcRgdOMQM+Qfn/4NegEqFaRC4ViSTUMVVGpi/T9LIyfrpTlYiGfL8gViKFlbM/ctYgJSL8EB3+iVtgF/Cfo97muw9AqpWKhkC8USwoMVbW1VCe8fz35lufNXtbVslWSbJM+j22rL8b7xe+L6yt2cv/Eb379eotSqiqqoasgj8w7EVP9zdP4/MNTLJyYrqwVABso01DmY1a1xfwbnV9hBhK7XELIwCgLQZz/QeyVBpiWfwcCzQ9OVaruiMSmTl8c6RPifwoKLmM1eZkXfYPVaFeYDXhEap/0Dy+Mp2i8RATOAgK9QvrBidI+pdqiFR+xP/y6zAyBgiFXCscToheITxqahXDkXpV6c52+LxhNxL8RCfOLcU5/90X6a+/jaKbeOXdzWqF0zzVY5hTpaFQ46VPjXSZsxnb/YozFrZWfWup06X5+l1Jjy+nbyPXxVY3Sndzd9gU2x/WVH/kMgxByF7L19kksCLsZqfHO9I4nQe1Iv3+QNZOxkTa7TDPS5GbapRcSwTRJn77Pp1POkc6sQDjij+JnskwAACAASURBVNOOmogcWhixWDxHBM4KAr1B+n2fgzKhWvnJpiRCuEbCpd6pbbRvwS/FpbUABUKHhlzf+bEVA+ycjgqotqT6d5qRPtNuV0VzaN/noFERA5Fz0t8rPBTom4WoNcwg5tx9BZQwQgofGZpVqlXt12h9qereDYB7jGObvTmreAfykK1Kqb4SZ2XxgfZuwekLOekbbMIBcw5zrvVhMWkHiDe1PavJgbpCOOodwa9HOHVIvxvCNBIB7yMCpxmB3iD9gRHwHdwT+IUQ8uXLTbd6B7y2r0WfZXMFuVQqs6PClPfLCZcKpTXp+8OJ9HShaGejgOdiYzV04w+kOemDPgTMEhmTE79+vUnd1lFO+u5xMe/tPnJfl3MMmf3yVNx1JObBBmt2DI3Fcz1hihdjOQF6mL6vXteq7PtuvlEEPb7v/OiKTqvab3YULU76AkdTqr+fjokWiLZJ33iXjVku//A3Ma+4RvrdEMZVfbxABM4IAj1C+mPLBugrTE03b5uB8VU36Qce5rdB5aOrlZIsF+GQmX57tRPSvxB+uQFafENTyiWeSxEMv1Xl50a2x8bfSgvS910cA940u5M6WnJO+p5xMVNrmIqXAYaMi2edC69eq7Gc8ITT6G4eRu5Xxus453ybBQPDTv5JzDx41+J45rjVO9K16Os1cAp6n7V0U4QQpoxqNj9rU6ffFWGaA4JPEYFTiUCPkP7ook7pbv4HsQ2usKVAtk6/f3gOZgOlH8OCooOPXjsh/cALMB58fGsZD7jCgVFz90mfEOl+YZerqrmKX9SWEEI46duuL7z6jDdNxfoAQ2Yn/zAYqD24D6SIWbNzHxmaV/nyBe4K+T7jsl1zD06nS7HPmF0XcnaTPty5bE5EHM0Yn595qimK1R7pd0cYsVw8RwTOCAK9QfrmXL70QrSvMkOiM2a0tBOiJoeTl+ElfTLcaHEWZ5yqIhoPSN/gmwqodw5E+sV9Sj3s6fq0uLPQbv7+/dyO258dknHSt1mVvRlgTkrvMyHwIu0bfF0RVC6urDu+kJjx9n0mFAV8PCB8/hIs5+pSStAjPUi+VQTFVy3pExJknajZRTGBGZiCUsgjZjukDzaebgjjKRovEYGzgEBvkD4fhApmRuKThufBY9Mh/a9BxW+sC24hfaGXG6Du8ZI+IcwWqq+41yJBc4Prt+bSUxPiv5/foQckfe4Do72Nmr439T6pwSkwmaqqo+dxUnHSr6q/2nrzvq+gUsJy4sHJyj41PkxHvEX4A2IX6eTZ5IzNG4xSLq9Q6u5pTPOD2x2TmEhSsweqR/qE22ME63TgeWkP3I2yd4QpGSH+UCgA3Vg7pM9tId0QxgSjb+hNRdM0zeUL2wQofIQI9C4CvUH6hJDrz9bB/byylI5Ho7HkbGnXMIDRbfUOjHkNSvV3udS9aCT6IDVd0gxNg5c8I31CuI881coL2UwajsRtiyD9D0HfYqjFyUQ0EoklJgvbuq5pB9TpkytM/WKoGzmzpAei9ol/N1+/3GTep3TLsuja3xMnfcMwdktTyVg0Gk8vKVDJ1ZTtD0P6h6ZZxZVi9kkcbJ7xZHq6WN7dk5+6WNXOtPEJtzFQAFbjhmIrLfcl1RZj4kQKHt6BCYppi65L+tYSXGew7wuOr8CaNUORZ9PJRCKRyuRWFV1texuGbgrDK3iO6QYp/TDtWn5s1R7/IgKnCIGeIX1C/N9n14Er2GEoS08y3hW5N5KLQInmoW/lH99l/jA1pE+IdPN5vqToZmpRdQNrnUq7djaGupaJJmAZ6kHUOwTEziyWVask+i5tOdjbXxH31KTGRu0jRvqGnH2+5GxPpq1n7eVmZh6XIi+X2Posq+5UV8uLqe/sIto+8T8Fkwal2lJM6DHMzkBfcW+CBrnaA/lAPZ0+L5evOBMG++RCcHRW3rFBBrN5ZSnJTAgtR/pdF4YQwtemUW3JWi/dNmCYEBHoNQR6iPQZtLDtbqxms18BdSkQjsZisWhY2KtXeNzuqT8UgVy8uwq3+3pH6Tzeh+K7nPRZp+UPsprX2wDZfIPtMgxVD3Wu2BELPbZzibUmSNx8D+YjF8ha4ObeWu7Ii8UCEIFPgUCvkf6nwOiIy+QKJc2zHwMvVCD9I5biTGfPVqJpSx1tXHGmAcPK9zICSPqfrPV8geFkOjNV2NIp3a/U34DsU5H+zX/+tz+of/+D+vfRf/8vD0Cn75HPP5orlYRlw54a4yUicKoQQNLvrDmlQDDU6mhTscS14SzOyHzC5RHviHRspC+SO6f10T/+1TwReP80PXJQxjNE4CwhgKTfWWtfi7/JF5ofM0nmQd9GvpLf75cEe2mdVySWps6DLt+yB/U2rfMCRN4/ZY+6jCBmhwj0CAJI+j3SUEcsJif0J//xN2D/P/5VLO20PhLriOeIwNlBAEn/7LR1i5r+4zd3hp5ODd79l9p0p/VRbU3xDiJw6hFA0j/1TYwVRAQQAUTAQQBJ38ECzxABRAAROPUIIOmf+ibGCiICiAAi4CCApO9ggWeIACKACJx6BJD0T30TYwURAUQAEXAQOFukf+P1pu4ca6mavc8cYI7+LBCK8HiAkUg4HGwa8EQKRhOpdCaTTsbFyO8goxQIR6LRcNDl7u+5yZJYsQcjkXCozvIxtnFPJNQMEdgpp+4Rvuoq/eihwxIQAUTgwAicLdK/FBnPwJFdgYCrdTa8PDCOnb/oZ7FQ7G0xIcpjKf88Ym3xbGd4eXi6DOEbrcPQVtO3bZLt+4qFjHfvAOq5ySINWK+bf3WlOBkVGJ7HcqmWXwn3bBH4CY9I48kHLq1wj570eIkIIAInEYGzRfpWC0hPV08I6eulmeepVDqTzcuVPWBQdSkh8K4vML4GEQHUYvpeOBi6HX+zAbtLa2+taOMefucV9NzkpL9bmkolk8lkKpXO5kuwU7O44U/bpG9s5SdYCALhPycagQUw/kUEEIGTigCS/qdqGT7S195G+ywJ/Pdz25TSveJje7h/6w3c2Z5xgkxdGV3UKN0vmUNyD7/zrDw3Oem7I2ENTlaqEJ3RKr190l+Oe+OoWPLjX0QAEegBBHqD9L+IT8tyMWsNby1cpduZZVl2diu7GklkcsVSRVE1XddUpVScSX5nE6j1FijCm4z0L8feFIvFjBDg0EeGMoViMXvPlZUUvJd5W6qoEGVPrci5OpoZocTa01rSJ1bgKjuaiknN0xGII8gPK8bIWpJJ4+F3nsZzsx7pSw8heK+xnDAZHEnfAhj/IgKnHIHeIH0emnxffirSLqe/qvprxGwjTqO6UpaLhXy+IFc0g1Jje8YbZ6o56fOYf+vJy3bL+86PrVFaLb8KWrcguhaLVKUra4VCoVhSQAejzHeyIXsd0ifEz8KIm1zsOz+6AjVYS9oqfBAgaA7SWU/g4XcuoOdmPdJnO8gL0QGR9K22xb+IwClHoDdIn8VZrQL9CazPoniL8bulcDwhOrf4pKHZSpUa79LejYubjfTbIH0r0JLQnVwfX9Uo3cnddfFzs4+nLunzQOp0i4Vw6vucGWm138TIhVaPZXYMHn7nBXpumjp9eQpU+slkKp1dKGuUGjuFx7b5oH3S38pPpNxHInK1WUXxGSKACJwkBHqF9AljLmM1+YWFHncm+ZBtGsn6W9CJ6zXhvA9F+r6L42sGhRmGQPA+MjSrVKvar1FLvlZ/65P+nWmIM8717xDqndKaPKXHoJmhq2wu4uF3XqjnJid9t9uNsVOcED2F2iZ9dzbsaif3T60qi88RAUTgpCDQM6QPRGbQ/dILPjjl6u9q5aeQC0npWvRZNleQS6UyOyrgpeJorq20hyL9cyNvwZRanoq7jsQ8mEY3UsJcxCqu7t8GpJ+rJf3f3B2J9FjmpD9ACPHwOy/Jc9Mc6Reem0728cREbl01qKEsxK2hftukb6xn73mc9SPuRQJ1a4s3EQFE4IQg0DOkT0gA9N3GBl9RdWVsVaemGsSCMvAwv21QcHivlGS5CIfMlO0ssLiVCv4eivQHxpahlPpHrSpJLFc8r0v60v0COG5uZa4DoTP1DtX/5Fbv8BcN7kXj4XdegHXTDMHISd/tvQMzJwP0UeYgvX3SR+8dsRXxHBHoOQR6iPTJF+OrBjXW018Q4n8Ko913GUFZ3z88p1G6V/oxLGhdbrzeotQ4NOmPi4Zc05aQfxgM1B5NF9a6vo66pB98Va6CPoq5RZqOOt7Zw+AUTCk+cJceU+/vXZz1uszWTPFpUF3S77v5RqG0WvmRW6eR9F2NgxeIwOlFoJdInyvT98uvrgVAq74vuNMQQji/2z6IrMm43r8O6TO1+Huxz7Cb+Mr4OqV0PWUbD0jfV0y3bhXHVe0eVyL79bZP6pA+jNANSvW1hKkj4n2A9lb0H704tgZpVhKsb/OdtwwMQsGmMcBaXluX9M/dnOakzzsGJH0BPzxFBE4zAr1E+oT4Hxf3KH03k12HIb/Ay4SYll42DzAbrC/0cgMUMbWkT+7MgIF3OeH4ZdqNzOOV7xbu2xOGG6+3DJfL5uBkZZ8aH6YjF+y3+Ik/0K5Gn3lnVmFtrbU8yucfmiyBbkd0AbrxGpQwu4WHdr7Xn60bwgIuMCCrlNL3GSEw7xfjoPvazd/nUtUjff/9PBgP7Gp2l/R90sgCW8Cw6m4jD1x4iQggAsePQG+RPhkYXTb3obGU+zZkMLyFIfC7XOpeNBJ9kJouaYamgQN9jXqH9IV54vfF3Ew2m82m71kWTeLzj65AGR/l7JN4LP48u6qyXEQ//f6haVaWUsw+iYNZM55MTxfLu3vyU7ursAVrcGKq5hW5kAdPf7aogNLd0itRPeXzjywAp+uVwmQykXieXVbAMv1e9Fm6wbTzhro2k04mXGnMPomTvq6s5dlRKMplMHVQqm+krK6Ckz7V33NbCDOI8P8K+dR3rArm3jtaWXhoJpmwlkqYdTVXGFC6mQbjBB6IACJwchDoMdK31Ny0rnblRnIRONE89K3847uvN+uSPiHkWnxaVnSevKr+LNLW9bFF8Pphh6FtZGLPRJ0+b7xLkZdLbH2WmQ7sx+VFkx/baV9O+lYpuqaUCjPJ2/aI3s7iQmh8QSjI0DamYx6/eP/3mWVO46bM6lpWSMNJ35aTGoauVuT8REzwujFJ30nknO2Zk56GG65R+heua7JlNk3QsM2DdzJkp8ETRAAR+CQI9Bjpt8ZICoSjsVgsGq6zfXDrt50UsI9wLBoJ1bKwk4YQtiExlBbqQLEjZtDuORMnFg0HG8ojmUki9TZObreYLqW7MrYKOij5qT1/6lLGmA0igAgcFoFTR/qHBQTfPzwC0v3CLvMvwmH+4cHEHBCBLiOApN9lQDE7QoJPCqX13EMc5uPHgAicQASQ9E9go6BIiAAigAgcFQJI+keFLOaLCCACiMAJRABJ/wQ2CoqECCACiMBRIYCkf1TIYr6IACKACJxABJD0T2CjoEiIACKACBwVAkj6R4Us5osIIAKIwAlEAEn/BDYKioQIIAKIwFEhgKR/VMhivogAIoAInEAEkPRPYKOgSIgAIoAIHBUCSPpHhewJyjcQjjgRDiORcL3deWDnnjpHpM5mP9LVSDyZSmfSqUTc85ztRVSbTSRkr841ywlfFbcjlUDCSDjgI4Sd1uZg3xGyOkEIoyiIQO8ggKR/8La6HJ+WS3L2sBtJ3nxekOX8Ex7B6uDSNH7Tu8smbKCpK8XJqM3EhAyMrzr7agpnu/kfxIwvhMbELT8hofFhMXGNp7E29xfeN0/NIJdWoEpqh73kL34NAc74Psw8LlhtDvad9qMQi4LjOSKACJgIIOkf/FP48uUmpXQ1CQHKD3z4PhtZ0Khnb+cD51b3RU76u6WpVDKZTKZS6Wy+BFtH71fMILqEEF9oNJWGY7KwDUxeXmBX6WTU2cbZFxxb0aDDKOefxyKhYDAUTaQXytq2FWiXEH8kyd+b22AxCYpZfvkgZA7seXRiYPCt7Le2tALp+79L8Ffgf1OYiikMe2BnZb+NJ4gAItABAkj6HYDlSdpbpO8OjD44CYF2P85ZcbvsqvFokXbULfu+FbbM2Jq5I2pmCAmEHOWNmdxHhuYh9su7tDCZYM846eu6Tqvqr1ErI4H0hQKt+Ye1ob/rEV4gAojAwRDoKdKXgvcyb0sVFohPrci55xFnd3np+8yyLM8nvCwzCMqTwvOwAM+lyPhMsaxANqpSXsrGr1nkA4kux97IspyNXvomMS2zstTKSjZuajAIIX3hZwUZjhILXKJV2AX8V8zUcKhQrOfU/2Bmlb1ZhlG3oZbtbHKPXKoeqPUiq7WuqUqlXMxl7rkSeDKuueQjfTfpSw+L+5Qa7pDC8GYj0u/7/BnEntRXrPi9NcUIN1qR/sd8blWH+O9muEokfQE8PEUEjhaBniF9n394igWQ0pW1AsQXBMY1lPmYxftfQvBYwxOf79zQtErpXuGhTevXx5dhDGqo5WKhUJBZlEJ9PX3DhvnLZxAYXSmVNF0ty0VekBihsC/8sliCgwcd1BV2Af/J2Q5Jn73JRDDUip2NS78feFzcZTr4UiGfZ5EONcNYS9r1seVufFKP9G/OKlXY8j7s87zXiPQHxpZBI1R6YeHtec912ZL0Z6KxBQ1y4300kr4LPrxABI4SgV4hfel+fpdSY2vmrk0618dXNSGMuC8wvmbQavlHcRR8J7dDqbYY6+cY9oVelg1KtZVk0CQ7n39oFqKc25ZGwklfjB/7NQtCu+Nors0GOQb1Tt9XL8uU7pdfiZUKhMPiZcvPw9Tpy1Og0k8mU+nsQlmj1NgpPPbOixqP9G8wW6vHrtuo6JakPx25cGt6247njqTfCEm8jwh0HYHeIH3fRUbo6q8RYYQLviJKtar9GjVR8T+V920eAeMkGZ5XaVX7LWa9dWd6h1JjPfWFiOOV8VVDuMlJfzd3107DI75WS0/t/oY/OgbSP3dzWqF0X37sKdqWrZ0TTvq2+ws7MXaKE4JyzMmm0UifQUe3Z35vJfWHY3HriHg6jzZI3wf9mUG50glJ30IV/yICR45Ab5D+uZG3Ggx4pyyW4X8T82CNdHz4rowt65RuZUxdzcAwvLWTu2txfuBVGayXhZQrmwdpc8bAweakL3YMvvNjPDC6h9qOgfR90sgSOMxolcJUKh6t52Df+hMxR/qF56azezwxkVtXDWooC3FPlRqP9D2k7yPDCyAYP/7iUTe1Q/qEBKCT1pZiEkHSb92KmAIR6BICvUH6XKFsUYzn77u0ras5P7qi02rlpxCgwzVCH+cittr65hQosusftouISfpJ08YIMwaL9D1KlWMgfULIpcjLFWYx5nLr6kYu+Y3VjbX1FdTT6ZNGOqtGI33Oy4JXjz8UjcfjaebEeTDSJwOjixrVV5NfIOm31ZCYCBHoBgI9QvqjizqlO/mHwUDt4RcYUHpY2KP0Qzbs42Nkt/8791PcSIdqMwkErGxOGunzVvaHIvFkeqa4Be7v4GrZQczxuqTfd/ONQmm14jKBNPHeGWBNUC2/cs8NuEH4gKTPJwT75Vd3ncVZro+aLxmz+2PXM7xABBCBAyHQG6TfN/i6Aqptr1a9tsoDTBG0nb11hZHUdvaWkIZ3CR+nnbG/8NA6PW7SZ3oSd+dkiVLv7/WX6wY1VeH1nte5V5f0ubWgWvmRzYqctxqN9H0Xx9bAX2ot6WL9Q5E+IYTZhz8UCvaKXEcSgn76LjDwAhHoDgK9QfqEDE6Cj82H6Yh3hOsPuGycPgl0zVVlfqq4R+n7bMjW7QBeTJ9Ad4tPXcQFqiB7oG9676y3od7hSid3v3KAVmFKp0b+75IkzGMgc263EAyqrUusR/r++/kdSulu4b43/3HwWBXUOHb+0l1whaI7+fsC4oclfe7+bxiGtQ2DXRyctDHS9z8p7mqatit45bqywAtEABFwI9ArpE/6h6YrsDhIKWafxMEiGU+mp4vl3T35qYe2ODdRprvwDGMJCT5hbu9aaT6diEWj0Vgilc2vK7pie6y3P9I31ysZH+SZDNshIBWzrAtukJtfmWSqlReyPJvEbZtVzw3PKWq5MDORiEUjkeiD1PQGmE9Bf9U8U/EpJ31dWcuzgzn7My2RvpGyOsULkZeFIjsqUIChbrCLQi75jZ2Vzz88q7CFZKX5TDIRTyS5QZgaawmzDYKPZng2JUhI9YrMs5m0llPwFbniZMv/ELpnODxrLNoj/cCLEthpqjWfgS02niACiICIQM+QPjdpLrH1WZwjgFTU8mLqO7E+hJBzQ3Ow/IrSzcx1zyO4lIIPZsB3xTkMrSJP2X4s7ZM+IeRa/I1c0XQzN2M1YS4IqFNuk1vSzef5kmLlUlV+ttcP94WerdgPmMSG9m7O2uCsSZbiI076Qn0NXa3I+YlY0Oku29xwzecfmihwu4KZn66sZKz9edrecE0kfdI/bLVX2ttebYz0uXHesF22xIrjOSKACNQi0Eukz6Vnu/fGYtFwyK3Yqa1bsztSIBSJxmLRSDhoWXCbJf+0zyR/MAzSxqJhgac/oUz+YDgK6IXrbLx8rGLxxWtUW4rbk6NjLR8LQwR6D4HeI/3ewxglPjIE+MK6TWtlxpGVgxkjAqcHAST909OWZ7Amt9LLZXnK3q3zDCKAVUYEOkUASb9TxFqn9wdDrY6Ao01vnR+mQAQQAUSgawgg6XcNSisj/73M20LzI/88YqXGv4gAIoAIHCcCSPrHiTaWhQggAojAJ0YASf8TNwAWjwggAojAcSKApH+caGNZiAAigAh8YgSQ9D9xA2DxiAAigAgcJwJI+seJNpaFCCACiMAnRgBJ/xM3ABaPCCACiMBxIoCkf5xoY1mIACKACHxiBHqY9PtH5iqKsph0BbztIpy+wFhBUbZyD0/CQqqOhOkUGX8oEo1GQnW2rwmE4Ylnhx22+1HtbUIIbGhkHZFIOOR50dM4/lA0kUpnMpl0Mh4RlqvVF4eJUrv3ULeE8ciGl4jAqUWgh0l/YGzVqLcfb7fayoyHfjL27O1ImE6RufVmm1K6lf3WA905FmS4Wn4lxonkQephN2P3fULMUATOdp6wR7NWzj8P13Qnl6KvZddOp5Tq7zJsv2jf+dEliNbyZ2u7Zi5UkMc39gTA6YownlrjJSJwuhFA0m/cvtLNeDqdijkbyjdOevRPOhGmU9Lnm1HXhEIkt6ZZZ+DezoxHcdF1gxobKXcwGr4rtV6aTSWTyVQqnc2XGLPvlV6I3Ub/0BsIjWCocvZRNBwMhiL3km+KlcpctI9FJO6A9A8vzNG3HJaACJwsBJD0T1Z7dEWaTknfJ40saBAKMeEakgcnK9WagC0Si3nyLptdN6ixnnLp1jjp7+Tu2rXwBcYhyCIVw9OzIGgsHrqdjJ34+R7XnYz0Dy+MWwS8QgTOAAK9RPqXwuM5uaJqmqaWi9l7N8brqHd8geGJ3GpZ0SBVpZRPfy8MRm9OFGQ5/9wTTssXHMvJcjHzvaW7Dz7KyfZRzHzf6DO4EBxhZTGJlLKcn4iHXNEcmwrTKFfP/baEaQcZT77uSx49WF+MOUFg+i4+2zBoVf1V3CYIws3rtFr56ZuvXpZrohbXkj4h0mN5n1K6nrrCSzw3NK1SWlV+sgPFuCUh7ZP+4YXxFI2XiMBZQKBnSL8//Bp0AlSryIVCsaQahqpAgCwxxt6F8EsWTVBXSsVCoSArMMjcLT62eJ9H5vtgR0bkDfz16y3qGrQGH+VLcJTh/UZx+C5H35Qhe0Mty7C7mlxWDbonRGptJUybX1drYdpBpmVhV5iBZCf3T3bKgdFlHYLl/mD1hfBkgGn5d2buEDI4ValSd2jfeqTvfwqkb6xaMYdZJHS6K8wG7BL5Sfukf3hhPEXjJSJwFhDoFdIPTpT2KdUW41d5q/SHX5dZkEKb9CFWn1Klxoe3VhpCePhvfTF+mb81MLqoU8o4y27cQVBiGGtJl2YDnjaxnZr6EPpRKIv4/EPJuBm7sR1hbAnaOWksTGtk2sqfj+srP9rToLv5XUr1xbgz9ieEsPjD2ls2IbgzveNJUEv6/YOsmYyNtBk9WLpfgIi4m2mXXkiU0CR9+j6fTjlHOrOiVil1xVk8tDBisXiOCJwVBHqD9E3Kq/xkUxIhXCPhjPQHRhY16hprA3EzLcRe0XS7BIWA5lJZ9A2+qVC6V3xcw/nNSJ8FbKK7hfviKFj8ZNoRRkzf8rwR6beDTMvMWYIAuMc4ttmb0IO6B/JmCFx9Jc6qzQfaIgic9A1ljW8sXZQrGhhsPywm7eC3prZnNTnQSCqL9F1OQNaFQ/rdEKaRCHgfETjNCPQG6Q+MvGWE7iLZL19uiuod0+8w9yjuOt6AYtrpLSQ2gP3IHUUIIewtfTlhTgXEpm7EszDgndul1FhuHAa9PWHE0lqcNxKmHWRaZG09ZooXg0PR99XrWpV93803iqDH950fXdFpVfvNDlzFSd8iaPZXfz8du2SVAGHpuYq/Nekb77Ixy+Uf/ibmFddIvxvCCHLhKSJwZhDoEdIfWzYoFTXOoF8eXxVJn7G5i3Dsi6rys22NPDc8p0JWd9lo9eYUjGf/xIeunkZvxLMwySiCrsnuOTwvQq8AupH6hyhM7YuN7jQSZqANZBrl6bnPaXQ3Dz3rlfE6zjnfZrcopTv5JzHzSMyDe4/jmeNW70jXoq/XwCnofTbs2LfvM2RspZxHhvZdNrsiTG3peAcROPUI9AjpM138bv4HsT2uPFsXSf9ODlTMy8nrgdqDOwOyl31kaF41x6fnbk4rtKGWphHPEsIV0y5fF1EwQkibwnjeanLZSBhupWiOTJNsxUcmMurPEejV9ih9nzEV8TwV9+Cs05PZNhI36cNbl9kUbV9YxsXnZ6JSSJShbdLvjjCeovESETgLCPQG6Ztz+dILUfPODImOTv/Ks3WD0q2MrT5u2HxszRFYI1kOplmyNnUjniWEMIcful2zhNXOcgdXZAAAIABJREFUpH1h7FeanzQSph1kmucsPOW6r/eZUHRBA69KwYLCLBwGpepSStCePUi+VQT/y1rSJyT4glngue0XrCzMiCIqhQQB4LQd7x1AoxvCeIrGS0TgLCDQG6TPB6GCmZH4pOF58Nh0SB/WAYFf+UJM7BmgDf0BYaQPvMN007uFqQUVjLq2StrT3o14ltmHmVOKtpKwvEH5u/6AWXb7wngKbXTZSJh2kGmUZ+19Nm8wSrm84vVxgi0WmIbNWXjFXmf6Mfo+E/LZ2zCIi7NAC+cd7Aeel/YoNbayd1xmcH8oFIBM2iH97gljYtA39KYCSzvMrSBqkcE7iMCpQaA3SJ8Qcv3ZOuzIUllKx6PRWHK2tGsY4LMpaodvvGRp1LWZVBysgPFEOrtYUnUxDWs55mPOFBUeOwEh5GokkWTH8/QiLCOqLMCmAnDEhT1kpDvZLbaVAJQVjUZj8dRUYWtH8NNvW5hm31I7wrSDTLMyhGe+i2MrgLJRY7Hg7vaauHqLv8cUWXSTTbDqjfQJIXwJrjOj8gXHVzRY4qDIs+lkIpFIZXKriq62vQ1DN4XhtTg3PAcSUe8aDgEbPEUETgkCPUP6hPi/z66zXyb8Og1l6UmmdkWu9F3ybRn8BO3DUMvFTFR0IIGW40uEPH7fvEkb22A/ZNl41mp5/+30YgXWZ1mH/n4xKW7U064wVoZ1/rYnTDvI1Mm83i3/U9DGUKotxYRxuNkZ6CvuTdAgA3sgH7A2XPOM9AkhfIccUbN/ITg6K+8I7WRolaUkMyG0HOl3XRgmIXxLVFuKe6eJ9UDCe4hALyPQQ6TPYIZtd2M1m/16WkCCLX5jsWgkFHQrdjzpunHJtvaNRSPhRtsIH5cwbSHTjRp3Lw+JyRyLRRuC172ymuYkMZ8iY8u9tVzTV/AhItCrCPQa6fcqzij3SUaArUTTlmqsQSdZZpQNETggAkj6BwTudL9285//7Q/q3/+g/n303//LU9PT98jnH82VSsKyYU+N8RIROFUIIOl/kub0B0KtjkbqoqORVyR3Tuujf/yreSLw/ml6dDRAYq6IwElHAEn/E7SQjwyl83x/mob/5zPfH6dN0R7U27TOcRF5/5Q9+gQNj0UiAicAAST9E9AIJ0AETuhP/uNvwP5//Kso0Wl9JNYRzxGBs4MAkv7ZaesWNf3Hb+4MPZ0avPsvtelO66PamuIdRODUI4Ckf+qbGCuICCACiICDAJK+gwWeIQKIACJw6hFA0j/1TYwVRAQQAUTAQQBJ38ECzxABRAAROPUIIOmf+ibGCiICiAAi4CCApO9g0bUzth9PNHxV2LLMzNsfjESjkTDbQ9gpDragiUYjIfc+zRBcEJJbRyQSDgZqs3SykQKReDKVzmTSqUQs5Hj5w05ENdsVMRkj4ZoMmYTROsJLgbAjTCQSDtW86kiCZ4gAInBiEUDS737T+C6OrRkUoop7KZoFH6fOJsO8bB4Nhtbc95HhBXtbUXsrT2UtG7vqFVoKPcpviTt+UmrsFh4y4ve/KFUh82if+BaLJFMbc8aKSGWsJZxeA97rG4QAue5DV0uziZATClHMH88RAUTgZCKApH8U7RIww0W5edZ3EcK81ITkZXFIDN2g1BP10CL9D4U0bOefSmdmi9uM2T/ORUWqDTwuQkhevbKQikVCwWA4Gp/Ire/IL9jUoQPS5xGpDF2HwJPusO8m6WtrGQgvkEplZgoV1iNpS55IMkcBKOaJCCAC3UIASb9bSLry+frlJqV0e+b34t2BkUWd0v3iY3EMzcMH7hYmIXKv+qsdwB1iSJkj/Y2U84J0Z2abUrovRI68MrqoQczCnyPuiYXk5691QPosIpUhZ2cqlO4JAWHskX61IsZQHJwow+b7uCOx2Mp4jgiccAR6hvT7o2/kUu0hT8cvixBfijzLyWVF03RNVUqFbOIbkQl9wbGcLC+mb0OyUkXVNE0tF+rsciN9k3hT4Ak0pVycTYTFkbVYYP3zvsHXFUqr5R+DwnMWZMpYT7oEZuF29eX4ZbaluytyUz3SJzyYO0R5NHPmYaT01YQrW6HY9kmfZWVspALhKaVa1X4T46jwkb6b9AmPcu7pHoSi8RQRQAROHAK9RPpuyi9XWISszfQXNqiXR+YUiGGoVeRCoVBSQBWib2Zu2bzPmcuolCq6rpTkolxWIWCSvp4Sw6kHHua3nWyKLI3xPhvpiPe50mYj6QzSWYxG413aZa4NwGDZWEv6ycDosk7pdvaWXZ36pD80DUEc1Z/5nMCMM0U3Uq5s7TwgRHCbOn0ekapagY7qbm7HYwaoS/o8QPxe4b6NsFgwniMCiMAJRKBnSN+DXV/o5YZOqboUt8jOR4ZmIVT6hzkrOKIvMAaxWI13aRaHz9ZRUKotJ0xbaP/NaQUC4TpD8i/GVnVK90qvwhaTXWBl7Vd+DHmEaHrJxvX6cryfp+LqcrEgkOfzZxsGrZZfBQnhGv+qUEo90vc/zO9QSnfyP3Dp+r56Xaa0qv1mDfxrZeKkr5dzEynnSM+WwAywxWLb8nfEXodrosQAwrWk75OGZpUq0/43mmTUCoN3EAFE4BMj0JOk7/MPzyoGdY++zw3NqUzZbfUCgOy32S0Inm5Rm8lciqiYZkNy/U9xk+KDk+Uqpe8zrnC40v3CLqXv3TFyW7QcDx67m7vL010Zgyis4kAeQrOOw82t7LcsDfftcbooi/S1cpHvwFzkk5fd0lTUmkD03QSnGnvgX08mTvpuvxvrSiB96X5hz46HDqN+A+wEYStHDh3V38MkqlAoFEtspqVv5R6KgFvJ8S8igAicUAR6kfSDT8BZRVtNijoZcuXZOthOBfWIHbbbVjpz5tovPrQG8YSQ4KtylRpr3L3Sdx7IjmprmbjreF7YodSwh+3tNCZXvFSVnxhvckr9OB3xCe/6Hxf3xODsLFy7sW4prCzStxga/ho7xRchQfq2SV9fTd+zPP6j0WiM1cgZ6fsk5h7qdH7cAelDNmwKbJK+KAvV1jO3rd5HqBaeIgKIwAlGoOdIX7qV3TKosZ2766Ebrl/eTLt6gnNMA74vPzaVIczZ3O4DWLsw0qd/4aQPShgXr7kuVpMDnTSl/3Fxn1IYufvIEDjnaL9FBb72nR9d0Sk1NrIx87iXXtWEyYpF+pb3jj/8iBkbdouP7cG1KbD+J9Ho6hayLZ3+uWGYJ1Urs3FLmCfQzzmeOeYkyfLeuRQanS3v1ZhD3CXjFSKACJw8BHqM9L8YXVSZwl0c7XJUuSeJx33w3PAc0GixbdK/+GyDcV8kUOfwC5TdTlNeGV83qLGavMz9Mj0Gz4ERcLWsczC7bgOXTe4l6Szv8n02whZwOUqhGsHaIn1rgZhXHG5vsM0hoveOLzC+Bg79K+inX4M53kAETi4CvUT6tcZbEdeBUfCCd4/iQecDmvSZOzwlH66607hG+nxIXrN+Siyng3NuvN0rPLwOYniWO0l387uUGpszjwRFUmJKhuHzMvO/9I70WckDw2/BdMFsv+yG9BB0RIZniiNI2Q7pM8MGfZ9LirKkV9QqmMHZtMIz0uf533oDiwZseIVC8RQRQAROKAI9Q/p1jbciqOD9wgeejt4nyFYPaW+t9astSZ8Qwsa8xmb6hpg57IPjDzgZe541vBycrFSpujQvm36ZdkIfGZ5XQbfjcbW8MgaOm7xbqkv6hFiVipl+Qf1MM0M1z4hbCoaCbGbSmvT5RER0HGJymt3SegqcYuuSvjXYX8PBvt2yeIIInHAEeob0+UpUvTSfSbsOYdkUrFaFbQ4qC+l4NBpLTBbhcq8EDpH8aIf0ff7RBXD91Mv5yWQcbJ7xZCYnVzT3YiUryxZ/2VjYMAxYQ2sr4gkh3NjgWb0F3HoRnDipthST6q7IheL4ElxhsO+/O7MF6w20d/lMKpFIJNPZQkndM0tsTfrcHLJjzYfsKvHJ07781N+A9AmRmGeq135u54AniAAicNIQ6BnSZ8oQr8YZ3DEtXxeGbPDBzCZbs8VTGqo8aXs32sPVJuod3jy+wMiUzJZ22QXqSin3yO482m9F7kgquo3yd03FiNvXiFcBvIlgf7QLDUb6hBCujXE0+4T4b6cW+Wo1U2RDXc/ebW+kzxaIsRI99XJ2jvPXH+kDpF+9hF5KX/Fs0ObJCi8RAUTghCDQM6TfAV7+YDgai8EOxh0aXj1l2Pn0zC7CUjAcYVXvGYk9kOMlIoAIHDUCp5H0jxozzB8RQAQQgZ5FAEn/yJvu5j//2x/Uv/9B/fvov/+Xp7DT+shTTbxEBBCBk4MAkn7320Ikd07ro3/8q3ki8P5pfdR9QDFHRAAR6B4CSPrdw9LKyR7U27TOn4i8f/oeWbXHv4gAInCiEUDS737zcEJ/8h9/A/b/41/FAk7xI7GaeI4IIAInFgEk/SNpmn/85s7Q06nBu/9Sm/tpfVRbU7yDCCACJxCBhqR/8ewd/+//947/+6XpcfaAwRojAojA6UEASd9pS5v0L3x+odG/X375xXkBzxABRAAR6DUEkPSdFkPSd7DAM0QAETilCLQm/ROokzoikWzS/13/7xr9++WXX46odMwWEUAEEIFjQABJ3wEZSd/BAs8QAUTglCLQgvT9//hgtlxZz9450C42/lAkGo3wDX5r8JMC4Wg0EmJbT7KEQjA/8zQS5JsZByCfxkckfFUiRAqEI9God78dfxBECLW1KXI90u+L/Pt/Vv539n9eMsf+ONKvaUi8gQggAr2EQAvSv3jxIuxpbHgChbdVQ3OTSH3Fijnueuvc8FuN0j0WrnZgfNXezlI82c3/YO42LN6tOefhnFiAWe8evzw6eVV+2k6nVUv6n4X/tWLQ7X8P29oeJH1XK+IFIoAI9BoCrUm/73PY4X238LCt0bKr/gG2S7AZesn1hJCB8VWIacX2FvaFRlNsk/zJAkRiMsoLfMv8ZPQqvCWF4sIW+guVfUqpUph07iW+8xNyBKQ/EP/TLjXkf7n2D0j6nubDS0QAEehRBFqTPiH+x8U9amykg74OKyndL+xR+nEuUufFb7NblBqrCTP8E8/5yvg6pXQ3f79xQTxPWhujvOuk/1nof20adO9P8T7Brosj/cZNg08QAUSgBxBoh/QJj+G3lbneaYVYSCZjmTO7PxRLJBKxMJ8x3IcIsR+n3f3BiSL9a//nFqX6/zMm2cP83/X/Dkm/028A0yMCiMCJQqAt0gcND6XV8isx4F871RgYhYivm6y3GBhbhpB+xkYKWN//tFSlxkbSrTM6SaR/Jf2uSo3Ss4Cj20HSb6fRMQ0igAicZATaIn0fGYIo3g1Msk2q13fzjULpTu4uBBzP7VAIFqu9jfXxgH9V9deo++XDk/6uPJVOOcdEbtOg9ACG3H+4dL/4N1r9OPt7QbeDpO9uLrxCBBCB3kOgLdInhJtk32c6VOv7zo+tGXRffiyxHHQ5v6LTrey3PmlkSa8zdTg86de49sCNA5D+Z4P/WqG0+r+fX0HS772vGiVGBBCBhgi0SfrS09UqpR+mw3VMsg3zJsRHhmZVWq38GJJGl3S6mf7uRWl/X3566SLoi2oNtocn/Z3CU9Gh/15mVT8Q6ZOhPyqU7v/lkWjFxZF+k7bGR4gAItATCLRJ+kwF3znpM939flX77d7QtAJm2wvfZresS1PXL8J0eNLnPqB2ngf20+ekX/1LEknfBhNPEAFE4BQg0CbpBycrVUrre9w3R+EuqPLXJjPrBjMJsDVZ77PpZZ3qi3GXvyYh5OSQ/mfB/7VJafVd+ktU7zRvYHyKCCACPYVAW6Tv+2xkQaNV7bdY53X78uUmpR/K5b195vzjuzguG0a5VKH0fTbkVRadHNL/h/4f8v9Nq/+98D+R9DtvdHwDEUAETiwCbZF+3+DrCqX78lO3g2VblTo3AtstUEq3Z37PXuCTBkqNPydq9kY4OaT/u/6B5F/2KX3/byF02WyroTERIoAI9AQCbZH+l8/WDWqsp744QJX6voIOgwrKHFD4UFpVfg5b2V2IvCwU2VGBDsJQN9hFIZf8xkpi/z2+FbmB/+M/DWr858sALs6y0ccTRAAR6HUE2iH94ER5n+oriQOM8wnxnQe/HViTZa3s4qu0xHlD8w3X3BAfH+n/Q+Cfi3+j+26vTVyR624OvEIEEIEeQ6A16fMFVtszB9tduZfgqNllsy/yf2+DhifsaHiQ9HupRVFWRAARqEGgJel/+bCwC8N8a5xek8PpuVFD+r/7h2sw2N/9070By5yLpH962htrggicSQRakf4/fp/O5bPxa2cBnFrS/13/774a+7/e/pr6PQZROQtfANYRETgDCLQi/YsXzwAIZhXrkr5oxcUVuWfnY8CaIgKnFYHWpH9KI8LXqZZN+hc+v9Do3y+//FLnTbyFCCACiECPIICk7zQUkr6DBZ4hAojAKUUASd9pWJv0f2l6OC/gGSKACCACvYZAQ9L/13/91zt37pxWrRbWCxFABBCBs4kAkv7ZbHesNSKACJxRBJD0z2jDY7URAUTgbCKApH822x1rjQggAmcUAST9M9rwWG1EABE4mwj0COlLwXA0GgnV7AXhD0Wi0Wgk6N4LLhBmd0Puu6yBJf5MDKnIz608WI6RmlfN98IB13bQTKza8tv4lMw3a+Uw77glkILRRCqdyaST8YhbAkIIx8B6LxIO1aRoVOnwVVdtuNhSMBpPpjOZTDqViF6rk6CN2nUtiRSMRCMe0LuW+UEz8gXGCoqylXv4CcE5ATL4n8p7unXslX+0N82ti2v/yFxFURaTB9mpt26GJ+Am/PLcP9QTIFQbIvQG6Z8bmlOpN5C6LzC6pBqUasvJ62JNB0YWddcO/uLDQRYCjD12/7dXuC85e4J69voffC7vUmps5++L3Y7v4viaAblUy6+CYiFtnPP9pd0iiFfGshVW7PLwdJnXhz83tNX0bYFupIfFPfFNODfUUu5RyErU99XLsjcFXFeVn9w/VOm71KIilkWpofwcbaM6R5Tk3PCcRulWxtW+R1RW+9n2fQ54VuWnFsDtv9pOypvPC7Kcf9L8izpiGdqRU/ou8TqTyWSyixXDtVN63ZcHxlYNSjfTJ6sp64ra5k3f+dEV4+g+gzalOEiyXiV9n39kXgHGX0194/7tSXfzQNA6fIg/hbyYcNLXSjMTafeRisL+QtZG0CLpBx8XIADATuGxyPgQ3HFsWadU1w1x42hvgQ2ur0bH7fInsqsqpVTbmLFvpVOxIIQV8wXG12BjarWYvhcOhm7H32xAxAHtbeySlTEnfWMr9zyZTCZTqcxMocKIe7doCSzdTLCcvQUlbotzoRvP1uE9bWMmGQuHgsFw9FFmsawuxd34WuUex98zSPpmlDr150hzgKWb8XQ6FasNONH8te4/9UkjS3pr0vcFR1LpdDx8ofsSfKIckfSPFnjPSN/nH56t7FOqr6e/8zCSjwzPq7SqzE8W9ih9n/FGZOSk/yEb9kZq5BWoIf3Aw/y2Qelu8WnNyIuz7bts9uARZnihfCRerfc7v/VmmwUdc/a1vjK6qFG6X3pl9UAm6dszA0JI31cvN2AK4g1IyQPaiOFr7Gbr+/wZ613epT2I+f0ehO1XjuEESf8YQD5kEW2S/iFLOYGvI+kfbaOIpO+ThibLe5Tqm1mHCu3izw1Nq5Tu5u5eqT+d7Ij0/fdzjPHlF7aqxC7I/NYrP33DlCdiTBg7TZsnjUmfS/txOuJ0UVa3tJY0R+l1SJ8Q/4tSlVJjOeEKPd+E9L9+vUUp3c2DjuvkHI1JX/o+uyzLs/FQdKJQUjRNU5VSfiIizlxYNfoiL4uyPB2/eiE0OlUoK6qmqZVSfiJq9ZmESN8k3hTZE01TysXZZNieRZlI+ALDE/kSvKsppcJENOxV79xOLxaLU3EnT9IXfpYvFucS3u1pr0aezZiFqUqllM88Cpsy+x/MrMpwlEFnaahldgH/5R4JA47go5z9QC5mvq/bWExguQICs+pm7gVd7Tr4PA8apFBgGNDj9co/tySpm2XDm81J3+cfyTryytPxyzUZtSvMpci4A115KRvvzOD0RXxalotZZ4rMBZFuZ5ZleT7BJtaEkKuRRCZXLFUUVdN1+KqKM8nvaj4reBdJv6Ypu3rDIX3p5kRpj1Jja+Zu3ZZgQ2N9Md7f9/mzDYPul14Iv0RCSPuk77+b3TIo3Sv9GHb9YMyKDQxD7N+dmTuEDE5VqgeOLMYH5qAjrhnp86+KGmtJlwA8yPDHObMnqE/6T+V9So3Vdknf/6IEMydxutDVBjxgZk1I/+lqlVJNUQ1DLRcLhWJ5F6hS+TnqwooMjC4blFbyMzCP0dVKuVyuqDrox3h3KN1hrUx1RS4UCnJFg1w+TEcd3vf5h5ki0SpHMwxV0Vw6felxEcIpZyziIIQMsNDQVlxoXn3pVnqdhQPVKnIRSiurOqXrSc6DQPolOLgMaoVdwH8u/X7wUZ49KIPxpa5dwRcYW+FRRxkwJSiE7sov7J7DR4YXNEq1dyXF0JRSsSiXodp0t/i47m+qeeO1Iv3RGZkJzIxFtTr9NoW5Pr4MKlDeCGY76evpG81lE5/2Db6pDfTNh1BV9VdLmcZHS7pSlouFfN76ILbrsQ2Svghv988t0p+fAoMq3ZOfuqncLpHxr7HGIjsychTCNLJEnPRrdPqpe/wnYY2jN2aym0zBvRRv8DtglliTO+5M74hBgG1p2jxpNNI3jXXabzEXkUmM7+xRfB3S7/uK6WqoV4vVaKTvI0Oz8JPypm9Tfp4MMuFjSxhf1hzqhldx1Fbukt/vl1zV569xEECVHDGf+u/mtmE0kHERASd9w9C384/t0e6FUDTCCLpv8HUFDENLdoygyyNvwWVACOBsathy5iCD9QFVMIM7hty2SP/c0LQCJpOVZMjRa18IjyUiziWMHz8bWdDqjAA8aDU25EoQ9YgaW9lbJjBSiI2T9NWEOco2eZbS7dx9/nX7/CMLKsQ0taaPntKaXTYnffvNRobcdoTpC70sQzOtJK1u1ecfAgWv99dtl1b3hP32DXuKDGkGRsHpgw3d+CtSOJ4QHeR80tBspUqNd2mraDFr9nWKN3rjvJcMuY4HilGjemZoc1KzR/fs52qsmiMp3h6c9J2czDPDtNyapO8811frOZmZLKmvcCMnH/XvMv+fAzR7Q9IfhJjyVe1Xt/8Mpxhq1csk/c2ZR3E4EslMrgQKArpXcgZ3XKqGpM+IhtJ34li104r4yNCkXGl4lJdS9X42nZZipTd7vvXUFesO6fscLBnVyo+i9Z6TflX91TMD4G/dYEotdz8RYJMeW6V2c0qpesjly2frRsekL91n/gV1Pye7CocnffMD1v8kmt/PDYPzm62BNHnWzZhMPHv6KErU4rw7pN9UGDaoMtZTLnfPK+OrBvXebC7r1y83Yfrr/KL5b6fFWOdbsKvpi+bUsHkJvfG0x0h/p/D4+zQ4meyXXb9tDvaXLzcNwcOPf+t7rkkrJ/2PheT3Lhd5y9vWJn1DmY/H3sAwUF9L1kwreNxg51d0fnRFp1Xtt7rM0vJDaEX6v3lJH1Q3dDU5wHLmH67TTbEzfbtYT8H9FetFhGEsl80abbkUFC3F/qQJOOm7fq4+MjQPw9U/i3zHSX83/0M9aTl02tton/j01jTMGHif6js/tsb8Ea3pPyTkrd/hSJ/NQelGquZbEos+POnD3KXWufk8+BbbSgze3J7BBKu19jbmgsIjW93LrpB+U2ECr8pVSj8WUmxUY/33IL0K+tXc3bpS1b0JPzRB5eu7OAY/24rHx0+6Fn2WzRXkUqnMjgqzsXjMY3Xz75WbvUT6ll/54EQZFNab7ok8IXyMphXT92LsuBd/A04srlEPJ30XWYhNZZH+uzT8OE2F757sdd35Ngtmz538E15QLJaYr8B3aenZxSxbnzckfeYPTvU/udU7lpHWdOS3R/oP4OcQi0UjYc9aNVuCRiN9Qth4ln4QLcb2WyfyhJO+Z9JtEquoo+Ckv5X9tl4tzJ5j2u3KxW3aXPsMliEKswdbIe7YYDpR73CnMk+HVE+kw6p3uCPDvvxYVIlxXqbaEv+QTNJ3FNkgiEX6Lst/XQk9N7tD+s2E4R+nZ1hjXvLlNR6RGl8yirBmFVfGVnUYI4r6QNNbD8w/JVkuwiGDNcJrHmtcRA886SnSL5t+iqaOz3iXEX6u9lKpmq9DE6Zm7ZG+re2RhmaVKqX6akpcVMJNqTXluJSDHbR9I9K3eqCNlMuuwKnNJmiT9NuxwTYmfekxN/y6VGEdVAGGqNw8WAcVfqthR9tZMWZqztcel1yuillLCIRnkr7rh20XyGvt7ap5j86VCb6L40D67gUf5mi6BemDstg25Jr6QK9N3pbEOTmkTt+chZReiJ+MaXLUzCljr5E+/81upEOBOkeHHsVfcKVQ+gtC/MzZwaXS7GeLAT2+G0wHiKTvfKLHdGYZcm3ndHLjNWhy9ivO4m++VGpXnkxYE8B4PP5oBpLt5n+weKAz0ieE9HP7m75hq6TBhmZQqi6J080HybdKnTWubeHTiPQJCbKJrfY26tj6fBdB4QDOQpadjq3IdVbwNimyMekTrqd2q8Ka5FT30eDzPBsa1f9v1vaKq/tyhzc56bs0rUBtOigxRG1YU9Ind3I7tibHEkB6CCs8zJzNnsw1WTStf6J6h73yISsscbgyDnp/m/QtitHmhKa0SnT9tRi5xeKsRoZcPvTxeILZOh/TW4F1z7a2hxd/8JG+mVsLgZsbcpsKw1vEtrK44Or0guOzX351LQAqr333WnrO725Njjmo8jjCdVruiUrfkyN9huDNSVifZXsp8LYBZ00RX07QAhF0TPqESHzLBNsuyvmxRpnIJ6GesacoS8PzxqRv9m27hYf2wO06syIK7NyVkT7x+UeXwM/vw9z/397X/TaRbPv+Icwum2kSYUBjPjyM8GbqWNXdAAAgAElEQVQrHk4MR2mYE8PBoItBN4aLg3acuQdndF9uzJwTM2fijOKMFDO6MUdxtnacK8WRYq6EeYiR0uchfR7SL64/6GpV9Ud1+6vjOCZOVgnh/qiuWvWrzq+qV61ay27I7As2Ojxq2ZA+3uCkT0Vk9FE/b3OJ0570uWHlfsnyogH2jmDc+Z4ZgIGKjxG6smIZmPseF8CETCB9rhsRTQb8k0XwjSGQPrkyAcoE8y0ysPL5zK7VL7EXyRLAyGj/bUX6hASY8vOzMFGQdAOk9C1ehjGumHaKcLlr0tenJi3sW0ypD0H6MMoqbIOkc0FE8h9wog+uqp6B25KtTLM9lXyldx2+A/TkDfJ9jt3N9H3PC7uKouza30mj7C/2O7ikT4ZG2EKr9iEdOgeKRYWCSbvzT4izvDlN6IL0iUeCXb6wARiUPPyrUFQZ6Z3Hpo108+COYtqQvm5LR9VKfiYei02mV8D3BDTZ3K7VmfRhg0yeqyeZgwYVbLMLhUI+80j8K7rycJFvCyplZ+KxaCyezOS3FcNC6Yu9oc0r5qSvaZpazk5GZflRYh48FGkfRI0fs8kDO3273lYsUV8fqhZmYhFZjiaXACFtW9j35+WvmbqVTURlOTqZ3VQ1zW69Q4aYeQx4sEhEI9H4TP6joqj2mT7sEWGmk1QpLyShMjkaT+XKNcMKy5RKn2Qo5aV0innPELxlXA7HwNlGPD6ZXAbT0spSgp/Ho+bWKm51yoWR5cjzNCx4UuW9aZbaa9In15kDD626ls2k0+l0KmpuSfOForp8kzlYBqsVZnSBY7f5u+dOmMBzNtAqJR26SCyRzq1X1apjPcYEsc3B8EPwngLJUO6bmXUTXujr+3JYfpSYKymaonSt0/ezPZK2+YFZ1xc8GGDSJ0S6xXbW7Fd+HvsBtkrtG0p/EVA2haEf9WlON6RPCNH/kNSN5D8YM0FDYWTWpU8bm8lg5ml60Ib0CSHnghOMifh7SjVlYy5yWSinM+nz8vXnhR9jYdwq7LL8+r3N45r6sfij3SmblfmLHnHS38ok5rmjIWiW+mE+KiIDAraf6cNShG/sTXGH+c1j0GjKun0sJIRcj9pqySbmGhyu+R9kt3UqoVQtv30Uh8mpONMHaaTg89wm2wild4NaXUva7fRZtpHJXKkKowYkcdMA8yulP2v/EZVL0p/jixYslKrVdwnB6Y07nj1Q9/rvplbYpjIQSlhcbbkGC6ZurAa3wkiBR5l1ZopstFtTKkXbLmiXEhtLZZYNq/jgzfgyzKv0pG7nnt17zQw97fscxUdaH/PmO/eOtM7fpzuDQfp9AuMYVwNeXCMRuaVhTi9F9wVCcgTMgIIH/3jupRztytJJH4yswEt1JCI3epRu97zjnuTnTQ6ZG7gcGYjkD7IOaPBbbWUEP9CAWpssLLPkNzuzYeZglXboI/2VOc69eOA2GtCBhdrRYWe+DZ16sr38+mRLabnBs/3jR3cXSf/osMWSjw4BgfSPrhIsGRE4BAJ8+1iDZfkhSuzRo0j6PQISi+krAkj6fYUbK+sCgVvJlXLxTXcbNruozv0jSPrusXKb0xcIdkqH+250K8gJzoekf3Sd6/N3en2Drbb/HZ1QbUqW3Mh7dMqgNpId01tI+j3vGN/91GK+fcpNitv6ey7BqSiwlSu2U9H4I2ykh4wmc+1f33wudddpJXeEEnUo2hOcyHaSN92wwt+h0BN9G0n/RHcvNg4RQAQQATsCSPp2PPAMEUAEEIETjQCS/onuXmwcIoAIIAJ2BJD07XjgGSKACCACJxoBJP0T3b3YOEQAEUAE7Agg6dvxwDNEABFABE40Akj6J7p7sXGIACKACNgRGAjS9wXCMvg0sYsOZ+BfBHzE2O/4Q2G5yeXWDwiPgycXORyy1+W8yKq1xVvUT0KXD7IJROKCNhYUdmx+kQJyLJFMpZLxqBi1GcS2lREOhxo8vzDZWZNsooH/FwDJURNhWMuysyF69kZR+ZWwM7+A6BEfMgDa+MyB/hRSw8vCMYzEE6lUKpVMxCKhpjvn2nUBr8JRMn9pnfASQgDKBtiPGCQsHhGwEBgI0tdjiczbY5mCE3CIWWx60NRbNTwOQYsc3sz5Pd3BnhEYy4LBONIjHFEeLlG/2nCRO7Y0PPEJv41+K42Cm/5yl5/C88ah4KeQXBybA6fBZtKU1eRtk7+9N2ar5i39QK2V3saCetwVHj8PfB8WLEfzHml8Cfzt0rrye8QmmhEUTFszHMrDbe95iBrYJjUEGrUVeqQnLNCV6TrbWRUPvyNKvm6PDnZRni2Jfi8hq+YIltC+C86OzPEu2LFi9RD9TXOGugTOB3e79qgsTqHxHBE4SgQGgvQJi2jjJHcjsJQj3J3E3M9qKsSzdoQ8Nv4Ue0P62nZumvk7F/4TXJ+76DVO+kop4ywnIeseyT3+iTXw5l0rJO+HAsHb0dkN5hx90Qh1opO+spYCP+WJRCqTrzA6V95x/+k66WuaEBiEDI8vKxS8wjtIn8ec0VQII2KLHyQFo0IrlyB8Da3mZ6xrse8dX1sumt+bLO1J3+MfixtSLkFoZSqSvvfayw2A91M+9SgcDAQCITmayBS2d/JWjNmOXWCSvogwkn5vehdLOQIEBoP09cif9thmemQ45XfRpRGPQF2vLsxA0DtnHKuezvRdRShs22UdnPtbnzKZO+bU/hKLIrRfMsIFs5m+faLNA4PokUM46avFQllTV2IXmTwQDUqrvF9TnKTPgoJpxXSmAl7RrS8DeyukB4AtXY0P269/mbP2pC/K9CAHEa9E0mdfihoPhyvmlCQTb+NrsnUX6KSvqiq1ikLSF/HE42OFwGCQvoeMQuwqe2Cs4YegxnFwE+e43ey9S09WNUo3k2JA8x7P9N3EIm/b2R1Jn2ew6S6McUuPEcZn+nbSJ1enNlksC2BtDshe/sV0aZ8HWWQlaOVUfKHmIH0WFAzCCYXeVOvwEWBRn9iOE0P60rPCPqU2eMV2suPOXcBJv15aWKjW65WfguwxJP0GJPHCcUFgMEifEIlN02whcO/N7zItBJ+96oCyuRtk837zckOj+6VX4pKswZj/YUQVd3ZDg/oeMjRc7Bysyllu8/MOpA+RviE44lrcRr5c7a4rtZqS/nevITQdXxgwSP8BBNdlkVchXJy2lQzKDtL3nIegYPXKTwFCWFhgZbFhEYW14+SQPnuptDYez910gU76xRe3pjY1qvcLkn7zVx6vHgMEBoX0ITiySqmwwsZCkdnn/oTceFOpU30RkpGjPQxmb0l/OzedsKdY2Bmur20Xc9Jv0Okn7gfYY3rwa+eMm3sV1rjOvZH0PdLo22rdHA5N0j/3zcuSpq7Gvn1W2Nsv/xhggX9FnT6PHcrjSvLF8J3sPzaTv3vS9wanSjWlVapV3nbjfFRi/jabCeq41qjeGR5fhODHVK0WIfhqo92Omy4wSf/CeViA4VGwW5M+IW7ldYiPp4hAbxAYGNKHeaiwNuu9NlVuCIrrvfa6Qq3ZPdfYioGne0r6okmIftyCJVt1FSf9hnKMdWYI0wwGNr/xaKJGKVwpQXm79IVc9UORe5ctlFioUnU7+5h/4pikL4HdyL5WKpZUbTN5XV/8sKx3OJUr3ETKQPuXZgFyD0H6117my5WWqTjTDekbuHT8bSR9QqTvE8tiVGC1upZN3DYXpd10gUn6Ev8e1dbifkOR2MR6p6OYmAEROFoEBob0CfG9Ku1Tw5iShSKj2ymbyv4qfF9bF8+OzdfAVPGZ+TfcU9LX1tP3BQNwOAy3DLHatBd1fXE+ftdWjmHwbTCOHkLaKEJ6VgQrFL6OqpO+beBQ1lMWbQmkT65MwDoH1baSAY+D9D3SGBhxWqaEMEJQ+ikd8hj1mr/dk75ZxBc5aEb6TBApIMdTmXyxUuO2sdpOTh8y3XSBQPp8BUXbTF1vN9P/Io3HShEBA4EBIn1Yn9SotgomKGB/0kBJnKeUQvJ+hKX70dkNTSQyY/5lTKUNEKxfUN+DbsSNnf6RW+9w3QJ1zhZ9YOhN9dod6p0LwYdvy3uUqusJfTgUSd9zfuK9ou2VXgVgoWJM1OnzAbJeeRvl2EUiz/M7FEbQmxY6+tGJI32rhdLlyCzbFfFpjo12brpAJH1CYCCvV38JSQ/fgeHrHy0Ww60q8QgR6DMCg0T6fNq1l39wjhNW7RdRG8AtOG1TXv1EWY4McVg7zvQJYUsFzUl/I6EvCvdvIReIg24kzE8VaAZbt6Cf5sIwB3eQPiw7c9N+9b1opy/u9tKhsJP+nTmg+MZUt5vJsme7J31uettYC79SVxzfNFzSXv3PbQE6W5remoMdf5vJKwDm14y723aBnfT555SSi8aQ9HvVc1hObxEYJNLnjFyv/XY3BNtQd3M/iFhcerKiUrpbnIlFrfQ0AwqfXWOrpAvS57t/P6QCllqDT4phfVi3oukT6Ru7z5RFWd9eCzR0/skafL6858I0kr5o3U8sk80HNgsg50yfD3UfsnELumgs+b5WB12QaP8EiHdP+p7Ak0yhdcpNcntHsVt7d8zXQtSOhrbfMYNXw9hX3w3epgscpM/fMbWYh111ONPvXf9hSb1CYLBIn9zJ7lD6IZfdpFQ15+8MC07ENptOmAh/M1XWaL2mr4W6IH3OaNpqHCZ6PHlvvIZCqj8bq5p9I31y8zUbtPKPzbk+WF4KCxVNSd+Y7K/F/KadfjvS996YhRVjw8bcaLe+t7lh71L3pG+U3IdfXySRCJuoEeJh1kqO/XqX5ZjsXIbhW9uURePrsGMXOEifEIkZvGqwfNIV6XtHZytg4bSVarKg0gfosIoTjsCAkf7w2KJCKfw9GVNd3j8eafwd3NC3LAmdpi+WcmWI8bWulBumm/nMU24oOTQ6VwXr+E+F9GQsFosn50s1qG/d2ufFSZ82K2Va1DgJYjQ95LI1XSzV83t840tgVKhW8jPxWGwyvcJk+2CurzYlfUIkNjqC4wpRpy8KIer0uV3/TuaOmIEQ3Ux2v/hCIM9DzfQd5R/lKXdxUy1mZxKxWDSWeFvc0cDcS988xasGTY6mVArZdCIei0ZjiXS+DLt29ys/GQM86dgFDaQPOrcK11h1Rfpnx+aZJw19XeEoUcKyTyMCA0b6BmtTBxPxwWC/rDsnEHuSq2i5+bn5eKNauS6sEFyOzBaB6I2kVleSlj0MLCMXwA9Bs/Q3QwUkitDquDPpE0LOBSeWKpbHNU3ZmItYuwFakD7xXptii9jvYz/MgQlTvs1M3z8NTmlsSiQusaVKsrH+QMz0pdvJ5bLYiTByLsWCltaOEHI5Mlso6yY7Rm+q1cKMbNdote+CRtJnXtXAwqq7mT7fTE6Vd1Eb7K3eIryOCBwMgQEj/YM17lC5wWVvJBIBx80Odfihiu3yYXDmHInIoSauerss8VQ8JvkCDLhIW2fGkj8QYvC2xbdfXcAXnLVmdlOnos+wkUeNAJL+USOM5SMCB0JgBIyGlXcRnOYfCDbM7BoBJH3XUGFGRODoEfD4HmZLpeW4bdfh0VeLNZwiBJD0e9/ZvkCwU2oanKn3kmCJiAAigAg4EEDSdwBy+FPf/dQid4TT8v/c5EGMfA4vEpaACCACiICOAJI+vgqIACKACJwiBJD0T1FnY1MRAUQAEUDSx3cAEUAEEIFThACS/inqbGwqIoAIIAJI+vgOIAKIACJwihBA0j9FnY1NRQQQAUQASR/fAUQAEUAEThECA0H6/mDYFk/QcRIOXWbecaRAyHGHnYaDRuwTfj/siH+tlx423Nq0qs0sx3g9zgXkWCKZSqWSiXjUfJwQAl5a2qWQw50vz99QPnj/gWIc2fXSjaCK9trC4VDwWOz8AhRFTAzQ8NcFAtDFZv+6yI9ZEIEDIDAApO89/3LDcIHY9Lde+TkIUUFG34IX4sakR7ziToYpOKN/bLpQ80jjEBsW4o//HmG4XXq53lgEu2JGziJECj7NbVuuL/kD6kaChV4ZfrgiuOhsUthO9p7YRUbUKsuHO7/LPR5Tqoke7blPR3D/W3zGh7omLj+1Win7NGg2UqysT8fcs/Ef0S8pg/umjkzmi8Xcc+5b2/1jjpwXo3PFUjEtRLxxZHB56vn64XuN1osvBgM8l63CbMcGgQEgfSIFo0krLVXAaW01P2Ndin3PnFP5wnF+bX4D+PhzIc1PH3H600lf08AXv+HNanh8WaGapjlJXy0vWOXrR3o5RpQMqpTexiOhQCAQDEWephZLta0089zrCYwnrIfnNmBQ+VzUhYEbcdnyjawHaNRUHuFLfDE46Wuatl96Zfr6hREC5HWQvradnYzH4/FEIpXJc0/Mu4Vn5lNisX05HiTS9/wJBn7Rt3Z3EF1lIbd4wPruSuBPIekfBj18tiMCg0D6tkZ0dubuIaMLMOV3xvnjpK8WC2VNXYHo6hAP5HF+T6u8X1OcpO+YjIsicC/zEI3LOROTJOcV8/tjKynEXxRL4wE3dvMzEKa89pvonoGTfrlQVDX9I4N/zdSKhWoD6YtRAHVn+vQDH4TE6vp1jKTfPdJI+t1jh0+6QODUkf5e/sV0aX+v8Mynh73Wyqk4EK5dvdOG9Hl0b5df34bSqSXpM2ZXV6IXH+R2KbUFS+KkX0zE36saj9N9dnS+Rj9nYhCYya7e0UTSJ8T3qlSnVFuJ6RHhXbwJvc3SgfQvhCcyhXK1pihKrVp+l45+aw6XnsBErlhcSd42r3DJLkZmC8XiXJSP1uyaFLifWixVoBSlVilmJ8X4iITcmMyB0iboH5vOl1hd1VJuMmR85BHie5RZLUJi0Va0WpmdwH9ZPYyaG1C8oZd59mCpCh+YSsUspZCSvWIJF8ITWdZqFZpdKeUz8fAFMQM/RtJvxASv9BCBU0j6DyDMLNPwDD9cUbWtZFA+GOlfmyrDH7erwEadSJ9FrWJRHkEYCgEOzd7lpL8av/I4v7df/jFAyL3sTr36y+3Q646k/6K4T6m2eixJ//rECnyJabVyIZ/PFysKj0Z5kzfciuNoY30fa9GHlBH6yuMbe8PUWGp1LZ/PFxjjatUF0w29h4zBao2yVapqSrVUKBTLUBHdZeM9qwtIvwSJiaDVKuwE/juIft8bmiqwB8uM9NWqWUoxLZD+0OhsBcJwQqtzuXyhVKlptDFEJWFzEdTpm38FeNBzBE4j6Z/75mVJU1dj3z4rMDJlIbMdM321tJBM2FOUrxwQQgLTJVhX0JStfHoy2tbMoj3pe795uaHROiN0z/mJNc0Wndwg/eHhh8vm4PQx8w9DNzqQvvfayzWYdLaLviu+SVcmVthsGWbMDam2k7PWvcWnOhxLPl+zkGPeIISqp8r7uKHv8vhG31b2qaHCIoSwAL+KGPjeAOonY63VCC+VuWdO3K9PrCqU7mTv8cFCJ31KP2Yf8Dx6tFttI24+w9rQF50+F9i+Vi8FWr07LcDrADneRgTcIHAaSV8i/lelfa1ULIHa5Lo1tWSAtbLeqVesmNoe//jb0q5loqMp5fybqMMQk5XWnvQvTaxqlG6n/8Ly+n8s12EpwmBDk/RZaF+tUiwqTP/jbUb6m5mnUUixeCrLIrnTvdIrgyI7vAkXY4vlSsu0mbHZGnUoq9NtZqpks0cihDAcrIvcQmkvbw02V1+uaxQ6ixevD5C138LC1wBAXa3Xld9klkknfWEsIYQwHdrn+bAtUm5/SP8ZfHvZ1HedoML7iMCRIHA6SZ9cYWxLNWDYpqS/W5iOOEzt9d0AVjdcDkUT6VyhVGVqA0rVrWTonHWbHbUlfd8zCLD+ec7goJuvt8FAM3mFF2KSPl9wBrvS6i8hQpqRvsMwVP1YmLYruB1yfalTPrB9zifYCGX89yipT9INsUbeVOtUNS0+/fBpJdD32fFFhdL98hujAP4bW6jUKd1IsIk8J31zDOAl35r7CCHgIzZVe19In3z3epNpd9ayyVgEYx0bPY2//UfglJK+5/zEe0Xjc+GmpN9mIbdJJ/lCz/M7GqV7xRd2zUE76x1Yr1Mp1TbSET3dZ9xnGmgKpE+GxxdrmrrNNP7NSF/bzDwC5oNI7seZURibO0Yo43Qv/8CcuP8lvU2pbmTlvQYaIRMWQsjwkzY7IfRPJZ307QZRBunb1rf7Q/qEBJ5mN/X5AVMOVgoz8pczqm3yGuOl04HAKSV9sXN7QPqE6Hacyu9ct2CW32amz7YIGIQn/rJ1XUKISPpmgaT5TN9hvSNm73x8dWrdUlWJkrDj/QLfBda5HBc5bsywyXgy6G+ShDUAPrBxI6vvwP5dW41bdjuwyEHpTu5xoHUpx4/0GTySPyTHEukcV8Htu1bBucAWsyACrhBA0ie9IX1p/J3K7D7NySrDvzXpS/fARlMzdPG6guJNcc+c4faN9MEasnVaTt529Sq5ygQbI0SNVuuHArDCoa7FfEEYJ4T9dMKw5/yuEks7AOkzO58+b87ySGNLNUqNAV6UHI8RgSNFAEm/C9Ifiep7gK2uuTi+WKO6HY511XIOYS3P8rt8pBH11Pz6pSdguMnXMPtG+qLAR308/HBZAbvJF07FhuQXJvogxXdTmxrViulMBTxnwL4KId2YAYOfT3Nh5yKKz69ndE/6+qZo+7gi1OX2kCudRKNb8cmGnXtM06WtxeyzBPGRNsc3p9bBzqq64PiybPMI3kIEOAInifQDTzN5NmEtVUFboVaK7Cw/w223+Y5cUXHMIWg609dqG865bz6XCIHVh+frJ2sa1Wob+cx0Igb2MtOZ1RrUqCyLW4dY6a1m+lyYetm0QdRfSHA0BBaN7yJS/9Q7et19+gk8L+wCWKWFZAwWyyOg7VivqtU5Bq8pBTfTZBomdTlq08ITQoZG58DsXa0W0s+jsOQejSfnCuXdPcNlzUFIX7qX3QGRykvpFHOgEbttH2NModod6AJrn4oZXkoiYhhiEeKfLO1WiwupRDQSDofl2Ez+IywCdesqg615UKr+EelqzGjXDLx30hE4OaRv0GuDTpraHK65JP3GUpjVB6eekec5vqXIyqUpW9n4nxv/AA2pnDP9W7MfqX0rlvGmMbUGVRblcydypg/NlAKPMutsmDQA1JRK8U3UOfn3sw1Z+hBo4GP9XghPveNuhoxi1Fp5OfE9z3EQ0idEGpnMlargAAkSt5KyanJ99G10tlhRjGLEzXHSg8y2tYoLlajVwky3Flbc6t+2uO1aRsx42hEYONI/Ph0m+QLBkBwBe5nj4c34+EDjShIJvC/r1kaNo6WrIiATc6gdicihoKHYcf1o/zNK/mCINzroUGYdTJaRt9U6pZ/nG7RbBysGc59KBJD0T2W3Y6MHGQGwYWX2wc5Po0FuFMreNwSQ9PsGNVaECPQGgSF5tlQuJO1LIL0pGks5BQgg6Z+CTsYmdoeA5A92SoFDaWm6EwufQgQOhQCS/qHgw4dPMAKe4EQ23z7l0lExHs4JBgObdnIQQNI/OX2JLUEEEAFEoCMCSPodIcIMiAAigAicHASQ9E9OX2JLEAFEABHoiACSfkeIMAMigAggAicHAST9k9OX2BJEABFABDoigKTfESLMgAggAojAyUEASf/k9CW2BBFABBCBjggMCOkzByvhYMO2c18wLMtyOMB8IrJMjhiH7JTf9wXCshwO+Zv4eQEvMHKrINUdMTx8BmiGy+o9/if5anU7a8WPPXz1YglHXb5YV8fjAwkzND5fqVaX43qwSbFw6F/9JREv4zEicBoRGAzSPzs6z73Vi6zv8T98B64alZU4xMvWPdRzN4n2/3dzP0CMvTFweb9f+Tlk72jvtSnmzfh9rAt3uvaiujuDuIkarRs+gdsX4v0G/K64zNy+qKZ3j7r8ppW2unggYYafQJR5M3i6UKb/VUmMuCvcwUNE4PQhMKik7/GNL4DXfGU1oTs0Nkj/c4E7M2d+0fl/cZlvm/SzQOTqqm0y6HuchwhW60kYOb5IOlakT6SRaDKZiPz5i0DhrPQgwiDpO9HDc0SgGQIDSfoe39jbyj6l6nrye1NZY5D+RqL1hJ2H2K7XlmTjsaHRuWqz6X8zrI7q2vEi/aNq5ZGXi6R/5BBjBScCgcEjfY80OlOGQLKb6TsGdUNXuCF9QiQWvUTbTt1k3Rd4Vdqn9POi7Iy618/ObU/6Hv/YdK5UrUFwvFJ+Wg41U+9IgfupxVIFMim1SjE7KUTnGJnOF4u5yaC9SZ7Ak2yxWEjdNTAMPM0WzVRI3bVnt87OBcans6tlJlCtWi7mpqNBG3ogMGTgspRyybuiUs4qqN2RK2EuhCayRdbmWrmQvn9zAtU77TDFe4gAR2DQSF8amS7tUaptZ+45JvTuSJ94fONLCqXqWtxPLrF4rV2HrOvVO9SG9D2+MabF0mrlQj5fKCuaVqsqdp2+xzf2hgWQUqtr+Xy+UKqqlGrVBR4kkhDf48IepZ8cwQhZWC5tPWEuewae5kqQyvB4qzWDi/JsWaWUarVyEVyRFcs1TY/oy9E4F5raUFhYqFIB7kNhdPfAQQE7CzMUeg3hEqlSKUKbawBMjaJOv1cvJZZzchEYLNJfeFOE8Kp7xYaw2tZM/1M+lbCnuGyFKoWevDKxqlK6k5teqNaptpG03+3U19Lj3A6bUcNMtiHVVmwLBp0KM+5LPl9TH716VMWsPsKxMaAO8fysVV8eOc82Cl6fWFUo3cne47P44YfL0N7MHaM2QsiNmUqdamtxx8hJSJu1U4/Exkv6eVFwLenxjcajZoTCUYjopH0SMvge5HYoVRujBwvCtDxsLUxgGj7RlGVDkqHQ6zKLddhsIZeQVvi2rBlvIAInFoFBIn3LJEfbSgYhRrmYjJm+lcs4agyrfWOmvM/uah/Tt8RC3Bzfy2xWWqbyYuyim0Lc5Rl5w4alhKAfufpyXRNI33N+Yk2j9dpvYUNNwzRdQL515TeZVeORxt8pLI9Rq/fGbIVF5W7g/Hakf42DBC0AAAgeSURBVInpT3bzD4SqjBLZ7/D4skJtE39CiB7mqdCNjWkr0tevV34WdFbS4/xei5m+TUg8QQROOQIDRvo7+Wd3k+sqpfvln4Q/eOhEg/Q/ZKJOW/1gA7cNjYENKFXeRRtuHZ8XwvP1EyD06i9hQSbvyGxVIP2z44sKoPEmakuxhUqdUnNNW7qX24WQqrKXl8Q+INSVZuNTK54lhNybBzOnlRiPDi/IZBzy75Lt7FObLNHZDY3WbQRtPNDpt5Uww6zVjhj3V6c2kfQ7IYr3EQEySKRfr3IT+xvTME/XNvXFWL0XDdI3ma5d73qvva5Q4FOHzX67Z/p+z/vNyw1K65WfAkLVfOJsqneGn6wwrYbxVWP73TI1V2fZIGcofNgHhPpHtNmMvRXPEiI9LoBGxRw5BKH0Qza02CQwTxxDV+OzTa+0Eoa3eif7j+JTwxOrSPoiIHiMCDRFYKBIv/wj13N4g1OgwNW2UkKY0H6RvvQMuK9V0taT5tJoU8APcNFzfgJIvyoqMYj3BhuuDJ2+rq/PPQ74G5O1TOAhows1Wld+lyVydgSsVFtpaVrxLCHSA9CfqMuRljP9O1lQ36/ErzeK4rdkOQACrYThreZ77sziLr1cR9I30cADRKAVAgNJ+oSQm683NbCv/8mcqveL9Mnt5HKhdUpHLrTC+qDXPWSMGRrZpuSc78yZPh8D9osvOqqpbs19pFRZjAzdmdvhB03lacWzhBBm8EM/pv/S9EFCyCW23rCd6tk2t1bCcB3XfumV2GrWrqY7clvJi9cRgdOIwKCSPiEjM7A/S9tO3+Jair6Rfh9fE744qaxEzcVh3+MC2C+ZpM/scPap9mkubDOWJ4T4/CIlEk6Uu/k3SzVY1DW3pzma04pn2ZIss5BR3seEhWWxIo+fryovGdaiZtm+3s70+YcL1TbMJW6PNLYAqzRI+ibmeIAINEdgcEmfDI3MgqW29iEdAr4zSF+pNEzD8+n7Nv4Dk5IB0OkDz/I2qlvZRFSWo5PZTVXTROsdQsjQ6BzgoFYL6edsDTsaT84Vyrt7hgrI6Pkbb2B1F5JDG04IuRyOxVmaTC6Dm6PKUoKfx6MhCzvpTnobIK+tZUAeORJNvMlv7+Qty5ybU7DMzjNEZFmOxpLp5VJNbW5JaUjm+HUjzPWXrKLKu2RUliPxt6VdBgySvgNLPEUEnAgMMOnD9lrGQfuVn8OSSfqc1mz/18s/imuhfNJ6/BdyeV9dj86zrVesReqHbGKu0eHahfDUOysT5FRr5eWEbj5v9vnN19uslM9zYafBa+s12E9pm3Ws73Zy2VaV+mE5Ljrqkb6PL5YVcXUZdpal5ANovdwJ47ubXod9YCxp1XfPU6125JoA4AEigAgMiPXOae8oyR+UIxG5qVtoCxvmWhqyBe2KHStHz454VXI4xJ1aN5YrgTfjSEQOBwNdLeE2ltj8CjiljqDb5Obg4FVEoBkCgzHTbyY5XkMEEAFEABE4MAJI+geGDB9ABBABRGBwEUDSH9y+GzjJff5gp9RKXTRwbUWBEYHjigCS/nHtmRMnl4eMJnPgmrNNyqXuWrZCJw4BbBAicBwQQNI/Dr2AMiACiAAi0CcEkPT7BDRWgwggAojAcUCgJen/6iIdhwagDIgAIoAIIALuEWhH+meGzrT59+uvv7qvBnMiAogAIoAIHAcEkPSPQy+gDIgAIoAI9AkBJP0+AY3VIAKIACJwHBBA0j8OvYAyIAKIACLQJwQ6kP5XF37IbFX+/q9hb4N+H3X6feoirAYRQAQQgd4h0IH0zwydCf/7R6p9+JfQV45FXST93vUCloQIIAKIQJ8Q6Ez6f/r2f5Q0uvtHdNg+2UfS71MXYTWIACKACPQOgc6kf2ZoOPYfe1Qr/TVom+wj6feuF7AkRAARQAT6hIAb0j/j++//R6V0+399K2p47KTv8wcg+Xnowj4Jj9UgAogAIoAIHAwBV6QPGh5K61vJS4KGRyR977WpMgQw0lZiQwerH3MjAogAIoAI9BEBV6T/1dCt+c+U/lfhny9Ye3SR9PvYTVgVIoAIIAK9QcAV6Z8ZupTcqlP64V8Etb5I+h7/k1y5UqmU52Rvb+TCUhABRAARQASOAAGXpO+N/61O6ad/C//JVOuLpH8EgmGRiAAigAggAr1HwCXpD8f/L5J+79HHEhEBRAAR6DMCLkn/6uv/V6e0/NdvLatNnOn3uauwOkQAEUAEDo+AK9L/auiH3H/S+n8u/VML653Dy4ElIAKIACKACPQBAVek/6fQ/6xQuv+3uLgpV5zpe6TxpZqiKMpq4kofhMYqEAFEABFABLpDwBXp+//6d41qf5/ym6u4Z4bO2Ej/64fvNTDU30xe704OfAoRQAQQAUSgDwi4If2rU1v79L8K/81vKfQdpO/9hm/O+jwvn+uD0FgFIoAIIAKIQHcIdCZ9Mvq/q5R+/PfbDu/K4kz/0pNVjdK94gt/d1LgU4gAIoAIIAJ9QaAj6Q9H/9iFab5gt8OVPALpSw/yu5R+mgvjNL8vnYaVIAKIACLQLQIdSP+rC7f++tvi7JNroja/gfQDz/Ol9exjnOZ32wv4HCKACCACfUKgA+k3cr15RZjp90lWrAYRQAQQAUTgkAgg6R8SQHwcEUAEEIFBQgBJf5B6C2VFBBABROCQCLQj/V87pUPWjY8jAogAIoAI9BmBlqTfZzmwOkQAEUAEEIE+IICk3weQsQpEABFABI4LAkj6x6UnUA5EABFABPqAAJJ+H0DGKhABRAAROC4I/H8JMlUDDIuRzgAAAABJRU5ErkJggg==;" parent="1" vertex="1">
          <mxGeometry x="1000" y="762.5" width="248.71" height="176.25" as="geometry" />
        </mxCell>
        <mxCell id="BoX9NHfvs7r--DL0Gee8-62" value="" style="shape=image;verticalLabelPosition=bottom;labelBackgroundColor=#ffffff;verticalAlign=top;aspect=fixed;imageAspect=0;image=data:image/png,iVBORw0KGgoAAAANSUhEUgAAA3wAAADRCAIAAAAYHCfYAAAgAElEQVR4Aex9328Tybbu/Ud2OUxDhIE7ZmY8jPAwwsPGcISHrRgUwxEG3RiEQcIZHZzRecLMPXFGirMVM1KafRXnKJ0jxdE9MVLMQ8wDjZQ+D+n7kH5x/T1HV6uqf1S3u+12fmGH1Q92dXd11aqvqru/XmvVqv9BcEMEEAFEABFABBABRAARQASOGIH/ccTlY/GIACKACCACiAAigAggAogAQdKJgwARQAQQAUQAEUAEEAFE4MgRQNJ55BBjBYgAIoAIIAKIACKACCACSDpxDCACiAAigAggAogAIoAIHDkCSDqPHGKsABFABBABRAARQAQQAUQASSeOAUQAEUAEEAFEABFABBCBI0cASeeRQ4wVIAKIACKACCACiAAigAgg6cQxgAggAogAIoAIIAKIACJw5Agg6TxyiLECRAARQAQQAUQAEUAEEAEknTgGEAFEABFABBABRAARQASOHIGBSacUS2XzhWKpVCzkMomoI2AskUpbWyqVTMSFc1YuKZZ0MlmZ4T8llsRzR+Msa/KiZF3N/sVqxBLMdMrML8WTPmehJj+5XDV070QTmRw0mbU5FXcECieMmOsIkSFR3gOeFppIpJKxSHfLTuqRMxPzrXZ7Kf/NZ2zgZ5ch8tXkG023t+3q7d5o3Cyvt9trxcQXNE4IIZ+9m3p3ylGf7dH8oR8P7IEnPo9FsKRYEt4rMThmPhm9bwTrSSk+oL154JXB3in83ZWMOU9/VjK8pXzeXqIkvdLSzfJ6q/E67S611xV4DhEYcQQGIZ1S4mFtS6fiZuzI9zm5/PbpungC0obWrD1LCtxz7PLLljcT3zeWc2fcSMZnWh1WyFpOLOHs0w3/EsyjndbvCUIi5NaC6p9vp/Y3d0W996RrhWXVcBdlaEu584SQsXDCHA8yhEhPVhli9H1Z4A0/vNjk4m8WPycD643yoZ8df7BqULpZvHToJRNCIvEHNUVZKv7cu/AjlaF31dbZy9kSbK9rmzqlO7W71nH//7u1HUo/zCa/LNJ5GN109ZmsKLXHcX9ch/poj+YffDyEvFP2B1CE3HqjUaqvZP0Y26lbixqlu/X7EiHjU6vuJ7i5x98FIR/jV15uUUq3y9dEaccnoJaO8sRPBDGjfxpeiIa3TP+seBQROCkIhCedsUf1HUqp3npTyKQS8XgynZ2urn9UnrNvScKpld6YK+Tz+UKhWK41GFnbbTy3n8Um6dTWKkXPVsjEXa+6sa9fNA1q6DqluouPSomscOmb1h6ltC3POMdyP0cd0vmpXnLO8FQ+fTF83114sKxRaqhr5Vw6GY/HE6k7+VdyU10tMAIXTphjQsYknYYBT7GfrDbGZ5p7cAgYGJJOC5WD/Y9dfdWmdFe+2/tNE4lPFIrFbPL0wWo7hKtPXZ1thyCdF9NTxWIuJXzjHULdQ1/Ewbsp8peJNxrtqH+khr6x3QL2IJ0HHw8h75RuqcIdif3a7FD6rsjfQO5rxqfgs5NzxEhissCe/jPyNihDmm9c74Jwj/EjIJ3R+/IONdbyfvK7W4N7iMDJQSAs6bwwuQSfdO0/Uu43rRQ131GcWn0UTHiR2NQa6EU/zadMQslJJ1dG9obw26frBjWUcqUFb3f4WvXbpLvyLqV0NT/uOWtpOjcKB3qDxtlDzaU4ZBVJko9AgcIcFzJc0/m+rux02r8nmaBj371sGbpSbyLp9IyQg+we8av0IKL5XxuSdPpfjEf7IXBSSWe/dvc/f8R3Cn/kOu8XUaCfyluUGqtuA9qFKTDH9VT5Bz7GD510jn0HipXgt5vYGkwjAicHgZCkM/pE2aNUX2VmZd/Wd1MrQqRHcBVdL1zgl4Qmnaw6Y6MQS75udzranxkfkkcICXxAHArptMw3/wio3QNDoDDHhQwnne9K+XmVfigzI+mVl1uG9vZxER61g2k6pfid0lKjpWqarqntVrNeLd2xNdaelgfsXp2WFaX6MJmcWmi0VU3T2k25dKf7q/7HwqKi1PKJ0xczL2ssp9puymWhOil+zxRG09SWUp1Od5VyLjlVVUBcTW3Wy3euMD2HYF6//LhWr1ddBtBLufl6vVbwWpOjP+deyazlmtZuNeRy/gavLUJuzdQV2Jqgwze0FtuBn6WCY2qPRCfK9glFmc2CJ0b3di71tKo02xzfhlzO/SiO8Uj8QRUs+DcgGxdGbcqlX/b3DdWbdI6lXvJmMakX8m6bA3cnCCeM9KMAXbM+lxtMyyv9UlpWlIWct3Mvg/Fafsa/owiJ/pwtVuRGE8YUDM5mvVpIDWC+4H0RopsuP6uB0TwRuzUtmyO44fIXit6rrDLQ+IBQm3a/Vx+6bha4mxbNMQUD+Fm3Onks9aIOo+Xi6cTka5k1Tm01ajDUI+T6TF2pl59Ny1uqprbq06l4ekZpa5oGaXHckP5d0O9OIX3HQ98uCHmnQEeEQKb73rGP/AAmb8s1Czzvc7mM6c/FfAM+zVr6Dn7JUJFOJry+nPX4ldmNwwQicDIRCEU6I19NvgWd5UbB+z5wQPGjVpyqGqt5870bknRGzj5Y0Wmn9VuckNvVj5Rqi+kxpyYnFcjzDoV0EnJ1rt0BL7dUGAtpoDDHhYxJOouJ9ILK7UqXZ1qdHfkuF2AQ0mm5UrQbcq0m14EcGcZa3vV6c7rBN2WOGb2t6kDPZLnO3S0+1kwnYPsq1sWf5IqsApNrN5vNlqobxlrOrO7yswbos/V2oy7LdfZ+p+rbrDAUzyTBNYpSux5DbYNLr006+fdDR/27aAC9NrsNQysjPvTjj+sfoSRemVxvtHWDvi8xHhYht8pKAzYug9ZiO/CzLPh3RqKTFZ6tDfeMLYPdXkLI+Yn5tslbZVlusIz6ZumaDfDYZbDgG61GS9fbDaXOeS7V1wv78VLtQzrTL7m8Lc3w9ekMJ0zsfm3baRPvJ+N9OdS9Y2LD7RsexE5dn1UFc4c1rtSWUofBaSLzaSk7GO/s203mN6f2rtE2tHajXleagA/dqT+yqD+QTjYGGHKG6gwIwb8zEr31ugUjQW+vyXAbQG8b7YWMVQpv/PjkskFpq1YB65CutvhtwMZn5KvJFTYoW4pcb2lQlKapDVlmd9RmyR4S/bug750Crur9xkPfLgh9p4RCRrxxPOnxyWWdUo7A+AMAkBrcuhV90uhQYyPvBnmYSCfzDTCl9TQLdxGBk4xAKNI59t3LJqUd7c90MBTd1OrM5ZdNeAttFC3die3TWS4W3NudhFAyf5Rwd5zxiSWd0o/VfxLO28lAnmeRzg9yyV1PIZ+2hLFL6ZG49greo9RQG7WZfMaa7Oh/QaAwx4WMRTrj0s3qx077jxtXX7Xofy1mzlxgc7zCk06w+1C61/xV1NbEkklx1x8D4aj1oUI/WlPNiHT1Nfjges1hjHQahqEuF362WJcUT6f5kPiG6Sx3G8+tESLdLG8ZzEZmZY5PN/Yo1WzacSbJBp5A+EKSTj7parfxW9IqmhDp+2zOo1gNaTQM8paLkOtzQIk/zKfPccAisQcr4Dv8TrhTgHRSqi3nTC51hvll8i8xAeZQyd6k0y4iaOIIJ529hfnmwapO6W7jVxu604kXGzrda/1mdZxdT2ACHHIM2mnC16a93WSfnUvOt8HlTP4XIYIEGUuAmdJ2KbEvDJkI7iY2T4XS7epdTl0i0Yk38GHkpTI9zesSQ9XYqty2+c+lqVUNnmm3nVFGCCedhqFv1x7ZrTudSKfiEU46O22YIjn2Ncyk5MYffovtKY94OSG6oP+dIoIWNB4ICdsFPe+UsMiIInnSvHzu0wXjBLzXtcXMGCFXwUSm/t3zwjo46dxRXovvrukqTNPcx0Qi6FN9VP2APb2Au4jAQAiEI51s5kRvT3lOrQz2NQ8f9Ar/+v+wlLc/xIlJOn1mEorPcc7etHmm3QStJ7xR/rCMa2LrAnmeRTq7a9KXBjNnxN0T9nW18aboPxUpUJjjQsYmnZFT1+dV+klRtvnLaVDSyTnKnmJrdETMw6Yt0vm+JEylv/AANBOeTwhGOsG3yX4rC3VEnwOhdPFU/rymuun2AHPOKHU7Ckv3mbOvrTMLRzqZYtt4x/WaggzeZM9XqZM5iM2w3qF7DXMGHr+AuaCZOhvQNjFNJ+cZVonwHqX6P3zn6lp5/P8PhXT2FCY+A1M6XH3NvF92qDuWgr98zlFuG3HK4TdysIMNvzL2HNRag2ni7TqDusnUdIKTj52XcKOt7aTOT/QgnZGzjEarfxeN4PDVAV5DLkrESSfwJJGKsgo46eTkMiJNvNVtXg4j1voO6d8FYe4Up6mENzZkNAP/Luhxp4RHRhTJk4589WDNoAwZUBzqSm1Fp1vlnyyUfhW6Di49OOnsfqPQfZFO8LantON+CHhah7uIwIlE4JBJp+ue1N/PZkxdDsfOJJ3q27w3GlrSfjpEJB4Iw365xhjtMJ0U3X0QyPMs0vm+kvXW1B0Q1F2mz54UT+WKszWlqYKVDPRPqwKTti4IFIaTzqNHxiGdEXKdR4zaqcEM60FJJzyywYinteTXhWw64QlNZzW49z8nnUAXhHz2o1bkl1zT6YpRYF1i9qPx75apnZ8wJ3hxdsijlnjmkn/7YlM0bYchnaYOyZqDZYng89/jVSrmDmIzvDt8Y6/Yswo46dxjAV+sMlmrHa8D63CI/0MhnT2EiXwFX4ZUWytlXdsz+SO43A3ymcc/S7ZKV3izxlngG49SkJDYjXypKteVRqPJNuaf4D+LuS88Qd1kjhk3NbRcMlzePj1I5ykWUmev+dqFSza3APHgXNMcOen0Dehmkk42GEypTLJy+XWrYwaJC9EFYe4UEa5gTScJ2QU97pTwyIgiedLcaNBp/ZaQwAFss/jz88benvLkHAtm1z1h6OCk86P8RHyj3CmBgn8fmk77w77rE8PTRNxFBE4aAuFIJ1Mm2bolXwzcRmTp+/TLNbAYvi8LkwnC+HSeujWvguJqLpsxt8fw6qL2e0ioPZDnWaTT9VgXLtx3MnqjCKYxP9VLoDDHhYxDOgkhNyvbuq7Op8EbdVDSSQg5l3qxwt7knCvr6kY175rp0hdBk3S6VdQ8JB68JITrGek0FdvCYUg6zNX1bOYtNXUw3JfLoz3lkfkG0nSOXX4VUvfQ41Uqyh/EZtgEAq+vJ/dctE2lnHTaHJQVy6n2f7j5t1hhYPpQSGcPYbgKzfVZJex0B5cIFJT1OPPnBlMy6EohdKhbzx29NcdcJA2t1VCUOmwKc3Q8GtLZ3w+Y9CCdpqOhgIaQdLwpiGVe33KCnTkgcdLJQ076kE72mRSmC8LcKU6twZrOSOgu6HGnhEdGFKkrHX3S2Otof965Ptumn2ZTp38qb1m7jt3AvurgpNP3W3HfpHMfF9ptwQQiMKIIhCKd/KkKEdGCHSLd1ArQOG9+5TuugWFI581ZoJjdW8ftYsjgDuR5R0Y64ROfxVHq1rwGCnNcyLhIpzgc90E6+eXRRCqbL1bqfEWAT5zCiiX3SJt80f3ONg187q5kpNNFLOxizYHntSlHwZxKP/AY+OOT4PXrURFZTTZdO3w1nWykOROJTMdlt0OhLYmY6PEqFbMFkU6uhfV8RJ26Na9Rulc3/fNGjHQyxVKnNZeK+WxR1weDiJBvmrtGwP3FNe4er55rr7YpdblIEsLHw1CSTjY4P9bux/sBwzWdnlHBAQpFOkN0QZg7ReySIE1n+C7ocadwYcIgI4rUnYanh7E2U1o3WJR4FhP+fbm4rFMfT6rhIZ2+T8Lu1uERRODkIRCKdBIi3a/vUmrYqqNuILqpFSFxZhkX3utsRSK3+52nJOa4Rt9X84I9KldcUTswzcK2wZsXBfK8oySdEose1e3qFCjMcSFz+KTT7ptLL9YNSj9WbtpH+iY46QRPO8GUzqkV19nYJfQgnYTwhanM+eP8EsvmbpbMX2x7jedCPYR/utjDlfsbuGfCcXLjDE7uB0b1FXEFLFtIMdHjVSpmCyKd/HXrVhyCNhpiWVsIHy7pDClwEMnoK4zpzuH9NhDBGCDNrcDb5WsXGGNz65Y4v3T5WVo3e/fzIVSlQd3k+6FimdfFiAew/llQcHj+mb2nPBEHp69YBySdYbogzJ0iyhYwHgbogh4DLzwyokjdafYJ96HZ3N1rggdn5OyUYhjNRsvXmXh4SKepHe85N7e7sXgEETgBCIQkneQMs3pTbcUdRU+KJ8ypln7UivD3hz0Puq+m0zRxus2vhEi3wcpmrBc8a+oE8jzrPXRA83o0lc0m3HoaM+K94Vqck42DQGGOC5nDI51dwe+5p9125a/hR7xJOl29Jt2ugZOfHUKLl9aTdBL2mqdbwupz4xOLqjC53nzdChM+IpK5CKpNOgnhtmlnklAkOsn9VoWQSdJdGYbZVtkJXQQSSlGPrs7WUng/gtzoBLKZs2zRBBe7jU83YQL+InOHsCcSuYnp/s3r5qSNfu6qASTDnNXUWxjG8o3NoumLaSMhRWN9+ZadmSe4V3envfAaPnQ9SzOYn3w8DC3P/w2bnRa0Mo2n8O7dwG4yqWTfMFuEz5UO+Fy5PNPao4ZP2DUPMAckneBRAzaiXl0Q7k5xEAoYDwN0Qc87JSwyjkB+Ke4bCgtUmk8ne/1kjyM4XDw8pJMQa85csPHQr7l4DBEYeQTCkk5CorcrEKqGau9qpUIul8sXy3JD3bXm3/lSK0LYk8WKhshJJ9Xb3BWL+WPxH7mS+54Qwt3dujVqXDnUpTAI5HkW6dRaQh1mTeU7od+C7DWvt5VauZjPZbO5QmnRDDbpDnfCRkGgMMeFzKGRzlO35ttqU65M5zLpVCp9rzC7AfOKuj0Keo1+S9NpGPp7uXgvnc48rqyzRa0WPPNze5NOi+WrSvlxJp2+V5hvwnSuT4vCHLVLT9ch9mHrbTGbTmfyc40da+VPJ3ICnx6ut94Uc5lsrvimpWma7onTaYYuonpLnsll0ul05mFxvqFudM1nv8xiP+ktucKXWRXWVo0ms3m+PavBYs1qfQYWhs3n8zkzyDwh0s0KhOICYUDg3EwddncboiMKX2lTXItr/6STELbgHoT+elMpw5azQ+JLiQwXL1+Ya+5SqinlZ+aBNNySIRlwJDoJ4YSo3qzN5GH2XiabL1WVlha4skOvwcOGBLjYeNx/CYHldiEOG4Mulc48Lq+qhqbB+BxI09m/myz9ZRjSKXGBteabMh8QuRv2Q+bM9VkIIqu36+XHbFpjNl+crTd3dt0Ldh+cdIbpgv53SojxMEgX9LhTSEhkeg0UQvjcRCoY03lfiAFPTqdeyPzpz5x/DXWD7cnV/I9dhQc+xg99RaJvp2DVvS5NSpdEeAAROFkIhCedhJDojcISi4RkuVwa6nrZjDYXQK0IV5JxZadJOq2rxX/2nRrz6HtsqCNnITRGly4h8AFhkU6xBjPt5xtq1+NJSDeKSzxyt1OQoa5W7olxBK1rAoU5LmQOjXSOJZ6uQFB0ZzO0d/Psq8BqbP9/06ez/Wa6vGlO+oc379t8whtpvzfpJIScds9qovr7mnv9HkKiv5SB0fLNaL99XIKVlwVNJ4lI118DqeKbvl17/LDSHRyeROKTc/zDwsxpqI3XnjjeIFLiwUIDIubzXMI8We4fYl4s/rmN+/F7lU0Wa5xnMVRlJm3zFCtkUm/lYv8+EHJEotefyTy6OdRoT+7hc/ZFOe30oA6mkdjEa0WYfcZj7HvW5hFE6pHkUaUg/oAT+dzOHrtX5U7GTFLjw3LhxvPVwDW47cvcif7dNAjpJES6+qzGVhJgQomMh0/Le8smP9nY6mpTXMXKmUhkTdsXpQ3j08nzh+iCPndKmPFAyABdEHyngMjnUi/6IiNC0Z22Pm4djws+RUnUUPBphTb4dsLjCM4KD3yMHzrp5GugeEKndTcQjyACJwyBgUgnb7sUT6bSmUw6tb9YOqMHoBSLJ6DFmXQy7rG0jl5jQkssRXk/Q6vdLgahirBIJwRYlWJJGDDJi/sox6pMirE+SPeI0B+FHL0y2IL0CwIlsaIy6eTRDvFonOGSSvaTxwJhFP7tRh0ldlIsYd6QBxhSx4ymFE+m2W2QGNjjYEBJ+3ZB/zulf42H2AXHh0z/Zh1nDrB4dEW3PU4BsC5E4DMgsA/S+RmkxCpHDgGRdI6c8CgwIoAIIAJHjQD48+h0RzaXvDrq6rB8RGAYEEDSOQy9cAJlQNJ5AjsVm4QIIAKHisD32Ve16jNxwapDLR4LQwSGDgEknUPXJUMuEDgb9NtikhXX3R0cfsibNjLiSbF+PZAYKkeQkGPmEPAfNWQOoclYBCKACCACo4MAks7R6avhkBQ+zeXeWyXP1luXotGoNDo+d8MBbxgpIompau8ekGvl7MUwRR1PnvBj5oDyjBwyB2wvXo4IIAKIwGghgKRztPoLpUUEEAFEABFABBABRGAkEUDSOZLdhkIjAogAIoAIIAKIACIwWgiEIp3JZDIW6738ymi1GqVFBBABRAARQAQQAUQAEThWBJB0HivcWBkigAggAogAIoAIIAJfJgJIOr/MfsdWIwKIACKACCACiAAicKwIIOk8VrixMkQAEUAEEAFEABFABL5MBJB0fpn9jq1GBBABRAARQAQQAUTgWBEYOdIJS3D32FLmAt9sOd/ufKmEOR/KPO9d9tos3V7gO6g2uxyrs07H07lCsVQqFQv5rH05IQSWOe61eRc25/m7ypdiSVaOJ7tZeioR5YK4akuljnjtcKvx/f4BRRGTfvnxvIAAdKndv8JxTCICiAAigAggAiOGwIiRzrGzTzdor63T+j1BSIRcn1N9s20UGOs8dX2Wn9+t37fDl0ekiTcaXNXR/sywfrzwdN23FErNciCXlHhY29I9+fSNQjxCCBmfXDY8p9y7H6u3xSFzc/YjO68tZs6Ix394ucWOG+uFb+zjp67OttnRPeURa4V0v77rLp5SQ21UHybsRtoXH18i9rzRofo/sp9ThvCtvfpMVpTa43j4K/xyns/OKg2lnD7td3KAY5GvJlcM2lGejAZ4A7QMsyICiAAigAh8cQiMGOkkUiJbdLY3rT1KaVuecQ7lfmZKv2gqz4/NbwAf/FQv8917nH6ZpNMwqL6SM7WEZHxiSaOGYXhJp95ccMo3U2Y5hEi3q0ATtcZcPpOMx+OJZOZhabGhviuzVXki8YmCc/HsBpDaT4opDJzIp8WVY66+bneooRuU7tT+Jg5GTjoNw9hrPLeDVwFDBXmpm3QaW9Vn+Xw+XyiUKnKL0eGd+iP7KrHYY0mPEumM/AU+PDrqH6mDQfPti01K6Wp+/GDFwGqiSDoPiCFejgggAogAIjAkCIwa6XTBJt2VQbHX49UeIdcXQKX5rujmXJx06kq9aejLufOsVOm+vGu0VtY0L+n0KCNFESJnH6wZtKP+Pe3VREndC0Ba+td3RaYEFcvh6bHLr1qU7sgzCyqUKfIeTjqbdUU3TCUrL01V6u0u0rmcdbSkY9+92ABd63tOgrsrPfojSDr3jzGSzv1jh1ciAogAIoAIDBkCXzTp3JWfTDf2duuPogRUSm91o1nKA+Fzm9d7kM6xq6/aNKz1sy/pZMxSX86ev1vbofTDbBIM9HzjpFMp5Fd0Y7MIFvZT1+dV+qmSA57q0XSKpJOQKFi3qbGcc5ioVerx/PchnedSU5V6s61qmqa2m2/L2e9tAh+JT9UUZbl4wz7CJT6feVVXlNks/1pgx6T4ndJiowWlaGpLqT5LWQpsdvrysxoYzROxW9Nyg9XVbtSeJZ080XuVVQW2pmqAT0KT7cBP9WF4U/tY8qnMLmy0QcOstexS6qX0mAj3udRUlbVah2a3GnIlnzonZuBpJJ3dmOARRAARQAQQgRFF4AsnnXcvPV03mIV9fHJZN94VE+nBSOd3L5pALt5mHfoSOBL6kc7YdHOPGmv5KHiC6pRul6/ZZXHSuZr/5r68u9f8NU7I7erHTvuPG8mXfUnnE2WPUmN1KEnnpall0EQbarMuy7LS0gxK9fXiFd7wCLlldoeLdUZZi96XmAMDISQSvfWauRHo7TVZluuM8RnthYzVKRFyC7x1tXeNtqG1G/W60oSK6A773mB1AelswMZEMNQW24GfQfw7x5Iv6uzCJiOdetsuRSkLpPPM9VctTm3rcq0m1xst1aAfKzft7rYTSDptKDCBCCACiAAiMOoIfOmk8/TXTxuGvpr7/lGdkTnJYjmsY/lEIr2xUCy4tyz3HCWExKcb4FdqaO/k8rNsz2nGvUnn2NdPNwzaYYQycnYKrPat3xLW+LJI5/j45JJNjrcrfz1zuQ/pHPvu6Roo3T6UBb2pVarP/zdTy0xbCBrDrk39WHPmXflcHHRIikajLtrIM44lXjQNSrWVvOVvEIlen2vtUcuFgBByE1xmtSVhWpUF1G+WAlJiimFjq3LbIpnk0tSqRunH6m1eq0k6Kd2u3uV5ItGJNyqlxkbevobJdCw+nVxg91wxKR40dgLAC8IajyMCiAAigAggAkOKwJdOOiUSe97YMxpKA8zWlxzVGuuvoNnrIh2MxCbmGjvOFHVDa8qvs3EfjtWbdF6YWjUo3Sr/xGqO/drsgCuqxcZs0sndAFqKojH7+5gf6dysPMzClsuXqg2wFtPdxnOLovUZiOdzi81W4LZZcc2171NWv9Nsqr5rPj4hhOHgHOQz9Hdlh+x++3TdoNBZvHiToKt/TwmQA9TtTkf7e5plMkmnwGUJIYyqfppPOT4MoDQ9jolE0iPQPbvcJ/pBhecRAUQAEUAEEIGRRwBJJ/mGsT1qAMPzJZ079emMJ9SmGQ3U6f6LyWyhXKs32sxsS6n+rpj0hsvpSTqjjyDa0adZiwNdgRhJxjpz3ySE2KSTEJjwBHGd2n8kCfEjnZ6gSfp2fdrt4OiI/VlTnFh/kguMIVs/94qmktKSjc3odyIuxUC1LNDHUxOLGqV7zddWAfw/tzYp4tIAACAASURBVNDqQGQrpsjkpNPmoLzka7PblGqLGZer5bGQTvLDy01mXV+rFnOZZNytbLXajf+IACKACCACiMDJQgBJJ4mcnVrRDK4L9CWdPSYS+QyGaPKx/NGgdFd54iETPUgnuO7pYO0tZ8ztDuNedoAkgXSS8YlF1dC3mMenH+k0Niv3gHllMunUMDMaxiY9DNna3ZXv2orLn8pblJpBBsa+A4u8DQtEQn3QIxKqqSo2Sac7IIBFOl3zq46HdBISf1jdNL9PmHNGqz6TdgdY8BlaeAgRQAQQAUQAERhlBJB0unrvEEgnIWYcJe1Pbtu1K+hBOlmIUItwif9sXpFb02mXBwlf0umeve7K33fn2xfrjquAKAlL79V5FPq+xYTJcHmGKSOLiZjPJviA8jbyIAM/QPxLYzXvzFsHJ1dKP9bux4NLGT7SyfCRYsl0rlCucReIvdAuEGHAxTyIACKACCACiMCwIYCk09Ujh0M6pYm3Oou7ZCvrWCXBpFO6DTGSDMsX0zQQv1Z2bQ2fqOkUJT500gnRiIK3peINsfaDpbmfgONREFxaHDxc9bVcNAE8VYjnL9Bur15ZLG0A0snmuR9zcPiIdIvNaoLABbghAogAIoAIIAInFQEkna6eHZx0Xs2aayA55ZyfWFSpOQ/dOeoszulMD+JneaWinyI/fuEBBE7ic2iOjXSKAh91enxySYO4RU+8hmUpJig6QYofXmwa1FDKlRalXOUpyHZ5Bia8f5hNeZ1oozGTxIUnnYRwF1JnnSqhogGS3OgvBr0SL+5aOYCvRLWWc3+liJdgGhFABBABRAARGHUETirpjD+syExh12iDtVhvKWxPnuGxG/mKRKLjIO9IX9JpqBte3Z9cK7AIRJGvYEUiQ92QK9OFHMwXn66ssvni2pIYupyVHqTp5MJ0mnYMIHNQwULzEFHobUYSJxK5htyhazpdpR/5TvxxfYctIrpQzMFkrQxYm9fbelsMjA/qTBZPiln49SVhvSUu4JnrsxD2Um/Xy4+zMOUrmy/O1ps7u9aS5YOQTmtd0+abcoktYJq7sQ/9oymw8UGp8FIKGSsQASGxZ42dtrJQKmQzqVQqnZuRt8EJ+HMuVXrkPY0VIAKIACKACCACJ5N0WvSuyyeRmmtIDkQ6u0ths575BJSrj2s8pLmTy9DeVfM/diutLKm8ms5rr7apOxS8NS6ZWZlqi+nTJ1LTCc2U4vcq64ymWwAaWkt5nfUqP2MsILxJwS18nP9zqRdv+TLzVjG62lwq/MxzDEI6CZGuPqs12rrp2sqjBDg1hU59n32ltDSrGDE4v3S3suXMIgKB9XZ9ZigjDIRuLWZEBBABRAARQAT6ITDSpLNf447vvBSNJ5LpDMwXT8S66ebxCTKiNUmxRCptzrY/AHxSPJmGYpIJy7A+xHhIsUSSNzrhcSYYYqFRNEQAEUAEEAFEYN8IIOncN3R4ISKACCACiAAigAggAohAWASQdIZFCvMhAogAIoAIIAKIACKACOwbASSd+4YOL/ySEJBiiX5bHK3kX9KIwLYiAogAIoAIDIoAks5BEcP8XyICkcRUVe691crZi18iNNhmRAARQAQQAUQgHAJIOsPhhLkQAUQAEUAEEAFEABFABA6AAJLOA4CHlyICiAAigAggAogAIoAIhEMgFOkMVxTmQgQQAUQAEUAEEAFEABFABPwRQNLpjwseRQQQAUQAEUAEEAFEABE4RASQdB4imFgUIoAIIAKIACKACCACiIA/Akg6/XHBo4gAIoAIIAKIACKACCACh4gAks5DBBOLQgQQAUQAEUAEEAFEABHwR2AA0hmRJuaarfXyzQMsjm0JEU2k0mlYp9w64P2PJjK5QrFUKhULuUwqvs8qpYupbB5KKRXz2bRniWsplgQhurdUImqJwxbz7iEmIYQ3pbuUdPJit9SxpNWsfCYZi/BqWCU+BViHBHksufAfEUAEEAFEABFABBCB0UJgANJJCLlZ2abG+1LCZEv7burN2Y8UNm0xc6arEOlaYVk12Hn7x9CWcue7cvY6EIlNzjV37QJ4Yrf1e9K6aOzyy5bntLlrLOdMqU5dn1cp7TR/DSTHRLpf99bCi+m0nboIIZHYxFxjx12htlq4RAi5XeVouE86e8Zythslqxn4jwggAogAIoAIIAKIwCggMBjpHPv66YZBd+T7tipwX228+rrdoYZuULpT+5unhAsPljVKDXWtnEsn4/F4InUn/0puqquFbzw5e+5efd3ao1Tfqj3LpBLxeCKZzk1XV9vthbR1mUk6tbVK0bMVMnGTVYcmncZWbdpTSjF3w0YpEp1YaBuUGm15JsvkSWULc0p7s/wTIeRiesq+drq8qgIb3xCkcuSxZMd/RAARQAQQAUQAEUAERgyBwUgnIdFH9V1qbBQtWraP5o5dftWidEeeWVBpR/17ylVE/Ndmh9L3Za8yVZK6bdWuC1074xOLGqW79S5yLBTDSWen9XvCdalrJzzp7KmMlG4yXebH2l2bhrJqpGjXat1j371oUtpR/3DD4pIKdxABRAARQAQQAUQAERg5BAYlneTCg2Wd0q0S2IX3t/3wcotSfTl7/m5th9IPs0nHWB8ht95olOr/yAxCMbvF+PbpOqV0s9hLyGMjnZGvJt/qlBrvwjB1JJ3dvYlHEAFEABFABBABROAEIDAw6QQLex83x96wxKabe9RYy0fJ+CTw1+3yNeGCq3PtDjDR1Gnh4MDJCw9WDUp3lSfBvpjk2EinqS7tqVK1W4ik04YCE4gAIoAIIAKIACJwkhAYmHRGyPUFlVJ9JbsvZST3Cu00f40TEjk7tWbQTus30cB97dU2TCIy1EZtJp9Jxd0G6ZDQR84+WNFhJo7WWqkUc+lErFtY26ezXCy4tzu2POHN61u1aXchhVzqIpd2fAoY8F79UbcM3c1B0tmNCR5BBBABRAARQAQQgROAwMCkk5AYd7ss7cut8wJjYFtsAo1VlMfuHH9Y22KMkc/f1tXGm2LaJHDhET+XfqkIc+ANrVWvPEwIvM8knc4kcTu1kbeYbmjSaV/rJD5W/4lL++2LTUrprnxXqDywHUg6A6HBE4gAIoAIIAKIACIwygjsg3RKT1aZBVzwxQyNAJuHRD/Npkw/zivg32msF70z06V4KlecrSlN1aSf2mq+l4NmgADRHzP5UlVutDQegslozaUt6meSTvVt3oqHaf0nbaN8aNJprJfvWJeb/3ZwUYt03rdqDhCWHUbS2QsdPIcIIAKIACKACCACI4vAPkhn9Eljn6Qz8tUkWL2NjXLG3O4UVzVK9xrPbZ7XhWT0BsvT0f48yOyi0/HJBQiiZNizi47Np3OcOZjuKU+QdHZ1Lh5ABBABRAARQAQQgS8FgX2QzvhMq0Ppu2IwTwwCb3xiSXPsz0KKzSsKusqywn8o70e36pTK4yjZvpXHRjpPXZ1tU9pph4qChJpOp8MwhQggAogAIoAIIAInCIGBSWfkLxNvNAp6x4FRkG5DjCRjs/Iw62y518ouRFDqteCQ9ETZ8wRXGrhyQjj521PMCT3HRjoj0i2YekVDkWYknfvoWbwEEUAEEAFEABFABIYfgYFJJ+dqe8oTa7JN2DZGCONexkbBrSLlgT93Ze7yGE1ls+J0H7aA5NQaGOXXcqGrjCQm7MnjlnwSrOFJ6Xblr/zIsZFOQsiVl1sQwqnx3J4Xz2SIJRLnLPHMfySdHkBwFxFABBABRAARQAROBgIDk85vn64b1FgfbFFKwOrU9Vm2jvlvcTdyY2dhaU2qvWUum2xFIr2t1MrFfC6bzRVKiw02Cf1j9XYYn0heNrOkG1qzXikVcrlsNl+cq2/DlCR9o2BNuuekk+ptpe7Z5Erue14On0hE9ffdeWqFn1kec+11rekppF6Xp51VhaSr0w1Yol1vvS0XcrkctEtRdWsWv4MIkk4HC0whAogAIoAIIAKIwAlCYFDSGYfQ7vpKeKWjjdW1V0zR6AoFz0/ypS+1xfRpQqQbxaVGW4iYxGJ2rlbueaiqXaxvIhKfrCjWlHXTd9TQWm8LKUezaJJOwbPUTtraUJN02ieEhBUCySSdwhk7+R85kSZLicfVTXMWPctiaO/ms95QUEg6fTsUDyICiAAigAggAojAqCMwGOkcu/qqDRbqmyKbOgoIpFg8kUpnMpl0Mt61Pnn4CqOxRBKKSaf8wsOHL+fwckoxq10XjxrDwxMaS0IEEAFEABFABBABROCgCAxEOqP35R1Qc7qdMg8qAl6PCCACiAAigAggAogAInDSERiAdEak68VqrZw1/R1POjLYPkQAEUAEEAFEABFABBCBQ0NgANJ5aHViQYgAIoAIIAKIACKACCACXxgCSDq/sA7H5iICiAAigAggAogAIvA5EEDS+TlQxzoRAUQAEUAEEAFEABH4whBA0vmFdTg2FxFABBABRAARQAQQgc+BQCjSmUwmYzGcsv45+gfrRAQQAUQAEUAEEAFE4EQggKTzRHQjNgIRQAQQAUQAEUAEEIHhRgBJ53D3D0qHCCACiAAigAggAojAiUAASeeJ6EZsBCKACCACiAAigAggAsONAJLO4e4flA4RQAQQAUQAEUAEEIETgcDIkU5Yu7zHlkryNc2leNIvVyphzocyz6eSMdcS6GbpqXiU925QbXY51iA4HU/nCsVSqVQs5LP25YSQaG9508m4SwAzf1f5UizJ2u3JbpaeSpjyumpLpZLuJecDQLGBsothrZLMJhXz2ZQbJavR5ICtFqUFYeNRNxasHjGTLWk67WBsdaWFAZcuGk+JmSyRpVgyky8UWTel3VdYWfj/+Yn5ZkspJSPuw7h3TAjAnef08TFVeujVWPen9TzhFVgjNhmLEMIGajrtvvdIwP0+mICR2AO53d6q3ve5raySzkzMt9rtpfw31gHnv3cXXCost1pvD2NJZAsON0iOHES6mMrm4eFaKuaz6YTfU0LIHSYZBpkw5WAeRAARGBSBESOdY2efbtBeW6f1e4KQCLk+p/pm2ygw1nnq+iw/v1t3nsgRaeKNBld1tD8zDMgLT9d9S6HULAdySYmHtS3dk0/fKMSBr4xPLhueU+7dj9XbYp/dnP3IzmuLmTPi8R9ebrHjxnrBeT2cujrbZkf3lEfsvSLdr++6i6fUUBvVhwl2+naVF+7NYu0by1mz0vO3ZptikwxttXjD9eo6hFZLj+p7VtXmv6G15OIvJoNm7R+fWvXk4bs7tb9xfGwQPtb+ZksY+WryrU6p/o+MfYiQ77OzTda/doGGulZI+NDKiHR9rt3Za/waF/tgKNOR+IOaoiwVfz6gdL+UVhVlLjssMSpizxsdqv8jK3TfARv4OS6Xnqx22GB7XxaG2Q8vNvkzYbP4jTlQKe2of087IkafKPzW+FA+wGfP2NcvmpR2lCc9UBx/sGpQulm85FRupvp0QSQ2tabTHfm+eLd2FdL/QOTs1BqDo9P0ud0iscm5pveZttv6Pdm/4F45wiATdP2Q3SlBYuJxRGBIERgx0kmkRLbobG9a8GhuyzPOodzP7CEYTeX5sfkNIE+f6mW+e4/TL5N0GgbVV3LWU3N8YkmjhmF4SafeXHDKN1NmOYRInMlpjbl8JhmPxxPJzMPSYkN9x18zkfhEwbl4dgNIzyfFFAZO5NMXhaFx9XW7Qw3doNQmVfwsJ52GYew1ntvEABgqyEvdpNPYqj7L5/P5QqFUkVuMO+7UH8UIuZiesmWZLq8C7dY2KvahYiHDiDJ/nVBDrRfvJOOJG9lXTGxtMXPOEvVQWs1JpyltoVAsVVdVeP0YW+VrVkUkkpjkAM7I23Cu+YbLa+Nmk06xK7tJ5/mJRSjc+CCX7qUS8Xgida8w31C1JYtn2zUSQr59um5Q/1NitmFIj1191aZ0V77bg1iEkFN6BCznXZENgBD5jzpLH8Zz1NUfUvmcdMItul3+ySozPtPcY3ctdUgn7Gvz6dM8T+TslGLwLMNLOs1Hn/G+JPBpq40D/F94sAyfh7pBDeFL3izg6mt4wutbtWcZdtMm07np6mq7vSAQ9AHqsrMegHQO251itwkTiMBoIDBqpNOFqnRXho/g1fy467CwEyHXF4BbvSvaTI2d5aRTV+pNQ1/OnWfHpPvyrtFaWdO8pNOjjBSKJ5GzD9YMpqXwvvMlyXvE1r8GvtrHLr9qUbojzyyoUGZKqImTzmZd0a1HM9fmqkq93UU6bYUlIWTsuxcbwORcuhZ+HLQg6h9iLbzCa6+A3m1XbtotuDC5pFG61/iVo3hIrTZJpygtUEMKGspuFdeFKdA679TuCqhA0iSduq5TRw3sIZ0R6RYbBp8E3syKiSYSPjQLqD9onuz2e6ocpl0kncPUGx5ZOOl8X1d2Om1TOTf23cuWAQ8eCvpFS9Oprq21OzuWqv7C1KphbKw09igdZtJJ+NizxfY0PtwuN868K5fXDeH+5deOTyxqlO7Wu5SpPg/XcLVZuZB0WkjgPyJw3Ah80aRzV34y3djbrT+KEsJoitEs5YHwuc3rPUgnf+z2NmDZXWoZ/QNJJ2OW+nL2/N3aDqUfZgXLGiedSiG/ohubRbCwn7o+r9JPlRzwVI+mU6RxhETBUkmN5ZzLXj/2HTO9+ZDOyzOtDqWfZlOO3dnkcMZanmmFD6nVPqQz8hfu4eCjPulNOjuNhYV2p9P6LcHg9pDO8UnQpuw1TdJs94hvgn+QBHe69GPuldxoqZqmae1mfS6XNBVUhJBvsrOKUi87KmFeg3SjtKwoCzmB4EZit6arq802lKK2GrXiL+JnUST+oApG8xvnUk+rvC61KZccx4MIuTVTV2BrMgWu1mI78LNUGMDUfik/zy9sgQ5ebzfsYuaylgWAtYG3uq1quq6p7VajXplOixL7Qrn/g0GazsvPaopSn0m5vwciEkOj9hhca2IAXb18xyU+IWPJp7Llh3A+86quKPM5x1OFS8rQqJdB4yjdKC4pSq3L+yJ6rxLeD4GTznel/Lxq0ccrL7cM7e3jInxB2aSzo/7xuLzV0f5k3zmx5429PeX5M3CVGYx0wqCqNdowNNsNeTqd9DGvn0tOVRU2etVmvXznytQ+zesMMWaZ8ftEDNnzEWnirU47rd9/ZI+jPeWJ2GvfMu8mP9N/yOKdbH2ROR1PPy7X6s2WOcRbDblsm7OgnNB3CjmXmqrUm6wX1HbzbTn7vXu0OlJhChH4AhH4wknn3UtP1w1mYQdeYrwrJtKDkU72rKTaW/cb2n8g9SOdsenmHmXEjpOkbcHKzEnnav6b+/LuHnN+ul392Gn/cSP5si/pZP5hxmo40hn5anIFzNBredeTMs6Z6DxjopywHrjVfqST+2LSdyWBn3E0+5BO5ck1cJX7xCX0kM7b8zuU0q3SFf+OcR9lil7dTdztHLH7tW2AR2spsizXOeN7X06ZvJPrqj3vTi6MqLo+nXzBPBb0dqMuy7LSBh8I7gLBaxq7DEZzo9Vo6UAE65xaUn29YPreRcitstKAjYlAtRbbgZ/lQfw7L+UX+YVMBF1tWsUoLtJ55cW6bra6VpNBHJ3qS263Yxujw0gEkU7u16F7nCK4ifZj9Z9Y1ZeZj4rHVivdhg8588Kxr59uGNT+RLEE5s4t5oVWmS6X67GvwW7QdaFVgPffJJ38qcJuZ/ii25HvWnTK1HR2VH4j/9di5szY108bhgF3+oCkMxK9tdCGsak26zA0NcNQ25rbp/NM8mUL7B5s+NYbKmQB04IfsQvqAlcjGaraYnrMdTT0zvgt0GV+rNwk5PLrVkf0kCGEXGD+prvKkwN+3YRB5go4zRtau6HIck2uN1qaQelu87ek9RgMeadcmloGQHknyAorRl8vhnryhIYNMyICI4zAl046T8MjXl/Nff+ozsgcs8N6NJ16Y6FYcG9Z7jlKCIlPgxWMGto7ufws65mD6h4YvUmn+SJkhJI714vvNot0jo9PLtnkeLvy1zOX+5DOse+ergGl8apMgjSdpuFJ+1OcgkOI6Z1mqUsPpdU+pPPS1KpOqW2LFPHrSzrPnTVnNkim3tqeSOSv6xULF9LR59Ch77tZLygyH4B4u41f7VfR6cSLDZ3uWRpWQpie2FIJ82Khy8w3KxyAYQCeux8Ws7Y7b/Ru7SOjRNzTg3DSSam2nDPznGGTxjqt3zxzm47FvH4VBNbX8sLLX4qn2ORrAbnDTUrRqN80Ze5NsetSifFpN84IZzN1DJFIgUaNuc1YLhPRRwroEUVjAtdwc7sHdBObVgiPAot2EELYbeh4cfRrsUU649JN/ol49VWLArPkMxRFTWdKSgAfrbHPYBg/3O7sNKpfXcT0iqne5spCxrRgGpNgh+G3rbZkDbwzyZdNNolHxMqpKKALnAyEXADv57Cfc+KFPM0c4s1Jk2wOpetzInL2wQpzSddaK5ViLu2OxdFdWtCREMiQc6lcNmn7rEPYEX5LrprOV3bZvXw6xxIvAE9tJW99M0ei1+dae37uqnaBmEAEviwEvnTSKREwZhkNpQFm60sRAs5/HtJpT3a2EyIdjMQm5ho77NHNzhtaU36d9QRCYoOqN+kERy5Kt8wJB7Ffmx1xYodNOpnazGgpisZemWN+pHOz8jALWy5fqjbY3JzdxnMvWWE62m6fTl5gRxPn0sIUfT7TfDVvsqLDaLVZptqQ2Waq8wx1rSgYrO3bsS/plIgEbgkGcCO3ppOraYWAAFIizQCCn7TL+GX2kfHvOYFqWDLEZ6BTPKZ/6a68I7rM/vBik1LQVFlXedkDm69Gd2UnbILtYmvHUuCks9OGUAzW5m/KPAbSyX0ePPTLkur4/zmtdxSZ/GuNq/+5NDATDvSRDnpcbbld+ast7jhzU/5YvW31s8TU4cIgIYTToOWsOeZBG8fJt2gDtkv0SdikM8KdYRRlm8PoQzoJYZb3NaW5t6c8ihLvsPEp3nXIpablZ9h8OId0mt+TAiyEgCN7gKbTVXrQzinudukezEGZPcfNe01f4Q7cXOu5454Sdy79UmFPMP7sNbRWvWLG4vCUFrzbHxnfa085WljxfC/SyQaM95uEPdi9B8USMY0IfFEIIOkk3zC2Rw1wtfQlnTv16YwQIRKSZjRQZ6hcTGYL5Vq90QarDHjHvetmTj1JZ/QRWNMcT0pu7lln7puWioVPmTLfE532H0lC/Egnfz7bv/p2fTrV9ZoM1HQyFgvuZU7jGOlkMVw8c7YO1mqTdNqCgsK4/UZ0fBRFCEE6CVNWGZulS17SCWTRMQdbekSo2aM7NJ3M3PotLkbkqwfgeKCtlWzCyhLP5I/gMmvNggdgDWoHGeDaGpEAcb3LVpV/GNhlvWJ2W5MncQn3hHhehMThO8RY87DhYyCdhMSegF7Q0BpvSvlM6jACJYo9O2iac6nNkulp8MNLYPliKDFCosw2bd9NXBXq+low55Zpb7ki01SFumfveZwlTFVoF8GSonFxE2LaOqTTmtEIM+EkpiD0+HSmrHuZUp1p13xIZ3BFJPIVm9HYds0L9Phem/Ny3KzuW/hG8jWvh+oWjonlUx7qEjsTF8/2RQHHHh0++C1ttJ0x+mMmX6rK3OQNT4nWXFceO7M3EQYZfs3pxGSxUqsrjUaTbcw07okiAp/fgXEeuKbgk1ywb2pI3CuugguBOzSeV0rcRwS+GASQdJLI2akVzeC6QF/SOdjzIpp8LH8EfyCXBRAGVA/SyR+41NgoZ8ztDntU2dzF1nRC7E+I/qPzuEJ+pNPYrNyDp10mk04lgyIuB5JOFtvPE+HSmY1kUSvvDbKfVrvN61LsRgHcoWDaeBdFBgevnrPXLRsiqMGAjktinE7OOQSvVimezmbv5Rfb3aSTz2RyB/jkjeWKIpEii2mBjoPu3DaoXWAWedGdlLnBiZc66Y5FGjjpdGtDGemk//E5SCeJxCZeKzCqzU1vr1bueXTn3iFxZPsmjzfng/v4AsI9wtRUfGK1qQq1Yi/YcpnOu8x+aqpCBS9qli3O3Ky5VpW7k2qLVmAjqxzzI9CCRgym4ZBOQsjNyrauqzwukq+mE3x1mruGxoO4dZPOHhURaGPXYDbvcStO5/gDiBlseb6a4vM4uP7mdauFPf6ZBteeyNgjo8+pn8oQe/hj7bH1zMstsCmM3C3b5wJCTscnFyCIkst3wjenfTAMMjBPaGqZxfDV282GUmdbAzxku8Jl9CCdTKVqjwN34sBBzewGYQIRGG0EkHS6+u8QSCex4ih5lYW9SCc3ubofU2zP8g4USacosS/ptLVuYk5POoh0mjpCulFwMT/2aqcfxCntngLNOEoDtNpNOqE46WaFRWvyvvvhXDjSyfXWWi2bE4PDM7MXFSdmgUWbh872eklyY5xXoQj52cIEndZcKuazif6HTHduMC0157uueVE3IUS/vpy/1KOUYSOdvK+lWCKdzZeqq2zWkSucqmcwHPEud2kARSZ38fTYZB3HWe1tViLcxdP2DLFlg1vAoHswT4V1E7N12Gd5wnR6KV0xVaHWV4GY7fvMC1gtx9yKWSdupYt0ipcEkE4xSzfpJMEVwZczkE6XP4ZpBrG+xwj3Lfao7ixJuoPDi8IEpq0yvYHMAi9wTnCnF59nHptX5OTzpLi+dq/Ol8PwnPTZDYOM6TyqreQTTiSKU7fm1cFIJ3P8oBvFhM+dHRMfED5i4iFE4EtBAEmnq6cPh3TyOCBdJtpgTSefWmtYvpjcOpN7DTZNM4zosZFO04xLXRodTihhbqnlAedCje0EGaZ7tJr5iTqGaeAKfOqAe84Krysk6eSkWVdkmD5lKSz5i8pjSQ8gnVyT8UFcQoYLYFpIQwSI4fPA9pq/fs+cC0V3Q2DP5tyLXq/5z0A6YXUo/+lT3X19BibEeD0TurMd3RGuYNup3b0LDN4MWeCpjjmo6Mu5G2xatE/kV8L8ucGvJgWT2W2rglgOH06d9u+/sBjmosZaS+1fgwAAIABJREFUzBaQPmTSGVALHI6QW7CamntwckZok07TnN14Ln5O8u+xfWs6Leu87cHcQ0bXKbj7DErVt6It2jQ+WDFNXRdYO/wzI7xBPwwy1nAyFznjVXEvDh9NZ+CdwlXRtlOHJTH+IwKIgIAAkk4BDPbs7p5I1NO8fjVrroHklMMjnHev6hZEvzjTtQ2ydkHc5MdtrMdIOsmVl7BMn7jAHQSWgijNENCUbYfQamtykot0ciskC03vzPngVYYkndYaUbBQk006CbkKzEOYDB6s6QTFGJsJZE8fMdsMssEipcZmVwAUKRqzkOGZuYfuu4pfyGtzmov6JuO+hpCorQ4ZgHRyfW24EKROS7pSVuwbR9MjZPEG4zb5ul+lV16sswCmB10zRqjdN8nn9Kiq7h/rgPUvUElDVTW2vpfv5xK/xVRVtb/uuiozreqqanC3764MPQ4cH+m0pgRpwrSn6P06RAqzSaf51WStLgFU1Vw0Yd8+nZxm9TKABKHDKV3Xo5VbqE3v20hiIpeyIzzwkixjiDAnLKgK6zgXshcyZkgE5/lGItL112Bd7zavkx53Cp+dtlPvivEk2Xe2JRQhx3WnODViChEYBgROKumMP6zIjmMO1VvcT0ee4W96a06Ad/FAX02noW5wJx/nV64VWOR27qVuqBtyZbqQg/ni0xW+lqO25Ex6NTs6iHRyYTrNrmg4Z+GtSdlch+MknZHoxBu2LlBLnsnncs/Kyyz833t7GehDaXUQ6eQeeHbEvtOpF7wj6yx8udUXcjX/I4eVvzDsNyuwDbawE9jtLE0nIQSiw0D4Fa1Zm2E9VXhdh4ib3d8G3GPB7U9p9WB0kiPTrM3ks+l0OgPWZqWldWm1eaRVkEF4x9s3vBn2Ul2rFLIwRy2bK5aXGqpuK5zCk04W4BCWCmzJlRJbIdReINSuLkziAovrZKgb1TIv5p4dFiry1WRdazdq5UIuk06l0tniAiyH7e9Xxx31ROTD1L6PPPYK5lvWjKKuQnhcJFh4NsgthMdFgm5ihviuEuAAH2AUlmDoIhO+FzgHj5N0wvpAEINTf1ctZNPp7LPqps6W0hRvjUtPWbzV1ttiNp3O5CHsBvs6sweeI3uIVEQC9aoYgDbERTwLdzvRukO9MucTymeJMQOFoTXrlVIhl8tm88W5+jbcxPpGwYpJFKbGvshEJL5wndYoP86wEf6mqemapvuRzh53CiHxx4zoa42FYg7u7EyuUK6tt/W2GJyLy3xsd0oYiDAPInBsCJxM0mnRu26HITPSykCks7sUSu3QKlcf13gEYCeXob2r5n/s1qxYUnlXJDLDyPk4MvK5I2DpPk7SSQg5nZh6w1dtZ80ytI3ZjKhyOIRWB5FOUFVC0ErTBZNPdHDAtVK2a1o36TTNpm7SCY1KTr1pmtEFeLNU5XXW5+0Vh5lA+opvwH82pYb5NFqSwDo+1YeeWTWWaywwFa9CE25u6ef8oksWFk66lDYjBQ5COsnpxIMFCJtgzvPpMgiGfJhEfyktNVXdmi3krBwbIddnGioLmGi12VDXy3eEqJ12FSxqFayY+tzvrJ3tEBLmx4mx4VnhVizatC/3NNdyltNzLUfuq2evlyvW0Dt9rKQTZsNk5527Vn9fLczCUrfWRCIma/SX8jqbMQNdabTfPi4FrUjUu2lwls/W8rhK97/M8aLxcdcxXTaZEj0Sn6x0P1xbbwspMaBmmAr7I3M6+UKMzaQ15+5lZ9t+pJOQwDsFRJHi9yrrQpQnvqbC66z3fji+OyUUQJgJETguBEaadB4XSP3rkaLxRDKdgfni+41g3L+SY88RTaTSmUw6cAb8SLZaiiVZq3pF/mHzujxReNzoR+PQ3elU8kDdLcU4wqlEfPjnGUixhIWcEBXIDQthYeTBydLXTO/JfKBdT8Ad37K6o8R3ZeOOEL0MxFyfxw0OXZcP3wGY7QU3bXAfEcJu7HQqKLJFyEYx6Pzcr0NeHzpbNMzI619af2SicXg0ZHo9GvpXw3LYd3Yy6M4+vjslpMiYDRE4HgSQdB4PzljLaCEAa7dAAKNuffVoteN4peUhEQ6+bmEIqaP3ISa/5lkPU7wwIvGVn1wLKYkZmCcGLMkjrvXgyQDLULFVsjyRhrqzfWlHwAvFMPah5vzSgPJt7zHeKb7140FE4LMhMNqk8+o//8u/qv/9r+p/T/7v/+uBEE+JgCAaIdGws0USU5VaJe+Ev7HPYCIQgTPpV41mvcjcnQMzHexEJHYrXyy9lrd0Svdavyf9SjuXyhWL5TcNmEYjrDkkZpV+zhaLpSqzqGrL3qUOec7LmUKxVKmDL8WAToRiTSc1/X3uVa36DL/K9te/x3Cn7E8wvAoROGoERox0iuSSE6nJf/tPMyHwTjyFQMGnyIBj46hvtuMsX4rFE/22XhbY45R1kLq4zx84yjUXghavujYL0V4p1bfkZ/Z0KHcl3FuaUr29XLrh53TL1vhhpRjqRtnl0OwuCfcQAUQAEUAEQiMwYqTTVmratJK3VOSdeArR4IxzoLER+pYZjYzfZ1/V+Jr2gb8jqseVotGo1NvtAbL0cZKVWDG9+zJElt4F4FlEABFABBABFwIjRjo5nXr8f/6fyCp4g/CU2LGIxkBoiJkxjQggAogAIoAIIAJHgcCIkU5CyP/88eb1J68v3/5f3XDgKRETRCM8GmJOTCMCiAAigAggAojAUSAweqTzKFDAMhEBRAARQAQQAUQAEUAEjhQBJJ1HCi8WjgggAogAIoAIIAKIACIACCDpxHGACCACiAAigAggAogAInDkCCDpPHKIsQJEABFABBABRAARQAQQASSdOAYQAUQAEUAEEAFEABFABI4cgZEknWz57N6rCzvAxZKZXKFYKpWK+UwyFnFO2ClYiTgNi6bbRzyJaMIqopDLpOLuGIH86nT3lrzozmgWGok9kFutpfwlTyXWbjSRtuTNpnzCd0txfr6Y7zotxZMgRirhinYNCwr7rbPcryJC2JXptLchsGB4jy3lzQ8tG5pWk/2OBz7ogtvtP34uT9dbm7X7rg6xelr8v1leb7fXike2ANKZiflWu72U/0as9HOlBxLmqJFh/Zr03NSDIwOPAc+NZxcSkSbmmq318k3fB4KdDROIACKACJx4BEaSdF55uUUp7bvsbyQ2MceWwmMLi/AfbbXgZXs3Zz+yc9pi5kxXf0vXCsuqIRRAYTGUJWfdPOl+fdd92tzrtH3X6GNrRusrOT8aci79kq3LJ5SnvysJiwqevzXb1IWzhrZavGG/yU5dnW2zkx9rf7MPRr6afAvr+P0jYx8ipG9FDIf4TKsD5RlrorRjZ59uCCJ0Jzut3xNeHIei1QcbD5dfczS6G2we2Sh09SlbtvvTYvq0F4+u/bu1HUo/zAp93ZXlQAfGH6walG4WvYP/QIXu9+KBhDlqZH4qb1H6aTbl9zkauoGRryZXDNpRngg3mevim5VtarwvHdlHhasy3EEEEAFEYFgROLGkMxKdWGgblBpteSabSsTjiVS2MKe0N8s/ufvi6ut2hxq6QelO7W/uU+TCg2WNUkNdK+fSyTiUcSf/Sm6qqwVbY8RJp7FVmy56tpzP8npjl1+2DPqxctNTESHkzPVXLZBXVcoPoTJWV73Vmk+P8cyR2NSaDhnqxTvJeOJG9tWGRinVFjPneAabdFKB1HaTzr4V8dLGvn7RNKihA2Ndzgl0XEpkhZa+ae1RStvyjHMs97OHfQ1Dqw88HqI/55wmzsiw0KLReuMcKt5LuBlHRLq1oNK91m9dFLy788lRU6tIfKJQLGaT/emvj3CHfWggYY4ameMhnWNfP90w6I7cX+d92GBjeYgAIoAIDBECJ5V0SjeroL/8WLvrJkCSZ3m8scuvWpTuyDMLKu2of0+5uoYv0Py+7NVPSMIqfCbpXM4KtMxViLgj3QaFlq/C4/IMsDd91WsAdeS99gqIznbFMdJdmFzSKN1r/ModA0zSqes6NdYtWtxFOvtXxCX+9um6QQ2lXGlRuivfdxMqu1HSXRkUvav5cftQV2IYWn0o48Fp2fjUKgVY7gbAAjkvPFgWO8K52C911NTKr87ROHbUyBwP6SQk+qi+S42NYvxAKtXR6DOUEhFABBCBAAROJuk0mZbxru8j/gew1OvL2fPd77YIufVG8xqmu2AcgHRyqfysz+TU9VmV0gCLPK/zMjN2u+yAVjPX8oxZc9LZaSwstDsdS8HmIZ0hKuLVRZ8oe9TYKMSSr9udjvanaJ0XQOhPOoeh1RZQBxoPQqtJCNJpAyheZ6elH3Oz9aaqaZraUiq5H+/7mdfPpaYq9Wab5Wo335az39scNxKfqinKsuBcwYs+n3lVV5TZ7Hm+G4lOlBVns4/bctiJi6mnTl2tRq30MOn+XOshjF1I70Q4YUIh07uigc4eF+nkHyF0qzQUHg4DQYSZEQFEABE4LAROJuk8dX0eOJyPc6EHt9h0c48aQNrGJ5d1r5/o1bl2BzztUj2MkgOQzlO3FjVKP1Zve4QghHAv1R2/UzwzdxoDUW3eASe42+WneeaRZpJO5cm1F5sGNQ96SGffiszqzj5Y0Wmn9VuckNugM9YWLSu/W/j+pHMYWn1I48Fpel/SGTn7AJz8LOrvXMlSV56ug2uu3lZkWVa2dUNTwXHY5dN5aWpZBRO+2qxDppZmUKqvF6/woiIEbPddHwOM6Qqq9Eh0sqI0YGtDhQE+ndK14jp4ahhaS2GVNVWd0vW8yVwJIb2F8bQuaDeMMGGQCSp/f8ePjXSChZ3STtO0S+xPWrwKEUAEEIGRRuBkks7xKZg2sVd/5GJoXR3FHa06zV/jhETOTq11sYRrr7ZhEpGhNmoz+Uwq7tb9sPIcn86Ce8ulLnoqZITPWBXe5VYGk7ptFm1XUeuM9Q8elrSbZEhPVjuUGtzn0iad586C9+cOs4m7SWf/iniFIgUfn1jSgSv/kyWL+N+fdA5Bq0ExeSjjwW55X9J56hZ89vja34GPgqPsWsGytF56usqmhzmkcywBDrVUW8lbeSLR63Mtrns2pWAOJNqSMPvNGs/wqeDZeszdOXWdzT/TVvIJ5+PqdPJBzvrWCiOMp7reu0HChEGmd8n7OStJUceHZT8F8Gv6lhIh1xdUSvWVbO+n0v5FwCsRAUQAERh2BE4m6fz2xWZflzvwumNcZMucWhT7tdmh1GOBjT+sbQnzxXW18aaYFtkkJ50+U5q7WJp0H9wffVWG0iMFpuP08IyEuThAOv+edo0o6VGdXwhKKZt0SkQCbwFjLR8jHtLZtyJWPKeSGp/DZCrt2n8kXVXznb6kcxhaTQ5vPJgQ9CWdfGj5BljglEtUeJt0RNB0sogKjmMur5WV6Rzk3S2623I3XF91ZhDPI3yoUKPLmdjp7DDCOLlDpIKECYNMiOKHNgt/wrwvWR8SQysoCoYIIAKIwBEhcLJJZ9D0Fw4mc+0XoqVwndx6l7pRiqdyxdmawoyOQC+1VSfKpqnpXC/f8YRw9MbzJBJ4SQrEQujR8KTzTy/pFNiqQDq5k6ixWbq0D9IZkUxnVkslE3veAMnLPgF9+pPOIWi1TToPZzwQ0t+n8wf22ePL/67NblMgeeLUKz4AbE0nZyef5EJW3O4VV93uGSzwgv4Pu5umGy5VqDDASBDPI4SHgtooBEapDSmMWFufdJAwIZDpU/Jwn+Z2CbuXh1tYlA4RQAQQgSNA4GSSTv5W2wsOmwfhyr+aBCunsVHOmNsd9lLfazwPfP+S6A2WR/ClC+/TyYmFayaQ3aFsGlOQyx3k4uZ1T7hNQqLPG8y8zubOi6STEJh41Gn/kZRccTr7VgQaU2Ya7rTmshYyj2UIBbBVMh0KbbFBT9Zn9vpQtPrQx0NfTSfXrfqSThbBQF9yhTvgMNp0hLFJH+05HBJN9swfUV9mUWPHvgOLfNDoDeJ53DeUGv9uMVehb81kWGG6rww6EiRMCGSCihyJ49EncLfavTwSMqOQiAAigAgcJgInk3Sa9Kv9hzsEkgu48QmIN+SzsXlFrqyuHa74sdV+4Uknj8XoG4LeVMXtBIfgMRWW1BOBnKupPvDQ1m7SSb4B5wGtls2JweE5GepRESHEipbvxYY7v7rA6E86h6LVhz4e+pJOzqu2K391wwV7zBfTdMO1znInBJuO8EgFG8VEzGeLOi6B3Olit/4oSgjTrfp6DEMlQTwvQq7PqRD/3z1BzZIL/sMKI17TOx0kTAhkehc85Gf5tL93xeCP2iFvAIqHCCACiMABETiZpJPH5Q6wCHPEePBIY7PyULBg5l4ruywWujNvtwtfj5V8ANLJCZ8dQVMsmYcL7Wh/ph1GIZ6HierM5VQTl7eJnH2wBnOaV3LsKg/p5DxVV2QIKW+tSBSiIq7Zel/Ni8AUV9QONbrfl301nSaf/rytPvTx0Jd08r7wncr27dP1LrUxpyM26eQc1F8p7h4WbFToa7loAiJqCYsCuLMFkk5C+IR3bT5w2aTwwnjqDNwNIp0hkAksc/hPRP4y8UZjcwGHX1aUEBFABBCBo0HgZJJOHoTIoHS38dy9HkwskYD1eyyroteVjQX0tmOhR1PZrHeZGXNZIHtlyAFIJ58mLJpHhT6NPWvsUmpseRZojiYS1nrxV15uwrJJwqImlyB+O+WKLvdEIl6wxKIdGTAB3yKdhPSpyGSl3lg/Jkfv4o79SedwtBqCUh14PDjd1Zd0RqSJtxrtqD66dnNOmBDPa+wqrFAgGl7HWdj/nfoTr1JMigmKTpDnBwiPZcXwZypPR0ohFcTzCAGNuM7uFPec92jUitUQXhihwl7JIGHCIGOXO3b9VUvTNM21Tqx9dggTvHV7yhMLV6+MEWniDcRk1YQFz7x5cB8RQAQQgZFGYIRJp95eq3s3uWjFeSHS1WmgcVRvvS0XcrlcrlBaVFSdz1U3Y6Q3vcFlYGFxCFXzlsVC52qktlIrF/O5bBZKaLCF2D9Wb1saSU46qdb0ilKXpz3GfT5JuaN6ZqCb4ycSn1phwRLbylwxz+StrrZ11VkGMzrxBiI36i15Jp/LPSsvs2U+39vzezyaTvAEZestAZ9xSCfpXRGLlu+zUOf4JARO6npl9iedQ9LqwxgPzp3el3QSwhWEvqtPRe/Xd9h6pjO5TDqTe7miGuzLwNZ0gmL7MeShWmOhmMuk0+lMrlCurbf1tmd9dh4miXlCePxECSHRZDbPt2e1LUqpWp8p8P3cDYHOXuZ3itY068rmS7WmKsT2CiuMA5BPKowwYZAxiz51a565x4ig+dQ6PId4bIGuzzZHQDMWb2A4VScnphABRAARGFEERph0el0O2b5rUrCUeFzdhKDa1mZo7+azEPDIXFKyfK2r20QrtnSjuMSjalsFAFVYrdwTdEIm6XQyOKn/4FZvsQpW76cgU+bp+OSc8tElb+utHamREHI6MfWm5URwMrSN2YwTv6mbdBLCJ567SCeUE1gRi5YPcZ2ckI1cfseU71LU9CedFtqfv9XkoOPB6ckQpJOcYfOxrIBczrWgaJeuTzsdbXxUfp2Wd0RNJ+SW4vcq6+wbxxpSELz9dVZgi6zQGIsPYH8piRUFzgECRw4xo5R4XHPdKXp7zfl+G0AYsVBPOpQwoZBhBV94ALFXqfY26xqQnkqHZzcO61AE+z84kwVp4J0yPI1BSRABRAAR2B8CI0k6B2uqFEuk0plMJp28aKknBy0gbpUQ9xg3ByuIkAizzu8KJvLuEqSoU1v3WdBfsfPppF+set8LAg72rSjguoEPD1WryYHHQ+j2X55p7oFiO2DYReOpdCadSvQkTaa06VTyoGOvv9hWXYFVWRmOWpgQyLBItNTwi6jQv6HHn2Ps6qs2pduVmwFjASTiNHpX6fKpOH5xsUZEABFABI4GgS+AdB4NcPsuFVY5Mt6VEpF9lzCKF36ZrR6/tahSvUfc9VHsyuGQmS1Rq73N9GTswyEqfCfel3dAzenVUosCSne5ttt2EBJPYhoRQAQQgROBwGiTzqv//C//qv73v6r/Pfm//6+nO4bklEcqblotVGvl7Pfdp/iRIZH8IGJ0Ny0iXT/xrf5X9b+7Gh69U1qsle6MBjXqkn5oD0Sik9VGY8lZo2FoJQXBItL1Ys9bnkkffyw31qv3e/HSoW4lCocIIAKIQH8ERox0iuSSs6LJf/tPMyHwzuE51b8HCBm5RgHL7wn7l9nqq//8L2EaftLySLFEv+3oPQMOGdRovF+TErEehvJDlgaLQwQQAUTgpCAwYqTTVmratJJ3hMg7h+pUmHEyco2a/Lf/7At734Z/ma3uC8vIZYgkpqpy761WZrP3RqdpoJ/u3SS59swTm2J0WoeSIgKIACLw2RAYMdLJCeXj//P/uLJNhG34T4nSiunhl3x/Eopt7E7vr8zhv6q7pXgEEUAEEAFEABFABAghI0Y6CSH/88eb15+8vnz7f3X33/Cf6paZHxl+yfcnYVB7v+RW98YEzyICiAAigAggAicVgdEjnSe1J7BdiAAigAggAogAIoAInGAEkHSe4M7FpiECiAAigAggAogAIjAsCCDpHJaeQDkQAUQAEUAEEAFEABE4wQgg6TzBnYtNQwQQAUQAEUAEEAFEYFgQQNI5LD2BciACiAAigAggAogAInCCERg50gkLqffYUuYC61I86ZcrlTAX/DDPp5LuGM9m6SlrWfOg2uxyrKFxOp7OFYqlUqlYyGfty82F0v0ksY4l4+4g07CwejrdVb4US7J2e7Lz3M763eY+LzyVSrpDWAeAYoniFMNaJZlNKuazKTdKVqPJAVstSgvC+sYQFzPZkqbTDsZWV7rXMIflu4VMlshSLJnJF4qsm9LuK6ws/P/8xHyzpZSSX9ZqpW4MPuce3HlOH39OSQ5St3V/Ws8TXpY1YpOxCCFsoMId71q1KuB+H0yWSOyB3G5vVe+7HzGuQs5MzLfa7aX8N66jbKd3F1wqLLdab3su7Bl7WNtq1acT3UVbRyLSxFyztV7utSS9lXcY/2+W19vtteKRrWnco3eOH46BhBlmZM7nFtvt9mL2zKFjeNStPnSBP0uBI0Y6x84+3aC9tk7r9wQhEXJ9TvXNtlFgrPPU9Vl+frfuPJEj0sQbDa7qaH9mWG9ceLruWwqlZjmQS0o8rG3pnnz6RiEOfGV8ctnwnHLvfqzeFjv+5uxHdl5bzLhuiR9ebrHjxnrBeT2cujrbZkf3lEfsvSLdr++6i6fUUBvVhwl2+naVF+7NYu0by9Z9eP7WbFNskqGtFm+4Xl2H0GrpUX3Pqtr8N7SWXPxFfP2OT6168vDdndrfOG42CB9rf7MljHw1+VanVP9Hxj5EyPfZ2SbrX7tAQ10r+L0wItL1uXZnr/FrXOyboUxH4g9qirJU/PmA0v1SWlWUueywLMIYe97oUP0fWaH7DtjAz3G59GS1wwbb+7IwzH54scmfCZvFb8yBSmlH/XvaETH6ROG3xofyAT57xr5+0aS0ozzpgeL4g1WD0s3iJadyM9WnCyKxqTWd7sj3xbvVU8j4xKJG9VU/RmvnvFnZpsb7koCPfWr4E3drO5R+mD1AH/VuY3Dv9L7uSM4OJMznRubqM1lRao99H+Dfstf6ev78ocO071Yf1mP80Ft0FAWOGOkkUiJbdLY3LXg0t+UZ51DuZ/YQjKby/Nj8BpCnT/Uy373H6ZdJOg2D6is566k5PrGkUcMwvKRTby445ZspsxxCJM7ktMZcPpOMx+OJZOZhabGhvuOvmUh8ouBcPLsBpOeTYgoDJ/Lpi0K/Xn3d7lBDNyi1SRU/y0mnYRh7jec2MQCGCvJSN+k0tqrP8vl8vlAoVeQW44479UcxQi6mp2xZpsurQLu1jYp9qFjIMKLMXyfUUOvFO8l44kb2FRNbW8ycs0Q9lFZz0mlKWygUS9VVFd7Gxlb5mlURiSQmOYAz8jaca77h8tq42aRT7Mpu0nl+YhEKNz7IpXupRDyeSN0rzDdUbcni2XaNhJBvn64b1P+UmG0Y0mNXX7Up3ZXv9iAWIeSUHgHLeVdkAyBE/qPO0ofxHHX1h1Q+J51wi26Xf7LKjM8099hdSx3SCfvafPo0zxM5O6UYPMvwkk7z0deHL16eaXWATwePzrGvn24YfcirBd3Q/e+bZIRsCX99ZJPmwAh51RFlG0iYz4tM5C+gP+qof/guGzaEpPOQHuNH1POHXOyokU5X86W7Mij2VvPjrsPCToRcXwBu9a5oMzV2lpNOXak3DX05x794pPvyrtFaWdO8pNOjjBSKJ5GzD9YMpqXwPlUlyXvE1r8GvtrHLr9qUbojzyyoUKZ4w3DS2awrumEqWbk2V1Xq7S7SaSssCSFj373YACbn0rXw46AF8bstr70CerddcWxeFyaXNEr3Gr9yFA+p1SbpFKUFakhBQ9mt4rowBVrnndpdEX9CiEk6dV2njhrYQzoj0i02DD4JvJkVE00kfGgWUP/eb0qPDJ9x95CeVkg6j6IPOel8X1d2Ou3fk6yGse9etgx48FDQL1qaTnVtrd3ZsVT1F6ZWDWNjpbFH6TCTTsLHni22L4Lfvlg3qP2M9c0SfVTfpcbG0Hzw+Arpf/CoqZV/raNw9PMig6RzmMfIF006d+Un04293fqjKCGMphjNUh4In9u83oN08sdubwOW3f2W0T+QdDJmqS9nz3ffsZx0KoX8im5sFsHCfur6vEo/VXLAUz2aTpHGERIFSyU1lnMue/3Yd8z05kM6QTlB6afZlOPOaHI4Yy3PtMKH1Gof0skfFpT6mNt6k85OY2Gh3em0fuMOZB7SOT65rFO61zRJs90jvgn+QRLc6dKPuVdyo6Vqmqa1m/W5nKCH+CY7qyj1sqMS5jVIN0rLirKQEwhuJHZrurrabEMpaqtRK/4ifhZF4g+qYDS/cS71tMrrUptyyXE8iJBbM3UFtiZT4GottgM/S4VkqNheAAAgAElEQVQBTO2X8vP8whbo4PV2wy5mLmtZAFgbeKvbqqbrmtpuNeqV6bQosS+U+z8YpOm8/KymKPWZlPuLLiIxNGqPwbUmBtDVy3dc4hMylnwqW34I5zOv6ooyn3M8VbikDI16GTSO0o3ikqLUurwvovcq4f0QOOl8V8rPqxZ9vPJyy9DePi7CF5RNOjvqH4/LWx3tT6YRjD1v7O0pz5+Bq8xgpBMGVa3RhqHZbsjT6aSPef1ccqqqsNGrNuvlO1em9mleZ4gxy4zfJ6Ld89zEv6c88XSHnYEQcuEB3J5bpW4Tv5grKB39OVusyI0mNBvGZrNeLaRE8xG7UIrfKS2xO4mN32a9Wrrja3sNqoaX8mNutt4EfNWWUsn9eN/PvH4uNVWpM3FAmrfl7Pf2aI3Ep2qKsuxxVSKED8jZrGnwjUQnyvaNqCj28W7ZLqaeOnW1GrXSw6Qb6B7CdJfmeyScMFIYZHzLJ4RE4lNVuNmu+GY4k35ZVxT+UO0nDL897cei2rRhrD60u9vSdH7zY27WvBVaK+Xs97619zzYt9V9BucAj3EYwIvma0dtKdVnKXdH95RzuE5+4aTz7qWn6wazsAMvMd4VE+nBSCejblR7+//b+74fp5F9z79knWYMaDIzezKck2HUGY7IzCFwheGKMCKwIoO2AyIgdXq0hKv7RPrsdhipm6MORyLsinDU7iuR1i5BIvOAecBI7fvQvg/tl/bfc7X61tdVLju244QGOvD1Q7djl8vf+lTZ/tT3VwW/0NF9PI505pYGuy4jdkiSXklWZiSdG7VjV7o7uwPwNTy/9mbP+O108c5Y0sn8w5yNdKQz88Wlp2CG3qyJNyW0Jo9MdJUxUSSs79zqKNKJvpjui6bEzxDNMaRTv/ETuMq9RQlDpPP86rYLX7Xol1qot5ii1w4Sd1Ekd6XzCuCxhnq32+0h4/u9VfLsX6irDn1iURhZdX24uMg8Fmyj3+t2u7oBPhDoAoF3mpsHo7kz7A9tIII9pJau/azufZgzytmW3oeNieBaQ/YD/jyZxL/zeG0dL2Qi2OaAV6MHSOeJxWe21+pOpwvi2K79KOh2LDDaj5040ol+HXbIKQJZy5u1f2K3nmc+KpLXNRxVzwM/8C5Ek66YonCB0bnFu5DXGXC5nvsD2A1GLuQVhP97pBPfKuxxhhnddvdn/OzJpJM9yP++Xj4y94ebfceBJ31C0pnJnn1gwNg0Bz0YmpbjmIYV9Ok8UrwzBLsHG769vglFwLQwhU8ntpWhaq1rc+Gm+78R1X8ILyb/DN+D7nDdvXRzQn6R958/6eZQ73U7na73pLx9VJF5Z+5aD94AttGHMj19YFhO+BUXqjji54mb8BS4tgHPvv7KdiwTZnwBn87jC08AUOyErj60HNe1nzW8N09GAZMLKDUCb1d04fVn2pnspTY+3eyxjOodGNI/NZ7BVBFeRuw1Ak+lK7sqJgsT0cKoQ2mESYNMVN3escwXV5/asQPgp5VXrvt2lY2xccIA6WSvMAa8Y/qvRcm/E58+o9+3bHOg93p9hrLz+6T+02NbPXZwpnyNZ7Jnl5mfnG1swmeHCewYD8qzyTs/d9J5GF7x9kb1u2s9RuaYHTak6bT7Dxr14FZBz1FgY0tgBXMd60W3dasSikENPmfJpNP7EDJCmflyAaz2XG+nKAonnUePXnokyPGr9l+OzI8hnXN/urkJb8qwyiRO0+kFH4Rfi553GleX7kurI0jn8YUN23WFLVLGbyzp/OpLL7JB9fTWIpAoWtcrVy7tZ29Dh/4+ynoVRTl2FcTb6f9a5N+Mw4XFLdvd9XuK6Ym5ShirhS5z3TftM/gThgF47r5e97+L2Z87bxgl8lQdSDpd13pS9b6dR1jQ2N7wX8R8HWv7IOb1kyCwvVmTVJtqvsSCryXk9ndXzWazHGWpZvSm2AlozvCb7Y9wFqnjyJ/qjHrhMXOb4c6F2Ws66BHlEBDUcKPdA7QvLKwwxA/YY+h7cUhyRe5y0plXz+AU8eS9oQvMEiMUZdJZUgvARztsGgzjB4MC/UZF3kA+6HnFrJ3HLxHjoBDGJNlh8LG1BCE7UrwzYDFNMlZ+nTFd4BdQlG/A+zl5OgduS4I0yNeKfc8Jyn466lQjysTvzJdr5+QUIHOFxYETeIfguw7n6qKeXLEYepTEqcidzJdAjFx7EyNEFUU5fhPeBvIowlu71tManzNnsqfuD3dd7hOlKMoZiOa05Akbf/OHH22IQ40N81IOnWJRpNbTWsH3+DxcvFoVE2CGQ7IwkS2NOxgnTBpk4urkx3O/DuICB0Hx7zr/qAZfBnHCYIVpzOuuvSXsGBjbx2etXKjE/+laPX5w4k0SX+Mqs3w6L9veow1jb2HDct03a+eDqCRKfGBOfu6kU1VgTDt9vQ9m6+P+TJT1UFz0ukwHM7kL9/vb7NXNAlUda9BdrshvQd7ZyaQTHLlc96UXcMAeQimwQ5BONnlyhrpusU/mXBTpfN7+pQJbtdZc67PYnJ3+7dAbNpZ0sgr3LDmWFmbVGGm+wSP+9qPVXp1mv8s2T53nmJsNyWDNwVPGkk5VYQ+nA9yITzExeh3VtFJCALWgMYDgj+Ybv4BqYN6DkXccEyN/d7A3YvpXf+5uyy6z3y8+d13QVHHJw+yBxau5O10/bYJwsRW5FJB07hmQioFv0abMxLcVv3T8/ySfTu8NHp6HjK/0/ZRAWu8rMvGbLVMKiISDOZuPHqotX7X/IkQ6ytyUpbe2ytTh0iBRFJZKAtxd+FVMh2p7Tib8YMJ/QToz6Ayj66+QxUaQTkVhlvdNfbC7q1/LKuFhk3AbdiqgpsXCLB7OJ53efFKCRVGQEUZqOsfdkJ0/BPHp4cEcupKxYUe8OkJn2U983UXP9KLKJx9janJJkYkTFYZq8oVJZ5HlyF43PGDAn7qwAROek7AXu3/QmzVJjz/rpsAcScgRT608IiK9Z8RF3k4aYcLXJP6OEyYNMokVw0lIYsAngZn8pdbaWkODuFWYLkYpQeOEwRulIZ3bUt4Y79HoJzmBhJowbavDgxOrTXiNexoo82+yTxFqLkY+0yEZD+hPIp3KMcb2XAdcLSNJ53ZvqSxliIRdLxuo36nfFiv1VqfXN8CcAiaYF6PMKZF0Mm96yZPyBORIcp4x901Z0ym+E3vGb0VFiSKdTAD/j/2qtzTq/zGOdP5dSuDCSCfL4RKK2Xq3Vnuk05fUdR3joez46OOrpCGdMPs3Xed583iYdAJZ9M3BXI8Idw7pDr13XBTBAhuQ47rWZlMQVrZzq/sGXGZ5FDwA67giyQBOiGUChBqpl2s4MRB13WN2W48noYS7Uj4vRcmDMsDZDM34E95WMnrj9pNIp6LkboBe0LH6D5u1cqkQpYEcd4N9PI9c6jl3Afz+DrB8OZWYomSZbVr4JYfNl+xjxmLLrMdo6PRUocHovZCzhKcKlegCNkrN5uVNymnrk05OUCASTmUKwpBPZ4k/y65rb0BoYwTpjL+RkvmCRTQagXBdHBtC08kSGIUTHfwR5kjvQDpZ7jnuUx7dyThhjlamelcgUD57i64o9mjudK251u3p/f6Abcxc6gePYueCU0F3uV7RgsmLYysNnWBGXif4AsSnRoiN1Pltty4eati53PCUUrzC0OwxB7YySRXKi8H/eGo1vwye9/7US76K7acUZuS6+ANxwqRAJr5SfoaZg7ynmD3R7i6LtcA3oTAT8eIJyECRNKRTfmPA4zOhg0fqVo8ZnNiihNc4zut2B8uBUVWpPsABMIMWdiKdSubLhaeWg7rASNIpz27FoI/dyRavd984rhu0ALInwcseGhFIBJ6U4DS31Sp720X2qhLcRWg64U0E2X9szCsURTqd5+3LMEDLZa1UDKal9qWOJZ0st18ow6UfjcSplV8R7k3T6qB5Xc2droM7FISNRz1IKTSdiqKAGgzouCrn6UTOIXm1qnmtUrlcWzdGSSfLtTHSfGgkzoZliizvS18jtAcJ10CwwcnupMwNTr7U39/jpAFftUFtKCOd7r99DNKpZHIXlnUY1d5mGxvtyyHdeXhIvLffHo/34sHZ11dKfIa3PXoWNHAYWO2pQnnuBSGX57zLkld4qlDJi5oVyzM3a+xKdCe11nliI16Ppyzk0MjJNHzSiboc2zYxL1KkphN8dQY7joVJ3EZJZ8KNFGjjyGD2nnGep/PoVcgZHLIhYh7cREbIGxr1n2lwRSBjVAnuGoThj9EllOwNCHYU7C2mVNThTPbsfebu5ljDvq73YNNZVJxPOhVF+aq0+JRRUewm29xaq/0wkWlS9gnmgmD6FCE2Y5NiHAR35KRmf269dHlEf2iOymv2/sfxPPxOuc4/4h0S0goTumPCzzhhUiCTUKt3CjJwOzgjgvenaRg2mxAyPXHYhzuRjkOFqUgnt9pBeU4607/T0rQ65eCEj0t85jt8bIOjSfyK4BLjsf7YJYh0BnpgH0inwvMoWSFlITfdSkZzcW80uYqh5O9w70CZdIqrYLBGmdeF1k0uGdqPI52ejtDdqgeYH06sX8sh7aEKvTxKE7Q6SDqhOpUZWVw5gkrcJR3pRL211alU5eTwzNIUrpZbG0OuVGimDCsUAWq2MMHe8H4pF7HJ2j+mO0ctNfLdQFwUc+qyn9SOJ9Ry0Egn9oKaK2iVWnNtAx3v5XSqops+yA66NIAiE42V2yNpStH8BLFuqoIunqPmXe97r9/IKaybmK0jJL/n9NI84alC+axALvZdebHpb42Kn+c8QDrlS2JIp1xklHQq8TeCmTOQzoA/hvdy8DWdzLc4lACYSzJd5LiC/sqjiczklqCddyMYyCgX4HGKAZoYLBD7C233srsbnyFH1JYtlCq1RruHa3m8FYlRY2uXTrDHNpQDBKcBgnQyxw93q1GIeLJz0gsCX9roPcy9cYQLh3TLeE0n9wIKhXvK16YVRr4meT+OdKZAJrliPAu+K+DNn73as81OpaazGRpwuyg1cJwwWNcHIJ1pWp1+cCaRTgwJ6FzJRwwraVSlwfhglCHSGeiH/SGd6IYyYqKNN69jaK3DfTFRj15dBpuml+Lug5FOz4zrBjQ6SCgh+3q8ciDOMJ3QauYn6humYcbJvfXlmBXsoZSkE0mzrXchfIqvSISGxZAlPYZ0eiYzeQkZFICHO0TkEA2MIWgF+BTuDn79jjkXyu6GkCDGi71I+sx/BNIJq0Oldao7AgExYc+EEAjv9Scq2LY7P/8MYRleyoLQHZmDiv2kehoMkdFpfVAn/aJRAi2LsCrI9eBw2jP+es5L65MqAQKvYZ9JJ6824n9GOQurqQWbiYxQkE78sO32b8vTSZyPTa3p5NZ54cE8KlvIBj1agOuleKK6iBKxhzBGMGBl9rSAI7mZ5TqOQ/ZQP7ZPPhW3jyHPssmCc2VBOpGDCqeOuJog/JTFzWxWsxA9Jq9qEbomnlrhbNZfUCB0IffCSiPMyKUxB+KESYFMTI3Bw8gvb1UfWaDjhGfzVfuXZbBceTlu5eJxwmAZfBwis1Dj2h9uMMx/Ck1nilZPMDgTSCfXK03gbyoDdQD3iXQGOmVy0nmy4q2B5NeDGc73WBy6f1QEqYxoOr235Mh8Dk1+aGP9gKRTOXEHlumTF7iDxFKuKwJ7FWUfWs2DkwKkk3uUu3LMB2KYknTyNaJgoSZBOhXlJHOB8oPBhbk8xETBfdaLBIrQPaDO5jlPgCI6V83m5A+5oqCH7ot265kTdjdUvDAX8+FIwousUIdMQDpxqcOp0s0I+RVFYdaiwExDOhte6cDj61E3PbH4jCUwfRD0CZYq259djOkxTTsQpyzXjVZ1xzSFnV0+i/v4iJmmKWZ3I2U8qzokx4lShY6Ulw98ONLJSYYlhT1lr7A8QYJ0erMm6T3DF02Y2qeTq/qknL5y+2EaictzcN/Z0Fn8+Q6fVZXlgwvE+B9j04PAgiDh8etlBh19yUSKJwspO2fPsamX7BWA0WnbvRtSmgd2tSqebO8OqH3XW+1h4L0avn8CtTrGEn2MRIhms/xNlF6Y8F1jfscJg92XjExMlYHDaEkfDq2dHqzqDBAZQ8Px3KADReN1wLwYOs76yw3y4/Af+aKcW2oK0pmi1ekGJ5Ms4Y3KfMZ2Xef1Cs9LINoS/uxgzg2WQXqjnjAPFBV8nJ1PlXTmf2l3mX9PH1LXufYQvX26d/FLz2MCwosHRpJOx9xiVUl/up06W28XBqvjOuZWt71Ur0K8+FIb13K0HvlBr17Xxun8UJi9QcjOy+y5ELkCsQ4fknRmshcesnWBht27tWr1VusJS//npzHbl1bHkU7kCmL2f7i0iB3ZY45avC+6a7UfEFY0sIovK3M5AD0cbFzTqSgKZIeBBCfWoHOX9VR9uQcZN0fnBvg2CfpT8h7MXkJkBp27tYqmaWWwNutDa0SrjZlWQQbpGy8ecS/tpbnZrlcgRq1SbbQe9U1bKJzSk05FmV+GxWDtYbfdZCuEigVCxe3S7HzDjDiOubXWwmoui7RQmS8u9Syj32nVq2WtVNIqjQcDiCsS0sr1M3+1APLy2X3cxywnLP1qnM4Y8yLBwrNxbiGYFwm6iRniI8XDAebCEgwjZCLyAv/ghySd4BYGOTjtF2v1iqZVbq09t9lSmvKjcZxlmnSGjxsVTSvXIO0Gm51FdqXfjpi9jArqVTkB7WhBrsIJ5GoIFcPwbTmwI1Qg4SdGlTnDh42KVtLK11sbpmNZkL7SN68fOrtqmINuewnH7+U6LkccoKoJt+CnkMQ7Zu9utayVq3eemt5SpVLirfx1RvSt/oNGFZ7scrXe6jwzbEMqA/V5bzn2kgolnVWUbLECyxjXarVbnZeu65q9u3X8XT0t0dn5pT4syGcNvHtVas3OwJTcSNIKwxsY+T+NMGmQiaw8cBAW62JvTGwCvodZJhAx/08jDNbJF2oePPTeZ9XTnI3vD+lk0YrbkJE1fjykGZwcgqTX+JFTK+zRNnqt6/DZ0Sq1xkpvsL3D3bV5JZC2BaJd3yE0UFT1/nY+TdLJ6R2gH9w8Q8xEpDNYA/4SqVVOXu9gBmC/lGO9iPRS51KFnX8xnDnKkRFjR0D/9CFJp6IohwsLD3HVdtYsx9paKcvJlveh1XGkk+XxfgPrcLKoDgx08MHle8I1bZR0KiwNFhSUSCc0qrjwcOBlF8BmmfpyhWfUk56xPGSGs59GJvxnITVSSALcxehLy11gPdw1FpiKeNlJt1B/rK0HZGHppJssSwjyZraiuvypjg4kYp119QGkTfDifJId7CQZQrvZc81HA9P2apG+2Rnl1N0+5J32N8d81rooff9EVZjJJdpULQrty4732Xa2QivcypV79uUo85woxnyzvJAjcTC4g+5xyWs5Bq/wfn1Q0gnZ+yqr/lNr/75WX4GlbgNfpuy5Fssojg+A8fh6M25FosgWBQ5itFbUi8svxl5ub0eir/wCLHwKHreE7PFy6ZH93OU19NHEJr1+Uj99e2NPJp1zhZtPDTGwoZhjvVitTrwCTUY9teSH0zlv9F+XIF2aMK8z0dT85fYzlqeOPy6QvH25En5ackxH6+kUgo2KjQGCNavkomrheue5/Eazjc2GrA9LK4xcaWg/lTCpkAlVPPKTa+LFbIGlBw6sTpdKGK9i9eStTl90OyZ7wVP7oukELf748TB+cAoYDheSXuNflRYf+882DC3bHIwuPocaU5YW18/eKm5xQHZmmnQeEAwhAiabLxS1MsSLT5eQ4+A0RZIkWyhp5bIWGwE/k61Wc0XWqqTMPyyuK5SFR8JFUZRsHrpbKxXfqbvVHCJcKuQPvke4mitw5KSsQEFYFPxOvF2Vv3yhIvv00/NQjOb03j3QiJmoxkNHiMQIOabPQ4PDPsn+PquBaC94aOP7SFHYg62V4jJbpBSPQRdcMiB0JahCTXd34C1OGzqLP7EfX7XPxLuLR14XOIiNhldVfC1qNs/Gb3KpQLWRP7L5kgbv+ai5pLhAPNnF9/9k83vF3ooXgFwm8fgI2afeSYXM1LUf1AvHtjrN4EzZODVf1NjTXQj5c/Hrv2GrCexMbJPh13+Q/0Q6PwjMdJMZQwDWboEERu/zHT1jkKQQF1MifJBXXvYKKJmsEdOkL2VGxZWfAgsp+afZ3tw8LMkjr/UQKgDLUDHnuVCmodFin9sRsH46TrKak5kX364nLZfK+tF+Wg0rAj83OKm9hMC7I4BpPSK8P9+96n2sYbZJ58n/9j/+1fzPfzX/89L//L8hUOiUDAihkRINUSxTWGh32jU//Y04QzuxCBzR7vUHvQZzd44t9G4nMrmztUZzuQsW1d1hRFgrS8pYbTRaD/uw3La05pB8Y/XHSqPRXNPBDmo9Yak65dNsf75cbzTbPfClsLfE4ocjxT7TA99V73XWbiXOynIXm+ud5sUElWBGPdVY67QqE1u6P1PQqdmEQBIC+evd/rO1Kwd8BjdjpFMml0ikLv2v/+ftSLyTThFQMBWZcGwkPc6zdk7N5QvjtiQL7EFtL2a/Aq+8wYO4xavYYiHg9fSye0uEQwUbhA6y4I/7pOlHGMhlMKAV/P/MrVbAoVkuRfuEwGwioObGvR72y+cnm+ZOBwfET/XNeXAQnjHSKZSaglYilDLvpFOEBjLOicbGwXkm90WS7yr3OrimfezfGdXjqtlsVk12e4AiY7zXVFZNMtQpiiRXQGcJgQOKQKawsBb7ZsATnVZFDh6dsiEZ5VRj3Juo0zyXoA6f8sbTXvbpvjmnRWS/r5sx0ol06vr/+Q+ZVSAmdEoeG4TGRGjIhWmfECAECAFCgBAgBN4HAjNGOhVF+a8/nDl1Y3n+/H8fhYNOyZgQGunRkEvSPiFACBAChAAhQAi8DwRSkc73cWOqkxAgBAgBQoAQIAQIAULg80GASOfn09fUUkKAECAECAFCgBAgBD4aAkQ6Pxr0dGNCgBAgBAgBQoAQIAQ+HwSIdH4+fU0tJQQIAUKAECAECAFC4KMhQKTzo0FPNyYECAFCgBAgBAgBQuDzQWBi0pnJna03LuenRIgtfK1FbHwdYDVf8s+WSsV8fAJrNVeq1BvNZqNe1YJL7sJqqJoWXh6X3ztpfd4pm3WALztyYXVoGI9qxz6ijGdazwxjs/HxVvc5dGrFsMWWtHYiQ2l+STeMwXLpI0JGtyYECAFCgBAgBD45BCYmnYdOrhjW43JycuZYmObvDvfcqG2n+7OqKBnl7EMrfNo2NkdWBFHPNJ8FCtovWtpXeNvMF5ce21DJnvk3zZcke0PfZVW/br3PZfr8Gx6MvaNXNxzXfd44/j7E+bqyovf1lnY4ufKfO9uu+3rl48GeyV2oN5vNZuu+/sZ1nY3qkUSBT9439lz7f087yBPrppOEACFACBAChMDnikBK0qmea663Kt+piiKRTlhat1X5ehLokHRa/fZSI7jVNVh+l5PO191GrVar1RvN+71XjEC+XZWYzdcXHgHjtDablR8L+eLFxhNYQtnerLE1Rz3S6TiOa4mrMl8u6A4ccl0inZP0WGLZPy4+d113o3Y0sZTyrbbQaFRLB2DRie9B4LGkM1uqNhr1c9Oq85PBoLOEACFACBAChMBnikBK0pn9sbbat2xTX75cXTWsx7XynaeGbQ0e1kuefjEdfkg6Y2kfJ51bdZ+gqGfar1zX3e3f5sfyS4Nd17Ue+XxXPb/2xnXdV62fgLmiptPc3DT2tjv/jDrZbxY2HGfraX+XSGe6nkpVKiXpTFXXBymUjnR+EFHoJoQAIUAIEAKEwGeGQErSyVBR8xebj4ZM8Qgm78oPk9vYpyCdTLcq2crn/nBzC/SaAevnoVOrpuvuDf8lz0nnnvnb9dbLPevvGkiZu93f3dVv3+rtTEw6Wav7Q9OybMs0hoPeWvPihDqwk0tdXV/7pVhceNA3TMuyjEG3eZGpZQPD7Yf6uq53aoXD35bvdFhJ0xh0W9Lt1Pzl5iMmjGWZQ31tSRup5aviwpoO4lrmoNe6eGIhYF7P5C61e71H9R+lG2cvtp70unfDLoxq4XJzXR8aFlQF7a5roOpWFGWueLOrw9Y3YDRYQ/YD/vSa2pyoea50pyfO6A9q+Yw4Je2oP1Tv9QYMFssY9O7XioFpzNfle7qut7SvfqiueM0aPm1VQC8+xZZMOk/UH/nydpeKIzdIKwyMmXWpm25NqOVlA6ZzqxAUIJO/ugYQn/OeO7Vwsd7q6IOhYVq2ZRlDvbNUjgY5WNHIr7nSYk/XVyrfHi5cWu6yzjCH/Y4YXdkfK412t89OwFMAg6HkrcucyS+s6XqnfmKkVjhwRIMx0CrLfapmc3nYxqyOHlkfHSQECAFCgBCYYQQmIp2FX1obJiOdjrm1VvuRqx7Tt38q0nlqBQil+RuyokNnVy3X3Rv8KjO/zJcLWy4w0YrqaTr3zN9OF+8M3X9fLx+Z+8PNvuNs1I5dmZh05q71tqFio9/tdLo9fWBYjrNZm4Rue5pX2zBtxxrq3W6vD94A7pvOlRCATF/7ttvumq7rWMZgMBiatuNsVr3bzd/q76AwvW63N2C1mI8rEu88UrwzhLrFfRzTMF3Jp3Nu/p7hujvdK1IL8r8O9lz33/hdoDczuUsPDKjINrd63W63pw8tZ8/8W4l19VxxsdeHbcBIp22wH/BHb8mkU7ujszNDy4nx6VTPtF6y2xh6t9uFm7iu83qFu+cqivLHm89c1zX6oGcf6L0e8lzn9+kcc5NJ54+NRygv89YIzGpwiKcRJpM9u8xmZraxCcgxgR3jQTnU2UkPTRYHasgL9vs7L13XeVb3YsJwouVYw36v2+14N3KtzfrkvPPopSeO6w477U0bunyII8+11svg/MoHsDnUe/AU6Djy3j6qAO/MfHH1qQ3PozQM/bb9tPLKdd+uSqMio5y6D0PS3e78s1+O9ggBQoAQIAQ+AwRSks7s6V0MJsEAAA0ASURBVPr60LKN3t2LFQgkqmo3Hw5te/i4oXkKj3RYxfh01j1lXpR5PXulA6bzN9xQjpExu/o1iTbx76K7Vc/5pLOkFu4O97Y7Px+/+QyYYladlHTO/Wlx4Lq7QYKbKxZlvju24d4323XfdDnLVE8uD3fhY1wKKP8Y6XQcx3xS/5G3Ts1rGmq8jjGd5U7/NleAeYxtuwMxWGzLL4H/gIVsAPRMxTsD4HR+IFE60pm7Buzcedk+LzGlnFYthxqe0rweF0g0N88osvW4ygnL1xfWYYJh/Ca0jMjzXHurzoPfv1987rjum7V/Gov8aIFk0snLxwYSpRBGZY0NQHd8YcMCgc/zbuL3if9/9NIj23XftM9IRdizA8PYO5bJa9XKD/wXHDy28MQGMifGg3R14i6STsexX3WuiUQQhwtayeOv8+XaOXEcVN2FxYHj7hl/Zd2Ug0kLm++N3AQsDK7zj8B8hkjnCEx0gBAgBAiBzwSBlKRTPd1YaTJ+KQUSZU/XV5oBw9lY0JB0siBy+Q//LHHSaQ1AvSb0RO52f1njX9dvmOprtyfr6kQE0u/NfAZJHmpGT9x56Vib+mB3V7+WVSYmndBY12XXjm1abAFOOn9vctqkKMo3V4EfhJgTeqbuCG4aqDIL3+8gT818cekpqKY8ndzcH4Ai7w3/ylmpoijqlS4oR0X0ehrSiVR7z/BUywEpgj/ekXSeANWd+7IpW2YZTXHfrnA6jjxve+28uLPXzP4NPiLEmfE7+0I6E4TJfLmw6UDahJJEMEG3Z+ztWXIuhTGiZtQLjy1WDy84N39v6Lo7vWsJrQaloxM2AvAKkv4j6YRsD5LYSReAv8qey1X+zOvay06QyV9qra01mK4aWhGhBJ2/1RsOh8ONJnhg00YIEAKEACHw+SCQknT6gEik0z+Yeg9J59tu7ZyfjVPKqMlJZ4CQvundLkjfQk46g5rO/3KB5VoKk07QpUFl9kb1a2BgE5rX8dsP1urucr2iFeKThiYg4JFg6+9lqdDcn0CwPT86Cs6hpvNJVEKfjHL2ARjdA0ojRUHLOLRaUZSjF9YtMJ0HFF3ICycinUhB0lg/3410YndY65LtVVEUZpB1NmpeVgQkncKmjPbcTeZfwdWjEqzjdveFdCYIc4h1we5guRLYqg8gU5gcHjdOUEU9D3mmfMP0T/deua79BIaxtGWL1cZKt6f3+wO2GeB54ikgpWLjdlP0eO50rbkm3wncbF40WB8wvaxn9//+DiQ02GXkGGc4QX3tOFHoPCFACBAChMCni8DEpDOTPVXj1vDJYUHSmTp6PVv8pfPKcd3t3jXBMI5eBf+zXf2GREQl83pWMq+DfPmlwY5jPa2Cgmhi0qkoylelxafMcxGJsA3OrJNFUHmkUzIZg4Hyy5tbLPJJ0koi6bRkBziBsM9c5WYr6o2NPeEuiciEtKdHFzYm1XQirX/Z+rO4e9zOO5JOWXhxC+a56KtmPdLJOahMOkO2flFDws7+kM54YbAL5DmTtP+iMYm35aGzEBvHjfInl1nq0IrU+4eLi1vA/MD7t6/32AbelrJzQgIU8ikknXE9nsmevc+8VMF/VMc76UNIWuaRThjMDs52QFFtGobNUvlCygjXflRJzooqC0L7hAAhQAgQAp8yAhOTzncDY0LSCTebxwRJGNOgKIoIVJfpGnI4NDR7/IwHHkkCT0M68fJsoVSpNdq9lyyMKpA0VKo/epfL40XhYCHPRhz0FsVAopCjJ5bPoCo37DmXBSun+7rFDPfoCBjSUCKDnEzTyZxH0yio3pF0XoN0/WHH1j+3wOYutIkzRjrRF7NzJZ8b3SaL1s4opx6YLqZfQDeP7YAO2/NDWGfRPN4gYe4W05POgJ+DP5iZkjXgpaooOPA80qko88vGHmhYs1d7ttmp1HTbXNUOg7LWATdr2ggBQoAQIAQIAUVRDj7pVI6eheASEc2T+fLqJqRMeipHJ6BlebcPIbSc5I26JE5POsVYOb74DKJYAhEe4mT0DsoDDnCSOx7G4O8EPVMTSKei5NliTp4lHe/Ebe5ezXMnITJdSmgKpc6sQBiWRDrBrL/b850TkNzI0euHWLqA3f7tsWzh3Uincgayq/qWdNYodEK1H7G4aRG9/ixeuRgNeszRdAKPCSRKEAbdOXb1afxNR0VmngYQQs460Yslx2LeIDdk/10F/T73m3QivwxwR2/gcU0neIYwfnmr+sgCHScQ4lftX5aHjImONoyOEAKEACFACHyWCMwA6WQmcgjK5srO3A19B9w0ee4YRclegcRGDlKr/SSdqirZM2GAYADQq/Zf0o8Wj3RKyW4U8Ngb5VtoXg9r/sSNGAVxX7IE+HjwKIv19uk4043JuqWMyjxBJdKZ+YJFukhBQkdYilOZdGLgi+u+XpVSF4F3Qjasq0NrMubkF3KO7sRFr4upgjCUZ3KQfwdmFJyg76+m8+gFiAoXSwaMisqOTE86FWX+7nAXsj6VwkuDZnO8STF3HT2Ms4jt7vJDk63pKo1FL9LIS0OLl2Z/Znke9pt0qmz92IBLzDEWBifM6/BcMEv6cGjtsPkMZBgwhoYTGUqfvd7btixrO5C3a7T1dIQQIAQIAULgU0NgJkin8s0lWPdSsKsjp+5BEknnda91q1qt3e2C1VvE3u4j6Tx0dtUwB932UrWslUra5frKFriyBT7AY0eERzodx7F/7zYua1r5ehsWjt8zHoSChRM1nUomtwBpFB1Tb10va9rl+uoAjP1v16UEAsdvPoMiw8eNiqaVa/f727j0p9B0Yp5813WM7t1qpfxLfbVvWRbUE8jTCamLPISvVzRNK1dvtTeM4X3M0yma7CXqd17r7SZb1rTuJydXC2VYyhRWM70/2HFdS2/d8g6wJU9ZJeg74Ri9u9WyplUaD8F30HnZOiP41f6STs7CrUG33YLNT9ueyWueePXWpuW6zou1unegXPAYZBphjpxagVSpttFrMei0Sq2x0hts7wS9kAWGiTvzyxCBBFvIVRcmWl2YaJm9u1WtVCpX73Zf2bZlvYtPZ4x5/Y83QbvvDB82KlpJK19vbZiOZUk+neCjzALjhN6aB/CF1NjYVhb57rp70wCSiBadJAQIAUKAEDjYCMwG6VQUFkjhKzuV7yorA8gk7m328GGVM4N9JJ1zhZtPDdu/DURtvFitTrYcjieP8XCp9Zy5hILMtvG4xgUWIySZdCqKcjgY1eTav3eqoaim7LkWMFrcHOPx9WZgRSKopHBTF9A5Zq9x+e5IcnhFUb7VYKVTXhO0/PnalVGD+3eVe/rQ4hj5y5oDH/UvDuwFjPvZs8v6Gx9hx3rWvizfJQ3PEwCm2TlcuPqgb3KB/eCehBigSR1MvyotPsaVu3i7bXMQXAUqjaRQBrNKuVIOKXElZKHvbwvoHHOzqVUhRVEwZE2UT9jxAoliSKei5C6voTcza4/z+kn99G2IYBM+nYrnpOGII0xb7AbShHEB8Fl2gqmy+En6TwgQAoQAIfDpIvCBSef+ApnNF7VyWSsVJjZcTiSHms0XS1q5XNaKcobstHVw0gkJz9Uck7j4rdDkpa3FL6fmCiCNVsrHNjsLJZIKQB2sPbFVePcTEE+VLcoXOnkPYZkS3+SqP95ZNV/UoJ+KhckN6+mlzkJHJvZ1+roSS6q5wvTPgFQzZoF1rceVcWNPuoh2CQFCgBAgBD4FBGaadM5GB8ikczYkJikJgfeGAPP+dJ7HalXf242pYkKAECAECIGPjQCRzvfeA0Q63zvEdIPZQeCnxpOBvhzyZp4d8UlSQoAQIAQIgekRINI5PXZqLl8Yt+VUnsJpck+76SX7bK5M2QUHB49sqiGzD/LOHDL70GaqghAgBAgBQuBgI0Ckc/r++a5yr4NLxMf+bddY2nY1m82Gky9Nf1+6UiCQvgvEJR91J3uxuR47WPBE51YoRcB0As8aMtO1kq4iBAgBQoAQmCUEiHTOUm+RrIQAIUAIEAKEACFACMwoAkQ6Z7TjSGxCgBAgBAgBQoAQIARmCQEinbPUWyQrIUAIEAKEACFACBACM4oAkc4Z7TgSmxAgBAgBQoAQIAQIgVlCgEjnLPUWyUoIEAKEACFACBAChMCMIkCkc0Y7jsQmBAgBQoAQIAQIAUJglhAg0jlLvUWyEgKEACFACBAChAAhMKMIEOmc0Y4jsQkBQoAQIAQIAUKAEJglBIh0zlJvkayEACFACBAChAAhQAjMKAJEOme040hsQoAQIAQIAUKAECAEZgkBIp2z1FskKyFACBAChAAhQAgQAjOKAJHOGe04EpsQIAQIAUKAECAECIFZQoBI5yz1FslKCBAChAAhQAgQAoTAjCJApHNGO47EJgQIAUKAECAECAFCYJYQINI5S71FshIChAAhQAgQAoQAITCjCBDpnNGOI7EJAUKAECAECAFCgBCYJQT+Pwg8ZBIgY4jxAAAAAElFTkSuQmCC;" parent="1" vertex="1">
          <mxGeometry x="1270" y="844.19" width="375" height="87.86" as="geometry" />
        </mxCell>
        <mxCell id="BoX9NHfvs7r--DL0Gee8-93" value="" style="endArrow=classic;html=1;exitX=0.5;exitY=1;exitDx=0;exitDy=0;entryX=0.5;entryY=0;entryDx=0;entryDy=0;" parent="1" source="BoX9NHfvs7r--DL0Gee8-44" target="BoX9NHfvs7r--DL0Gee8-89" edge="1">
          <mxGeometry width="50" height="50" relative="1" as="geometry">
            <mxPoint x="1440" y="500" as="sourcePoint" />
            <mxPoint x="1490" y="450" as="targetPoint" />
          </mxGeometry>
        </mxCell>
        <mxCell id="BoX9NHfvs7r--DL0Gee8-94" value="" style="endArrow=classic;html=1;exitX=0.5;exitY=0;exitDx=0;exitDy=0;entryX=0.5;entryY=1;entryDx=0;entryDy=0;" parent="1" source="BoX9NHfvs7r--DL0Gee8-91" target="BoX9NHfvs7r--DL0Gee8-52" edge="1">
          <mxGeometry width="50" height="50" relative="1" as="geometry">
            <mxPoint x="1440" y="400" as="sourcePoint" />
            <mxPoint x="1490" y="350" as="targetPoint" />
          </mxGeometry>
        </mxCell>
        <mxCell id="BoX9NHfvs7r--DL0Gee8-96" value="Data Source" style="swimlane;fillColor=#FFCE9F;" parent="1" vertex="1">
          <mxGeometry x="950" y="-230" width="670" height="310" as="geometry" />
        </mxCell>
        <mxCell id="BoX9NHfvs7r--DL0Gee8-71" value="byoai&lt;br&gt;Inferencing Worker" style="rounded=0;whiteSpace=wrap;html=1;fillColor=#E6FFCC;" parent="BoX9NHfvs7r--DL0Gee8-96" vertex="1">
          <mxGeometry x="460" y="90" width="120" height="60" as="geometry" />
        </mxCell>
        <mxCell id="BoX9NHfvs7r--DL0Gee8-97" value="" style="rounded=0;whiteSpace=wrap;html=1;fillColor=#FFCE9F;" parent="BoX9NHfvs7r--DL0Gee8-96" vertex="1">
          <mxGeometry x="50" y="70" width="330" height="230" as="geometry" />
        </mxCell>
        <mxCell id="F4LtBCqEMJ21seOdK-4i-1" value="mes_workorder" style="rounded=1;whiteSpace=wrap;html=1;" parent="BoX9NHfvs7r--DL0Gee8-96" vertex="1">
          <mxGeometry x="80" y="120" width="110" height="30" as="geometry" />
        </mxCell>
        <mxCell id="F4LtBCqEMJ21seOdK-4i-3" value="sku" style="rounded=1;whiteSpace=wrap;html=1;" parent="BoX9NHfvs7r--DL0Gee8-96" vertex="1">
          <mxGeometry x="80" y="170" width="110" height="30" as="geometry" />
        </mxCell>
        <mxCell id="F4LtBCqEMJ21seOdK-4i-4" value="workstation_v3" style="rounded=1;whiteSpace=wrap;html=1;" parent="BoX9NHfvs7r--DL0Gee8-96" vertex="1">
          <mxGeometry x="80" y="220" width="110" height="30" as="geometry" />
        </mxCell>
        <mxCell id="F4LtBCqEMJ21seOdK-4i-5" value="" style="endArrow=classic;html=1;exitX=1;exitY=0.5;exitDx=0;exitDy=0;entryX=0;entryY=0.5;entryDx=0;entryDy=0;" parent="BoX9NHfvs7r--DL0Gee8-96" source="F4LtBCqEMJ21seOdK-4i-1" target="F4LtBCqEMJ21seOdK-4i-6" edge="1">
          <mxGeometry width="50" height="50" relative="1" as="geometry">
            <mxPoint x="340" y="380" as="sourcePoint" />
            <mxPoint x="390" y="330" as="targetPoint" />
          </mxGeometry>
        </mxCell>
        <mxCell id="F4LtBCqEMJ21seOdK-4i-6" value="v_mes_integrated" style="rounded=1;whiteSpace=wrap;html=1;" parent="BoX9NHfvs7r--DL0Gee8-96" vertex="1">
          <mxGeometry x="260" y="170" width="110" height="30" as="geometry" />
        </mxCell>
        <mxCell id="F4LtBCqEMJ21seOdK-4i-7" value="" style="endArrow=classic;html=1;exitX=1;exitY=0.5;exitDx=0;exitDy=0;entryX=0;entryY=0.5;entryDx=0;entryDy=0;" parent="BoX9NHfvs7r--DL0Gee8-96" source="F4LtBCqEMJ21seOdK-4i-3" target="F4LtBCqEMJ21seOdK-4i-6" edge="1">
          <mxGeometry width="50" height="50" relative="1" as="geometry">
            <mxPoint x="340" y="380" as="sourcePoint" />
            <mxPoint x="390" y="330" as="targetPoint" />
          </mxGeometry>
        </mxCell>
        <mxCell id="F4LtBCqEMJ21seOdK-4i-8" value="" style="endArrow=classic;html=1;exitX=1;exitY=0.5;exitDx=0;exitDy=0;entryX=0;entryY=0.5;entryDx=0;entryDy=0;" parent="BoX9NHfvs7r--DL0Gee8-96" source="F4LtBCqEMJ21seOdK-4i-4" target="F4LtBCqEMJ21seOdK-4i-6" edge="1">
          <mxGeometry width="50" height="50" relative="1" as="geometry">
            <mxPoint x="340" y="380" as="sourcePoint" />
            <mxPoint x="390" y="330" as="targetPoint" />
          </mxGeometry>
        </mxCell>
        <mxCell id="F4LtBCqEMJ21seOdK-4i-9" value="psql" style="text;html=1;strokeColor=none;fillColor=none;align=center;verticalAlign=middle;whiteSpace=wrap;rounded=0;" parent="BoX9NHfvs7r--DL0Gee8-96" vertex="1">
          <mxGeometry x="70" y="70" width="40" height="20" as="geometry" />
        </mxCell>
        <mxCell id="F4LtBCqEMJ21seOdK-4i-19" value="" style="endArrow=classic;html=1;exitX=0.5;exitY=1;exitDx=0;exitDy=0;entryX=0.5;entryY=1;entryDx=0;entryDy=0;" parent="BoX9NHfvs7r--DL0Gee8-96" source="F4LtBCqEMJ21seOdK-4i-6" target="BoX9NHfvs7r--DL0Gee8-97" edge="1">
          <mxGeometry width="50" height="50" relative="1" as="geometry">
            <mxPoint x="340" y="380" as="sourcePoint" />
            <mxPoint x="390" y="330" as="targetPoint" />
          </mxGeometry>
        </mxCell>
        <mxCell id="BoX9NHfvs7r--DL0Gee8-99" value="" style="endArrow=classic;html=1;exitX=0;exitY=0.5;exitDx=0;exitDy=0;entryX=0.5;entryY=0;entryDx=0;entryDy=0;" parent="1" source="BoX9NHfvs7r--DL0Gee8-97" target="tyIjnCwoIcwFDJeWjVvG-2" edge="1">
          <mxGeometry width="50" height="50" relative="1" as="geometry">
            <mxPoint x="1440" y="280" as="sourcePoint" />
            <mxPoint x="1040" y="180" as="targetPoint" />
            <Array as="points">
              <mxPoint x="895" y="33" />
            </Array>
          </mxGeometry>
        </mxCell>
        <mxCell id="BoX9NHfvs7r--DL0Gee8-104" value="" style="endArrow=classic;html=1;exitX=0.5;exitY=1;exitDx=0;exitDy=0;entryX=0;entryY=0.5;entryDx=0;entryDy=0;" parent="1" source="BoX9NHfvs7r--DL0Gee8-103" target="BoX9NHfvs7r--DL0Gee8-88" edge="1">
          <mxGeometry width="50" height="50" relative="1" as="geometry">
            <mxPoint x="1440" y="280" as="sourcePoint" />
            <mxPoint x="1490" y="230" as="targetPoint" />
            <Array as="points">
              <mxPoint x="1030" y="500" />
            </Array>
          </mxGeometry>
        </mxCell>
        <mxCell id="BoX9NHfvs7r--DL0Gee8-110" value="" style="endArrow=classic;html=1;exitX=1;exitY=0.5;exitDx=0;exitDy=0;entryX=0.5;entryY=1;entryDx=0;entryDy=0;" parent="1" source="F4LtBCqEMJ21seOdK-4i-22" target="BoX9NHfvs7r--DL0Gee8-109" edge="1">
          <mxGeometry width="50" height="50" relative="1" as="geometry">
            <mxPoint x="1400" y="520" as="sourcePoint" />
            <mxPoint x="1490" y="330" as="targetPoint" />
            <Array as="points">
              <mxPoint x="1450" y="490" />
            </Array>
          </mxGeometry>
        </mxCell>
        <mxCell id="BoX9NHfvs7r--DL0Gee8-112" value="Elasticsearch" style="swimlane;fillColor=#FFCE9F;" parent="1" vertex="1">
          <mxGeometry x="1830" y="65.14999999999999" width="240" height="249.7" as="geometry" />
        </mxCell>
        <mxCell id="BoX9NHfvs7r--DL0Gee8-55" value="s_production_line_data" style="whiteSpace=wrap;html=1;fillColor=#E6FFCC;" parent="BoX9NHfvs7r--DL0Gee8-112" vertex="1">
          <mxGeometry x="70" y="44.550000000000004" width="135" height="43.12" as="geometry" />
        </mxCell>
        <mxCell id="BoX9NHfvs7r--DL0Gee8-114" value="s_mes_va_data" style="whiteSpace=wrap;html=1;fillColor=#FFCE9F;" parent="BoX9NHfvs7r--DL0Gee8-112" vertex="1">
          <mxGeometry x="70" y="134.55" width="135" height="43.12" as="geometry" />
        </mxCell>
        <mxCell id="BoX9NHfvs7r--DL0Gee8-115" value="" style="endArrow=classic;html=1;exitX=0;exitY=0.5;exitDx=0;exitDy=0;entryX=0;entryY=0.5;entryDx=0;entryDy=0;" parent="BoX9NHfvs7r--DL0Gee8-112" source="BoX9NHfvs7r--DL0Gee8-112" target="BoX9NHfvs7r--DL0Gee8-55" edge="1">
          <mxGeometry width="50" height="50" relative="1" as="geometry">
            <mxPoint x="-390" y="254.55" as="sourcePoint" />
            <mxPoint x="-340" y="204.55" as="targetPoint" />
          </mxGeometry>
        </mxCell>
        <mxCell id="BoX9NHfvs7r--DL0Gee8-116" value="" style="endArrow=classic;html=1;exitX=0;exitY=0.5;exitDx=0;exitDy=0;entryX=0;entryY=0.5;entryDx=0;entryDy=0;" parent="BoX9NHfvs7r--DL0Gee8-112" source="BoX9NHfvs7r--DL0Gee8-112" target="BoX9NHfvs7r--DL0Gee8-114" edge="1">
          <mxGeometry width="50" height="50" relative="1" as="geometry">
            <mxPoint x="-390" y="254.55" as="sourcePoint" />
            <mxPoint x="-340" y="204.55" as="targetPoint" />
          </mxGeometry>
        </mxCell>
        <mxCell id="BoX9NHfvs7r--DL0Gee8-113" style="edgeStyle=orthogonalEdgeStyle;rounded=0;orthogonalLoop=1;jettySize=auto;html=1;entryX=0;entryY=0.5;entryDx=0;entryDy=0;" parent="1" source="BoX9NHfvs7r--DL0Gee8-75" target="BoX9NHfvs7r--DL0Gee8-112" edge="1">
          <mxGeometry relative="1" as="geometry" />
        </mxCell>
        <mxCell id="BoX9NHfvs7r--DL0Gee8-117" value="CREATE STREAM AS SELECT&amp;nbsp;&lt;br&gt;&lt;span style=&quot;color: rgba(0 , 0 , 0 , 0.87) ; font-family: &amp;#34;roboto&amp;#34; , , &amp;#34;blinkmacsystemfont&amp;#34; , &amp;#34;helvetica&amp;#34; , &amp;#34;arial&amp;#34; , sans-serif ; background-color: rgb(255 , 255 , 255)&quot;&gt;&lt;font style=&quot;font-size: 12px&quot;&gt;Create a new materialized stream view, along with the corresponding Kafka topic, and stream the result of the query into the topic.&lt;/font&gt;&lt;/span&gt;" style="text;html=1;strokeColor=none;fillColor=#FFCCCC;align=center;verticalAlign=middle;whiteSpace=wrap;rounded=0;" parent="1" vertex="1">
          <mxGeometry x="1275" y="762.5" width="332.5" height="73.75" as="geometry" />
        </mxCell>
        <mxCell id="tyIjnCwoIcwFDJeWjVvG-15" style="edgeStyle=orthogonalEdgeStyle;rounded=0;orthogonalLoop=1;jettySize=auto;html=1;entryX=0;entryY=0.5;entryDx=0;entryDy=0;" parent="1" source="tyIjnCwoIcwFDJeWjVvG-2" target="tyIjnCwoIcwFDJeWjVvG-14" edge="1">
          <mxGeometry relative="1" as="geometry" />
        </mxCell>
        <mxCell id="tyIjnCwoIcwFDJeWjVvG-2" value="psql source connector&amp;nbsp;" style="rounded=0;whiteSpace=wrap;html=1;fillColor=#FFCC99;" parent="1" vertex="1">
          <mxGeometry x="850" y="158.75" width="90" height="60" as="geometry" />
        </mxCell>
        <mxCell id="DETMxY4uiqsoUQ5TjM3a-1" value="superset" style="ellipse;whiteSpace=wrap;html=1;aspect=fixed;" vertex="1" parent="1">
          <mxGeometry x="2270" y="78.76" width="80" height="80" as="geometry" />
        </mxCell>
        <mxCell id="DETMxY4uiqsoUQ5TjM3a-2" value="" style="endArrow=classic;html=1;exitX=1;exitY=0.5;exitDx=0;exitDy=0;entryX=0;entryY=0.5;entryDx=0;entryDy=0;" edge="1" parent="1" source="BoX9NHfvs7r--DL0Gee8-112" target="DETMxY4uiqsoUQ5TjM3a-1">
          <mxGeometry width="50" height="50" relative="1" as="geometry">
            <mxPoint x="1990" y="440" as="sourcePoint" />
            <mxPoint x="2040" y="390" as="targetPoint" />
          </mxGeometry>
        </mxCell>
        <mxCell id="DETMxY4uiqsoUQ5TjM3a-3" value="" style="endArrow=classic;html=1;exitX=1;exitY=0.5;exitDx=0;exitDy=0;entryX=0;entryY=0.5;entryDx=0;entryDy=0;" edge="1" parent="1" source="BoX9NHfvs7r--DL0Gee8-112" target="DETMxY4uiqsoUQ5TjM3a-4">
          <mxGeometry width="50" height="50" relative="1" as="geometry">
            <mxPoint x="1990" y="440" as="sourcePoint" />
            <mxPoint x="2260" y="260" as="targetPoint" />
          </mxGeometry>
        </mxCell>
        <mxCell id="DETMxY4uiqsoUQ5TjM3a-4" value="grafana&lt;br&gt;kibana?" style="ellipse;whiteSpace=wrap;html=1;aspect=fixed;" vertex="1" parent="1">
          <mxGeometry x="2240" y="195" width="80" height="80" as="geometry" />
        </mxCell>
      </root>
    </mxGraphModel>
  </diagram>
</mxfile>
